{"glyphs":{"0":{"ha":669,"x_min":20,"x_max":647,"o":"m 646 613 q 644 580 644 593 q 647 557 644 567 l 647 538 q 644 528 644 533 q 640 517 643 522 q 640 503 642 510 q 639 490 639 496 q 642 463 644 469 q 639 446 640 456 q 644 430 642 439 q 643 411 646 420 q 636 380 637 393 q 631 361 635 368 q 632 326 628 343 q 628 294 636 308 q 624 271 627 278 q 618 255 621 264 q 621 247 618 250 q 627 241 624 244 q 623 226 627 232 q 616 215 620 220 q 608 204 612 210 q 606 189 605 198 q 592 172 597 176 q 583 161 587 167 q 578 140 585 146 q 570 125 572 134 q 552 105 557 113 q 544 88 547 98 q 529 71 533 75 q 524 58 525 66 q 515 52 517 57 q 503 49 513 46 q 496 40 499 45 q 491 31 494 35 q 469 26 480 24 q 449 14 463 14 q 439 5 442 11 q 422 1 435 -1 q 415 -2 418 0 q 406 -4 412 -4 q 399 -10 401 -7 q 392 -15 397 -14 q 382 -10 387 -15 q 369 -4 377 -5 q 362 -12 363 -7 q 355 -20 361 -18 q 347 -16 349 -20 q 340 -9 346 -12 q 322 -17 326 -18 q 316 -16 319 -16 q 276 -17 290 -20 q 259 1 262 -14 q 249 0 252 0 q 239 0 245 0 q 231 4 236 3 q 222 7 227 5 q 213 14 216 15 q 206 15 210 14 q 194 21 199 23 q 184 23 189 19 q 184 31 182 26 q 183 38 186 35 q 164 50 168 42 q 153 62 160 58 q 140 81 144 73 q 133 96 137 88 q 121 108 126 100 q 113 122 117 115 q 100 130 99 127 q 102 137 102 133 q 87 168 92 157 q 84 191 81 178 q 70 209 71 201 q 68 225 69 217 q 64 241 65 232 q 57 255 64 250 q 56 278 54 273 q 60 289 57 283 q 46 315 53 305 q 41 328 43 327 q 38 332 39 330 q 35 359 34 345 q 35 388 35 373 q 37 399 35 396 q 37 404 38 401 q 35 433 34 423 q 38 452 35 444 q 35 471 37 463 q 38 488 34 479 q 35 503 35 496 q 35 518 34 509 q 27 532 34 525 q 26 548 26 540 q 30 563 26 556 q 25 570 27 567 q 22 576 23 572 q 27 601 23 590 q 24 616 26 609 q 20 628 23 623 q 31 654 23 643 q 46 677 39 665 q 47 694 47 685 q 45 711 47 704 q 51 724 49 716 q 58 738 53 732 q 68 764 65 753 q 69 788 71 776 q 81 809 75 799 q 92 830 87 819 q 109 863 98 853 q 127 884 119 872 q 155 909 148 901 q 165 929 161 918 q 181 950 176 937 q 195 972 186 963 q 216 976 206 975 q 237 979 227 977 q 241 987 240 982 q 245 996 243 991 q 264 998 259 993 q 278 1004 269 1002 q 285 999 283 1002 q 290 994 286 996 q 304 1002 300 996 q 320 1005 309 1008 q 332 994 330 991 q 336 998 334 996 q 351 1002 347 1001 q 368 1004 357 1004 q 379 1008 374 1005 q 391 1009 384 1010 q 399 1004 396 1008 q 404 997 401 1000 q 423 999 414 998 q 439 993 433 1000 q 453 979 446 981 q 468 977 460 978 q 496 939 483 948 q 521 917 510 930 q 530 916 526 917 q 537 914 533 916 q 545 902 544 903 q 548 895 547 901 q 547 881 547 888 q 547 867 547 873 q 558 859 552 861 q 567 852 564 856 q 572 841 568 845 q 581 831 576 837 q 585 818 583 819 q 589 814 587 817 q 593 791 591 802 q 597 768 595 780 q 606 760 600 762 q 616 753 613 758 q 617 734 616 736 q 620 728 618 731 q 629 690 621 705 q 640 655 637 675 q 640 646 639 651 q 639 639 640 642 q 643 627 642 633 q 646 613 644 620 m 483 397 q 480 412 483 406 q 479 429 477 419 q 482 437 480 434 q 486 444 484 439 q 477 478 471 464 q 484 505 483 492 q 478 511 481 509 q 473 519 475 514 q 474 532 472 526 q 476 544 476 537 q 471 565 469 562 q 475 572 472 568 q 476 585 473 579 q 479 598 479 590 q 474 606 477 604 q 471 614 471 608 q 464 634 461 631 q 467 644 467 637 q 463 658 464 651 q 464 673 461 665 q 459 685 461 680 q 457 700 457 690 q 451 706 454 703 q 448 713 448 709 q 452 733 454 730 q 452 743 450 736 q 447 749 449 746 q 446 760 445 753 q 435 772 441 766 q 429 788 430 777 q 414 812 410 791 q 406 819 410 815 q 404 830 401 823 q 390 839 397 834 q 378 850 382 844 q 368 871 378 868 q 355 863 361 868 q 342 865 349 859 l 327 876 q 311 863 311 868 q 293 846 300 856 q 277 827 286 836 q 269 823 274 825 q 262 818 264 821 q 248 777 255 792 q 243 772 245 774 q 239 765 240 769 q 235 752 236 755 q 232 746 235 749 q 229 728 231 736 q 220 713 227 719 q 214 700 216 703 q 210 694 213 697 q 214 682 216 688 q 210 669 212 675 q 208 650 209 652 q 205 646 206 648 q 201 627 203 631 q 197 621 198 624 q 198 594 201 601 q 194 579 195 587 q 198 566 197 572 q 199 553 199 560 q 205 532 209 545 q 201 521 203 525 q 198 511 199 517 q 199 503 198 507 q 201 494 201 498 q 197 475 201 483 q 193 461 193 468 q 195 446 195 454 q 194 429 194 438 q 203 391 205 415 q 210 369 210 382 q 206 345 209 355 q 214 320 212 334 q 213 292 216 307 q 216 275 216 283 q 217 255 217 266 q 227 241 222 248 q 229 221 231 233 q 227 211 228 216 q 224 199 225 206 q 241 176 235 182 q 250 159 248 171 q 264 148 260 149 q 270 146 267 146 q 279 136 274 140 q 286 126 283 133 q 301 125 297 125 q 311 125 305 126 q 321 119 316 122 q 331 113 326 115 q 354 118 338 118 q 372 127 363 122 q 391 138 381 133 q 401 153 395 148 q 414 164 408 157 q 422 187 416 183 q 433 196 427 191 q 441 208 438 201 q 445 225 445 214 q 454 245 449 236 q 461 267 458 254 q 460 285 458 277 q 465 302 463 293 q 473 326 471 321 q 472 339 473 332 q 473 351 471 346 q 469 374 467 359 q 473 395 471 388 l 483 397 z "},"1":{"ha":366,"x_min":-1,"x_max":297,"o":"m 278 993 q 290 993 285 994 q 297 986 296 991 q 277 965 281 974 q 273 941 274 956 q 280 949 278 944 q 289 952 282 954 q 286 938 292 944 q 278 924 281 932 q 279 909 278 917 q 279 892 279 902 q 276 867 282 875 q 271 846 270 860 q 275 840 273 842 q 281 834 278 837 q 281 823 281 829 q 283 812 281 818 q 283 779 285 793 q 279 754 282 765 q 279 729 282 736 q 274 715 277 722 q 273 701 277 705 q 267 690 270 696 q 271 674 274 677 q 279 648 275 655 q 276 633 277 640 q 273 618 275 625 q 278 600 281 604 q 273 594 275 597 q 271 583 273 587 q 270 572 270 579 q 275 534 273 548 q 280 528 277 530 q 286 522 283 526 q 282 491 282 506 q 282 472 289 480 q 273 456 275 464 q 275 441 271 446 q 279 427 278 435 q 275 403 277 414 q 270 381 273 392 q 278 368 273 373 q 286 354 283 363 q 284 343 286 347 q 279 334 282 339 q 281 299 281 312 q 277 278 281 286 q 275 249 281 256 q 273 231 270 241 q 272 214 270 217 q 275 208 274 212 q 275 133 274 170 q 280 126 278 129 q 283 119 282 123 q 277 106 282 114 q 274 77 281 90 q 280 54 279 60 q 278 42 281 49 q 287 28 289 31 q 283 23 285 26 q 281 4 282 11 q 277 -5 281 -3 q 264 -6 264 -4 q 262 -7 264 -8 q 237 -7 247 -7 q 217 -11 227 -7 q 198 -9 205 -11 q 165 -3 175 0 q 142 -3 156 -5 q 123 -8 134 -4 q 107 -3 113 -12 q 101 1 106 3 q 92 -1 96 0 q 81 -5 85 -4 q 73 -4 77 -7 q 78 12 77 12 q 80 15 79 12 q 83 31 79 28 q 92 35 87 33 q 100 43 95 39 q 106 53 104 46 q 102 73 100 71 q 100 80 103 76 q 105 87 102 84 q 111 92 109 90 q 109 117 111 110 q 109 130 106 123 q 106 143 107 137 q 104 156 104 149 q 107 175 107 164 q 113 193 107 186 q 109 210 111 202 q 109 227 107 217 q 111 237 109 232 q 111 248 113 241 q 109 269 109 256 q 111 290 109 281 q 110 306 109 304 q 113 311 111 308 q 108 318 110 315 q 106 326 106 321 q 108 335 104 331 q 113 345 111 339 q 109 372 110 363 q 107 395 107 381 q 105 431 104 411 q 107 468 106 450 q 111 486 109 481 q 114 498 114 491 q 107 530 111 522 q 99 548 103 537 q 101 574 99 566 q 106 589 103 582 q 106 611 104 601 q 104 631 109 621 q 107 653 107 642 q 110 675 107 665 q 107 692 109 684 q 109 708 106 700 q 106 742 103 732 q 115 758 109 751 q 111 767 114 764 q 107 776 109 770 q 107 808 111 799 q 106 826 103 817 q 110 837 109 831 q 114 845 111 842 q 106 869 107 864 q 109 876 107 873 q 111 884 111 879 q 103 895 109 891 q 95 906 98 899 q 93 913 94 910 q 91 921 92 917 q 81 927 85 924 q 75 937 77 930 q 59 943 66 939 q 54 958 52 947 q 35 960 42 956 q 19 967 28 964 q 8 980 5 978 q 11 986 11 982 q 3 990 8 989 q 0 998 -1 991 q 15 1005 8 1004 q 23 1000 20 1002 q 33 994 26 997 q 53 998 45 996 q 80 995 65 991 q 106 994 95 998 q 118 994 117 996 q 121 993 119 993 q 138 994 129 996 q 160 993 148 993 q 174 996 167 996 q 182 986 180 997 q 195 991 190 987 q 210 997 201 996 q 235 993 229 989 q 248 1000 241 997 q 259 996 254 998 q 271 996 264 994 l 278 993 z "},"2":{"ha":678,"x_min":14,"x_max":685,"o":"m 685 320 q 680 307 682 313 q 675 296 678 301 q 671 283 674 285 q 665 278 667 281 q 659 262 665 267 q 651 250 654 256 q 648 233 651 237 q 642 225 644 229 q 640 213 642 216 q 636 208 637 210 q 623 164 633 174 q 612 154 612 155 q 613 151 613 153 q 605 134 606 144 q 600 118 604 125 q 585 93 590 104 q 572 71 579 81 q 563 68 567 69 q 557 64 559 68 q 564 58 559 58 q 568 52 568 57 q 561 47 567 46 q 552 50 555 47 q 547 39 549 46 q 547 26 544 33 q 532 15 536 15 q 528 11 528 15 q 536 0 537 0 q 534 -3 534 0 q 521 -3 528 -5 q 513 7 514 0 q 496 -2 506 3 q 480 1 487 -7 q 458 -5 461 -1 q 448 -5 454 -8 q 443 7 448 8 q 433 4 438 5 q 423 1 427 3 q 414 0 419 0 q 378 -1 393 3 q 357 5 363 -4 q 330 5 346 5 q 307 11 313 4 q 294 7 300 8 q 281 4 288 5 q 253 4 267 7 q 228 8 239 1 q 197 0 213 5 q 163 3 180 -5 q 151 1 156 3 q 140 1 146 0 q 126 8 134 3 q 114 1 119 5 q 102 -5 109 -3 q 89 -1 91 -7 q 80 7 87 4 q 64 5 72 5 q 50 3 57 4 q 36 -2 38 -11 q 27 12 34 7 q 28 25 26 23 q 30 33 30 27 q 31 59 24 52 q 45 73 38 66 q 46 87 47 80 q 46 102 45 95 q 52 129 47 122 q 62 140 57 136 q 60 148 62 145 q 56 153 58 151 q 54 174 57 170 q 53 184 50 178 q 56 200 58 198 q 52 208 53 202 q 62 227 56 218 q 72 245 69 235 q 83 273 76 266 q 98 286 91 279 q 113 316 100 305 q 137 339 126 327 q 176 368 153 359 q 185 377 180 373 q 198 381 190 381 q 200 401 198 395 q 209 410 202 407 q 227 415 220 412 q 241 423 235 418 q 261 441 251 433 q 281 458 271 449 q 292 455 286 456 q 301 452 297 454 q 317 467 308 461 q 334 484 327 473 q 339 492 339 487 q 338 502 339 496 q 338 511 338 507 q 342 518 338 515 q 354 521 343 521 q 368 524 365 521 q 385 533 378 526 q 399 548 392 540 q 412 573 408 566 q 418 591 415 581 q 431 606 425 597 q 431 625 438 616 q 437 632 437 628 q 435 642 437 636 q 441 650 438 644 q 448 659 445 656 q 448 671 445 666 q 453 678 450 675 q 441 690 449 685 q 441 705 434 696 q 452 724 452 718 q 450 734 453 730 q 442 753 439 751 q 429 768 430 765 q 427 773 427 770 q 415 785 420 780 q 411 802 410 791 q 391 809 392 799 q 397 826 391 819 q 391 830 395 829 q 381 830 388 831 q 359 823 370 818 q 349 834 347 827 q 338 842 339 840 q 335 846 336 844 q 322 863 331 867 q 290 863 313 860 q 273 834 288 844 q 263 838 266 836 q 254 841 260 841 q 227 828 235 838 q 210 807 218 818 q 196 802 203 804 q 182 795 189 799 q 178 785 178 791 q 180 774 179 780 q 179 765 180 769 q 171 758 178 761 q 159 742 159 751 q 161 734 160 738 q 160 727 161 731 q 154 721 155 726 q 152 713 153 716 q 138 704 142 711 q 129 690 133 697 q 126 680 127 682 q 123 674 125 677 q 122 659 125 662 q 118 652 119 656 q 118 638 118 643 q 119 624 118 633 q 116 614 117 621 q 114 601 115 608 q 104 603 107 597 q 102 616 102 609 q 95 612 98 614 q 85 612 92 609 q 85 623 83 617 q 88 633 88 628 q 85 642 85 636 q 83 652 84 648 q 71 670 73 666 q 71 678 69 674 q 64 692 65 692 q 62 696 62 693 q 63 707 65 705 q 61 711 61 708 q 61 724 60 718 q 57 734 62 731 q 41 739 39 739 q 43 760 43 751 q 39 784 42 769 q 22 788 24 787 q 22 802 16 795 q 26 821 28 810 q 17 833 20 831 q 14 838 14 834 q 22 844 19 841 q 31 849 24 848 q 41 858 39 860 q 45 856 42 856 q 68 883 56 879 q 95 895 80 887 q 117 913 110 898 q 134 935 123 928 q 150 935 144 937 q 160 933 156 932 q 162 941 163 936 q 164 949 161 947 q 175 956 170 952 q 187 963 180 960 q 186 978 184 971 q 203 987 197 989 q 216 991 209 986 q 241 998 231 997 q 254 1003 248 1001 q 267 1006 260 1005 q 309 1006 288 1001 q 350 1005 330 1010 q 371 993 361 989 q 389 994 381 997 q 399 985 396 986 q 404 982 401 983 q 425 978 419 983 q 439 977 433 977 q 452 972 446 977 q 473 962 461 960 q 487 954 484 963 q 501 941 492 940 q 511 933 510 941 q 515 922 513 920 q 522 922 517 924 q 541 901 533 910 q 537 883 548 891 q 562 869 556 872 q 574 863 567 865 q 577 857 575 859 q 582 849 579 854 q 583 831 585 841 q 583 814 581 822 q 587 788 585 793 q 591 776 589 783 q 595 763 591 764 q 598 755 598 762 q 608 736 610 741 q 605 727 606 732 q 610 718 606 720 q 617 711 614 716 q 618 691 616 693 q 624 685 621 689 q 618 667 624 673 q 610 655 613 662 q 614 639 609 644 q 618 623 620 633 l 616 602 q 594 570 601 582 q 576 551 587 559 q 571 533 572 534 q 568 521 571 525 q 564 509 564 517 q 557 500 560 505 q 553 486 553 495 q 528 464 534 471 q 518 446 522 457 q 507 441 513 444 q 499 431 502 438 q 486 410 492 416 q 471 401 480 404 q 458 392 465 391 q 448 391 452 393 q 434 381 441 387 q 419 370 427 376 q 397 354 399 359 q 386 345 391 350 q 374 338 381 340 q 366 336 369 338 q 359 334 363 335 q 343 321 347 321 q 336 317 339 320 q 330 307 331 313 q 326 294 328 300 q 297 281 315 285 q 278 273 281 279 q 279 265 277 267 q 281 258 281 263 q 274 248 278 252 q 266 237 270 243 q 256 222 264 227 q 245 208 248 218 q 246 185 251 187 q 240 176 241 183 q 239 155 250 157 q 227 144 229 153 q 233 140 229 141 q 239 134 237 138 q 252 136 247 134 q 264 141 258 138 q 283 138 271 136 q 301 134 296 141 q 314 139 308 137 q 330 142 320 141 q 355 137 350 134 q 368 140 359 140 q 385 130 381 127 q 395 133 389 132 q 410 135 403 132 q 423 136 416 138 q 437 142 430 138 q 450 148 444 145 q 454 159 453 153 q 461 167 454 164 q 471 165 465 165 q 481 164 476 165 q 493 172 490 170 q 500 176 496 174 q 522 200 510 193 q 543 218 533 208 q 560 231 556 228 q 574 233 567 232 q 583 240 581 235 q 587 258 578 251 q 606 259 595 264 q 612 274 614 262 q 622 288 617 283 q 631 294 627 292 q 650 304 647 298 q 658 316 654 311 q 669 323 665 319 q 682 326 674 328 l 685 320 z "},"3":{"ha":662,"x_min":-20,"x_max":614,"o":"m 591 996 q 604 999 597 998 q 614 994 612 1000 q 604 975 613 982 q 605 961 601 960 q 606 959 609 962 q 607 945 614 945 q 594 944 600 945 q 588 929 586 930 q 590 925 590 928 q 587 913 586 914 q 590 909 589 911 q 585 894 587 901 q 587 875 593 880 q 598 856 593 869 q 595 830 595 838 q 574 806 587 815 q 576 797 575 802 q 576 787 578 792 q 561 773 566 780 q 551 758 556 766 q 540 743 545 750 q 532 735 534 736 q 527 729 529 732 q 525 719 525 726 q 515 705 517 713 q 499 696 513 696 q 500 686 498 692 q 495 675 503 680 q 477 654 481 669 q 467 636 473 639 q 452 620 454 623 q 444 614 449 617 q 446 600 448 605 q 438 593 444 595 q 431 585 438 587 q 422 578 425 582 q 431 576 423 575 q 444 575 439 576 q 465 569 456 570 q 477 566 475 568 q 498 549 488 551 q 509 541 509 548 q 522 541 517 543 q 533 540 526 540 q 533 531 537 536 q 526 522 529 526 q 534 513 529 521 q 546 497 540 506 q 556 480 552 488 q 562 469 560 472 q 572 467 567 468 q 579 463 576 467 q 574 456 576 458 q 570 450 571 454 q 585 452 583 448 q 589 460 586 457 q 590 439 594 445 q 582 427 586 434 q 585 409 583 411 q 589 404 587 407 q 595 386 590 389 q 602 377 600 382 q 603 370 602 373 q 604 362 604 366 q 597 352 602 355 q 589 345 593 349 q 594 335 591 339 q 600 326 597 331 q 601 316 600 319 q 604 308 602 313 q 603 290 601 296 q 602 278 605 283 q 593 261 590 269 q 595 245 597 254 q 593 234 591 236 q 595 227 594 232 q 606 212 605 213 q 605 208 606 210 q 587 193 589 201 q 585 175 586 184 q 583 157 585 165 q 575 144 581 149 q 559 127 560 140 q 547 114 559 115 q 543 94 547 95 q 534 91 538 94 q 528 72 534 75 q 507 61 511 69 q 496 46 502 53 q 458 27 484 23 q 448 21 453 24 q 433 20 442 18 q 426 12 427 18 q 420 1 425 5 q 409 -7 411 -3 q 400 -11 407 -11 q 388 -10 388 -8 q 385 -14 388 -12 q 369 -16 377 -14 q 355 -14 361 -16 q 343 -11 350 -11 q 315 -13 323 -14 q 304 -5 307 -12 q 294 -7 301 -8 q 283 -4 288 -7 q 275 -10 279 -7 q 264 -12 271 -14 q 259 -7 260 -11 q 255 0 258 -3 q 243 -3 248 1 q 231 -4 239 -7 q 218 8 220 8 q 216 11 217 8 q 202 24 206 20 q 194 33 198 28 q 177 40 178 34 q 174 50 176 46 q 157 52 160 47 q 152 62 155 57 q 138 69 138 71 q 134 68 137 68 q 127 73 130 71 q 121 79 123 76 q 102 85 110 91 q 84 95 91 85 q 66 95 68 95 q 58 110 64 103 q 41 117 53 117 q 22 123 27 122 q 11 122 18 123 q -10 127 -3 127 q -20 134 -18 126 q -3 142 -7 140 q 5 146 1 144 q 14 151 8 148 q 23 155 20 155 q 33 153 28 155 q 41 148 37 151 q 51 155 47 151 q 58 161 54 159 q 98 170 84 165 q 119 187 113 174 q 129 191 126 187 q 140 194 132 195 q 163 193 156 191 q 180 197 171 194 q 203 193 198 199 q 210 205 208 198 q 214 220 212 213 q 224 214 225 217 q 225 208 224 210 q 240 221 235 225 q 237 198 244 208 q 247 192 247 194 q 248 187 247 190 q 261 180 260 183 q 263 172 262 176 q 278 165 274 171 q 292 156 282 159 q 294 150 294 153 q 294 140 293 146 q 303 141 298 141 q 311 137 308 141 q 326 145 316 142 q 338 134 336 148 q 349 137 345 132 q 357 146 353 142 q 367 152 362 149 q 381 156 372 155 q 393 176 392 164 q 408 186 408 179 q 411 197 408 193 q 424 209 425 203 q 426 217 423 214 q 434 242 434 233 q 437 262 434 251 q 440 277 442 275 q 441 292 438 279 q 435 307 433 307 q 438 311 437 308 q 429 319 439 313 q 422 330 419 324 q 418 349 420 347 q 416 355 415 351 q 409 371 410 370 q 410 374 408 372 q 407 394 412 392 q 399 399 401 396 q 385 415 392 411 q 377 427 378 419 q 376 443 382 442 q 365 446 370 444 q 357 450 361 449 q 350 454 354 452 q 330 469 335 467 q 317 476 324 472 q 307 484 311 484 q 300 483 304 483 q 297 498 294 486 q 276 505 283 505 q 266 510 269 506 q 248 517 252 511 q 241 529 244 522 q 231 526 235 529 q 217 524 228 522 q 205 528 210 526 q 197 533 199 530 q 195 543 198 543 q 190 547 191 544 q 191 555 190 552 q 194 562 193 559 q 210 567 202 564 q 221 575 217 570 q 234 601 224 593 q 254 620 244 609 q 279 645 271 633 q 283 671 286 656 q 301 690 290 682 q 323 707 312 699 q 342 724 334 715 q 354 747 351 734 q 359 769 350 760 q 372 785 374 779 q 373 799 370 792 q 383 803 380 802 q 389 806 387 804 q 404 818 401 808 q 414 833 406 827 q 418 836 414 834 q 427 840 422 838 q 437 844 433 842 q 441 848 441 846 q 431 842 438 844 q 418 840 425 840 q 408 844 412 841 q 404 853 404 846 q 390 854 397 852 q 381 864 382 856 q 368 861 374 861 q 354 860 362 861 l 334 856 q 308 847 316 852 q 286 842 300 842 q 279 854 285 853 q 273 854 274 854 q 262 848 269 852 q 250 850 255 845 q 231 859 236 861 q 220 853 227 856 q 205 854 213 856 q 193 857 198 852 q 178 848 186 854 q 161 849 171 842 q 149 841 152 848 q 134 833 145 834 q 111 835 115 841 q 99 826 107 829 q 75 823 81 830 q 58 818 69 815 q 52 814 54 817 q 45 808 49 811 q 23 800 27 808 q 12 788 19 792 q 8 803 7 800 q 11 810 9 806 q 38 841 27 822 q 54 857 50 853 q 67 870 64 864 q 75 882 71 876 q 81 904 73 897 q 100 910 88 911 q 103 926 106 914 q 106 940 109 939 q 103 944 104 941 q 114 965 107 956 q 129 981 121 974 q 145 988 142 983 q 151 996 148 993 q 157 1001 155 998 q 164 1006 160 1004 q 170 996 172 997 q 167 990 168 994 q 177 990 172 987 q 186 994 182 993 q 193 999 189 997 q 201 1004 198 1001 q 217 1004 210 1005 q 232 1000 229 996 q 240 1006 235 1004 q 251 1006 245 1006 q 262 1004 256 1006 q 277 998 270 994 q 292 1008 283 1001 q 308 1005 300 1015 q 326 998 315 996 q 343 996 336 1000 q 353 1000 349 997 q 365 1004 358 1002 q 378 1003 372 1005 q 391 1002 384 1001 q 416 996 408 994 q 431 997 423 997 q 443 994 441 993 q 449 994 445 996 q 469 1005 456 1000 q 486 996 481 1010 q 494 997 490 994 q 502 1000 498 1000 q 517 998 509 1001 q 530 993 525 996 q 541 997 537 994 q 553 1000 545 1000 q 576 999 567 993 q 591 996 585 1005 z "},"4":{"ha":689,"x_min":4,"x_max":677,"o":"m 669 456 q 674 448 671 453 q 671 439 677 442 q 657 441 663 441 q 648 433 651 441 q 654 416 656 419 q 651 411 652 414 q 654 397 654 404 q 648 387 654 391 q 652 375 651 382 q 648 363 652 368 q 655 343 656 346 q 657 319 655 328 q 656 304 659 309 q 642 302 644 304 q 636 301 640 301 q 625 308 629 304 q 614 315 621 312 q 607 311 608 315 q 600 311 606 308 q 587 315 589 317 q 582 312 585 312 q 563 309 567 315 q 552 307 559 304 q 548 296 552 300 q 541 286 544 292 q 547 260 549 267 q 544 244 544 252 q 548 222 551 227 q 544 210 545 217 q 556 210 549 210 q 566 206 563 209 q 570 191 571 201 q 566 176 568 182 q 565 159 567 165 q 560 142 563 152 q 559 122 560 129 q 560 102 562 107 q 556 92 559 98 q 553 64 560 76 q 556 51 555 57 q 560 39 557 45 q 558 31 559 37 q 559 23 557 26 q 541 15 555 15 q 532 -10 538 0 q 513 -24 525 -20 q 488 -65 509 -56 q 481 -87 486 -77 q 465 -98 477 -96 q 460 -113 463 -106 q 448 -119 458 -121 q 440 -137 442 -126 q 426 -149 438 -148 q 423 -161 425 -156 q 420 -174 422 -167 q 409 -184 410 -180 q 406 -191 408 -189 q 399 -218 400 -203 q 396 -244 399 -232 q 385 -221 382 -233 q 381 -199 387 -209 q 382 -179 384 -183 q 384 -171 381 -175 q 383 -149 380 -159 q 380 -136 387 -140 q 378 -112 376 -122 q 382 -94 380 -102 q 376 -72 380 -75 q 370 -66 373 -69 q 373 -52 370 -57 q 378 -39 376 -46 q 378 -16 370 -27 q 384 7 385 -4 q 376 9 380 8 q 369 12 372 9 q 373 27 368 22 q 376 54 372 41 q 384 81 380 68 q 389 109 388 95 q 387 137 391 122 q 389 151 387 145 q 389 163 392 156 q 387 180 385 176 q 391 186 389 183 q 390 205 388 203 q 393 212 392 208 q 389 230 387 228 q 393 236 392 232 q 388 243 391 240 q 385 252 385 245 q 389 275 385 264 q 385 290 381 288 q 389 298 389 293 q 378 296 387 298 q 372 302 370 294 q 342 304 353 301 q 327 311 331 308 q 311 320 312 313 q 294 317 302 312 q 282 309 289 312 q 271 298 275 305 q 255 300 256 300 q 254 304 254 301 q 244 310 247 305 q 237 317 241 315 q 222 311 229 315 q 205 309 216 308 q 184 304 195 304 q 161 308 172 305 q 138 314 149 311 q 119 317 127 317 q 113 323 117 320 q 109 328 110 326 q 89 317 102 323 q 68 321 76 311 q 52 311 58 317 q 34 305 46 305 q 22 316 24 317 q 16 316 19 315 q 10 327 16 327 q 7 328 4 327 q 20 343 16 335 q 18 353 20 350 q 15 362 16 357 q 20 390 15 380 q 26 415 26 400 q 33 426 30 420 q 35 441 35 431 q 40 457 38 449 q 45 472 42 465 q 44 486 43 479 q 42 499 45 492 q 49 528 49 514 q 52 560 49 541 q 60 572 58 568 q 62 581 62 575 q 64 592 62 587 q 61 602 65 597 q 64 620 62 618 q 68 624 66 621 q 71 635 69 631 q 73 646 73 639 q 71 660 73 652 q 69 675 69 667 q 71 688 68 682 q 75 700 73 693 q 79 722 79 719 q 84 730 81 726 q 90 738 87 734 q 86 760 84 754 q 90 772 88 765 q 90 800 84 792 q 99 815 95 807 l 94 844 q 102 878 99 860 q 111 911 104 895 q 113 930 111 929 q 117 956 115 947 q 120 981 114 975 q 129 996 126 986 q 129 1015 125 1013 q 134 1021 133 1017 l 148 1028 q 175 1025 163 1028 q 190 1019 187 1021 q 212 1026 195 1023 q 233 1020 229 1029 q 248 1020 240 1025 q 267 1030 256 1023 q 286 1025 278 1038 q 286 1018 285 1023 q 285 1010 286 1013 q 281 991 286 996 q 271 979 275 986 q 269 951 270 964 q 263 928 269 939 q 261 911 262 920 q 258 892 260 902 q 256 878 258 880 q 255 871 254 876 q 265 854 267 859 q 262 845 263 850 q 262 825 263 829 q 245 803 251 807 q 241 790 243 792 q 239 784 239 788 q 247 754 251 765 q 244 736 248 743 q 237 722 240 730 q 234 703 236 713 q 229 684 232 692 q 229 667 233 675 q 227 642 229 650 q 220 627 224 633 q 221 610 222 617 q 221 591 220 602 q 217 581 220 585 q 217 570 214 576 q 205 557 212 563 q 197 540 199 551 q 201 526 203 529 q 197 519 198 524 q 201 513 198 515 q 206 506 205 510 q 201 490 203 495 q 202 473 205 473 q 197 469 199 472 q 198 455 199 463 q 194 441 197 448 q 202 444 198 441 q 212 449 206 448 q 227 448 224 445 q 236 449 229 450 q 250 442 247 444 q 256 442 252 441 q 278 446 269 442 q 298 452 288 449 q 311 450 301 452 q 330 448 320 449 q 350 446 340 448 q 362 445 359 445 q 374 450 368 448 q 387 452 380 452 q 393 463 391 457 q 396 480 396 469 q 400 491 399 486 q 404 503 401 496 q 396 517 392 515 q 403 522 400 519 q 397 530 400 526 q 395 540 393 533 q 396 556 399 555 q 392 560 393 557 q 391 576 392 572 q 389 582 389 579 q 395 595 391 590 q 403 609 400 601 q 392 620 395 612 q 395 642 396 631 q 396 665 395 652 q 401 672 399 669 q 404 681 404 675 q 398 692 404 690 q 389 701 392 694 q 394 711 391 708 q 400 718 397 713 q 396 740 393 736 q 401 749 399 743 q 398 772 399 765 q 400 788 397 780 q 400 827 399 814 q 401 854 401 840 q 397 870 396 869 q 397 872 397 871 q 394 884 393 878 q 392 898 395 891 q 391 911 393 910 q 387 916 388 913 q 388 924 385 921 q 389 935 391 928 q 399 958 393 948 q 395 972 396 971 q 392 977 393 974 q 395 985 395 982 q 392 993 396 989 q 397 1006 395 1004 q 400 1010 399 1008 q 410 1025 406 1025 q 423 1018 420 1016 q 429 1021 426 1020 q 442 1021 435 1020 q 452 1016 449 1023 q 477 1024 472 1020 q 488 1029 481 1028 q 521 1024 510 1023 q 538 1020 532 1025 q 559 1010 553 1023 q 555 987 559 996 q 559 968 560 972 q 555 954 557 963 q 553 924 562 932 q 537 905 544 916 q 559 895 552 895 q 567 887 566 895 q 560 876 564 880 q 555 864 556 872 q 557 851 557 857 q 559 838 556 845 q 559 821 556 823 q 563 812 562 818 q 561 804 562 808 q 559 796 560 799 q 563 742 560 765 q 564 716 567 728 q 555 697 560 704 q 565 688 559 690 q 572 678 571 686 q 570 667 572 671 q 570 656 567 663 q 568 640 566 640 q 571 636 570 639 q 568 621 571 629 q 566 602 566 613 q 568 591 566 595 q 567 582 570 586 q 555 564 557 568 q 551 556 553 559 q 559 551 555 553 q 567 543 564 549 q 564 527 568 532 q 555 517 560 522 q 557 497 557 507 q 553 479 557 487 q 558 466 556 473 q 557 450 560 458 q 578 441 574 439 q 590 442 583 444 q 610 454 600 448 q 636 458 621 461 q 654 455 650 452 q 669 456 658 458 z "},"5":{"ha":628,"x_min":0,"x_max":604,"o":"m 595 815 q 599 794 594 800 q 597 783 604 788 q 574 792 575 787 q 557 810 560 803 q 546 816 549 811 q 540 823 543 821 q 531 826 534 825 q 525 829 528 827 q 509 838 514 830 q 495 833 500 837 q 477 831 490 829 q 477 838 475 834 q 479 846 479 842 q 471 848 476 846 q 464 846 467 849 q 433 856 442 849 q 423 855 426 861 q 411 848 420 849 q 395 857 400 859 q 382 859 389 856 q 368 852 376 856 q 354 854 361 848 q 342 850 347 853 q 330 849 336 846 q 323 854 326 850 q 317 861 321 857 q 291 852 297 856 q 275 849 285 849 l 274 864 q 252 854 259 864 q 233 841 245 844 q 231 860 228 849 q 216 836 220 841 q 216 821 217 829 q 217 803 214 812 q 213 788 210 788 q 218 785 216 788 q 223 762 224 774 q 225 738 222 749 q 218 724 221 732 q 218 708 216 715 q 218 688 217 699 q 219 673 221 674 q 220 669 217 671 q 235 684 228 675 q 256 690 241 692 q 275 694 273 700 q 305 698 296 694 q 326 699 315 701 q 346 692 345 697 q 355 694 351 690 q 366 696 359 697 q 370 681 372 692 q 389 681 380 677 q 407 682 399 685 q 410 673 410 678 q 412 662 411 667 l 427 670 q 439 661 434 666 q 448 651 444 656 q 464 636 457 646 q 479 639 471 639 q 491 632 488 639 q 497 618 492 620 q 505 613 502 616 q 517 598 505 594 q 519 583 521 593 q 524 571 518 574 q 534 569 530 574 q 541 562 537 564 q 544 545 541 551 q 548 526 543 534 q 560 513 553 518 q 568 496 563 502 q 571 475 574 490 q 581 457 581 460 q 585 448 585 454 q 585 437 585 442 q 585 403 586 414 q 585 377 585 392 q 591 368 587 372 q 597 358 594 363 q 594 320 587 339 q 588 297 591 307 q 582 277 585 288 q 578 253 579 262 q 575 235 576 244 q 574 222 571 224 q 576 214 576 220 q 560 191 564 198 q 559 170 556 183 q 550 153 556 159 q 541 136 544 146 q 533 127 536 133 q 528 117 530 122 q 520 105 521 109 q 519 99 519 102 q 503 94 511 99 q 486 74 492 84 q 468 57 479 64 q 452 52 457 56 q 439 53 446 49 q 432 47 434 50 q 427 41 430 43 q 416 37 420 39 q 407 33 412 35 q 398 21 400 28 q 389 11 396 14 q 369 19 376 12 q 357 11 363 14 q 342 12 350 8 q 332 2 339 5 q 316 -3 324 -1 q 299 1 302 3 q 290 -3 296 -1 q 285 4 288 0 q 277 8 282 8 q 254 9 258 7 q 245 8 251 11 q 234 15 239 11 q 221 20 229 19 q 195 15 202 15 q 186 26 187 18 q 178 39 184 35 q 149 47 156 35 q 141 56 145 60 q 130 56 137 53 q 115 69 123 58 q 108 73 111 72 q 102 76 104 73 q 90 87 94 85 q 84 90 87 88 q 77 105 85 102 q 69 119 69 109 q 56 132 64 123 q 39 139 43 136 q 37 153 35 142 q 33 165 31 163 q 34 170 34 167 q 16 175 19 170 q 20 191 18 184 q 30 205 23 198 q 38 197 39 201 q 38 191 37 194 q 47 193 42 193 q 53 189 52 193 q 64 203 60 193 q 74 212 71 206 q 83 221 77 217 q 100 214 96 213 q 109 213 104 216 q 121 227 117 218 q 137 239 126 236 q 153 235 151 233 q 157 239 155 237 q 170 230 171 232 q 170 225 170 228 q 177 211 176 214 q 178 199 178 208 q 195 193 189 201 q 203 176 201 186 q 221 165 218 167 q 229 151 224 152 q 236 146 233 149 q 248 136 243 136 q 258 140 252 137 q 278 133 267 138 q 290 139 283 134 q 304 136 297 144 q 311 141 309 137 q 320 148 313 145 q 343 151 334 148 q 362 165 358 156 q 372 180 366 174 q 387 184 387 193 q 396 205 393 193 q 412 221 399 218 q 408 239 414 231 q 415 259 410 245 q 428 276 429 270 q 430 286 427 282 q 427 306 430 302 q 422 313 425 309 q 426 326 423 321 q 430 338 429 331 q 427 345 429 342 q 427 354 426 347 q 426 374 423 372 q 430 381 429 376 q 429 391 430 387 q 430 401 427 396 q 425 414 427 408 q 415 422 422 419 q 414 451 415 444 q 412 469 412 458 q 411 481 410 477 q 410 487 412 484 q 395 493 393 490 q 396 500 396 496 q 382 514 393 513 q 357 526 363 519 q 343 538 351 533 q 340 557 340 547 q 328 555 334 560 q 316 552 323 549 q 311 558 312 553 q 307 568 309 563 l 290 564 q 270 562 275 556 q 254 574 260 568 q 243 566 247 571 q 232 559 239 562 q 224 549 227 547 q 214 548 221 551 q 210 538 210 545 q 206 529 210 532 q 187 522 191 521 q 182 507 182 517 q 172 496 182 498 q 158 503 161 505 q 151 500 155 500 q 136 508 141 503 q 127 518 132 513 q 113 528 118 519 q 102 534 104 532 q 95 538 99 536 q 80 538 85 537 q 69 541 75 540 q 62 553 64 551 q 57 562 60 556 q 57 575 60 574 q 53 581 54 576 q 58 596 54 590 q 65 612 62 602 q 62 629 60 627 q 66 636 65 631 q 65 651 65 640 q 64 671 61 667 q 64 682 66 675 q 65 707 64 697 q 64 727 66 718 q 64 756 71 751 q 56 772 58 761 q 58 788 57 781 q 62 800 60 795 q 62 827 61 812 q 60 834 61 831 q 58 842 58 837 q 64 853 61 848 q 64 867 66 859 q 49 878 50 869 q 50 888 49 884 q 52 899 52 892 q 31 928 47 925 q 23 958 18 939 q 12 969 14 966 q 7 975 9 972 q 3 981 5 979 q 0 989 0 983 q 8 989 4 991 q 16 987 12 987 q 33 994 30 993 q 39 996 35 996 q 52 996 49 994 q 61 997 56 997 q 75 992 72 993 q 80 991 77 991 q 90 994 87 991 q 98 1000 94 997 q 120 996 113 994 q 133 993 127 998 q 157 996 149 993 q 172 996 165 998 q 186 992 184 990 q 193 996 189 994 l 220 991 q 233 997 227 994 q 244 1002 239 1000 q 263 1005 260 1002 q 273 1008 266 1008 q 295 1013 288 1008 q 313 1019 302 1017 q 334 1008 330 1013 q 336 995 335 996 q 340 991 338 994 q 356 993 347 994 q 372 994 365 991 q 399 996 387 991 q 427 998 412 1000 q 448 995 444 993 q 458 998 452 997 q 479 995 476 991 q 488 1000 483 998 q 496 996 494 998 q 502 991 498 993 q 507 977 506 982 q 506 967 509 971 q 513 959 510 963 q 514 944 515 955 q 534 920 528 933 q 538 900 529 901 q 553 895 547 899 q 563 883 556 890 q 564 876 563 879 q 566 868 566 873 q 574 856 576 859 q 572 850 572 853 q 580 844 578 848 q 585 833 582 841 q 592 821 590 822 q 595 815 594 819 z "},"6":{"ha":677,"x_min":35,"x_max":637,"o":"m 633 362 q 631 346 637 351 q 623 334 625 340 q 625 321 621 326 q 628 309 628 316 q 623 283 628 290 q 623 262 624 274 q 618 252 621 255 q 613 245 616 250 q 613 227 616 232 q 607 218 610 222 q 601 212 604 214 q 591 200 590 206 q 594 190 593 194 q 591 183 593 187 q 589 172 589 179 q 581 161 585 167 q 575 149 578 156 q 566 146 571 146 q 559 142 562 146 q 543 111 551 119 q 529 94 536 103 q 514 76 518 84 q 503 64 510 68 q 485 56 490 61 q 473 46 480 52 q 463 45 467 47 q 453 42 460 42 q 437 28 444 37 q 418 19 431 20 q 400 23 403 26 q 391 22 397 20 q 383 25 385 22 q 377 31 381 28 q 355 15 359 20 q 347 9 351 9 q 335 22 336 9 q 327 18 330 20 q 317 14 324 15 q 308 19 311 16 q 300 24 305 22 q 271 26 279 26 q 258 34 263 27 q 241 39 245 33 q 228 47 236 45 q 208 50 210 45 q 197 59 197 57 q 194 62 197 61 q 184 58 187 62 q 174 56 182 54 q 171 73 165 60 q 155 95 160 90 q 137 113 140 95 q 120 123 121 119 q 117 129 119 126 q 109 136 114 134 q 100 142 103 138 q 102 155 100 152 q 104 164 103 159 q 98 170 102 167 q 92 175 95 172 q 87 188 90 182 q 84 201 85 194 q 77 220 76 216 q 80 228 79 224 q 64 246 68 240 q 61 264 60 252 q 56 290 56 275 q 50 315 57 305 q 56 345 56 336 q 56 362 57 354 q 59 393 54 384 q 66 414 64 401 q 54 414 61 414 q 45 419 46 414 q 50 448 50 439 q 52 463 49 456 q 43 478 47 472 q 35 495 38 484 q 38 505 37 500 q 39 514 39 509 q 57 538 57 529 q 60 559 57 548 q 54 577 57 566 q 58 595 52 589 q 56 635 52 620 q 71 658 60 651 q 68 690 71 671 q 80 716 66 709 q 91 730 95 722 q 90 749 87 738 q 99 766 99 760 q 102 776 99 772 q 106 802 107 793 q 107 819 104 811 q 118 831 113 826 q 126 846 123 836 q 130 872 123 861 q 140 894 136 883 q 165 928 163 899 q 183 947 176 930 q 212 962 203 951 q 218 981 212 975 q 258 1001 243 996 q 276 1005 271 1012 q 290 998 281 998 q 305 1004 300 1000 q 321 1010 311 1008 q 337 1017 330 1015 q 354 1021 345 1020 q 376 1015 372 1017 q 387 1016 381 1013 q 407 1015 400 1015 q 420 1019 414 1016 q 431 1008 429 1019 q 448 1009 438 1009 q 464 1004 454 1005 q 480 1000 473 1002 q 498 977 494 981 q 511 977 505 978 q 519 970 517 975 q 536 962 533 966 q 541 954 538 958 q 554 948 548 951 q 560 936 560 945 q 568 928 564 932 q 571 917 571 924 q 577 911 574 913 q 581 902 581 909 q 593 892 594 894 q 590 887 591 890 q 601 876 600 879 q 605 869 602 873 q 608 857 605 860 q 613 852 610 854 q 618 841 614 845 q 625 831 623 837 q 621 817 624 823 q 609 810 617 811 q 591 814 595 811 q 586 804 589 808 q 575 799 583 800 q 559 769 568 780 q 552 770 555 769 q 544 773 549 772 q 539 760 537 769 q 541 745 541 751 q 527 728 529 730 q 521 726 525 727 q 511 711 514 709 q 506 711 509 712 q 495 693 505 703 q 484 684 484 686 q 480 678 483 681 q 461 667 465 674 q 450 663 457 659 q 452 690 448 684 q 463 712 457 707 q 464 724 461 719 q 469 734 467 728 q 469 741 468 738 q 471 749 469 745 q 469 761 468 758 q 473 766 471 764 q 463 778 469 774 q 456 793 457 781 q 456 805 461 804 q 449 812 450 806 q 451 821 449 818 q 454 827 453 823 q 441 848 445 842 q 439 860 438 853 q 410 871 423 861 q 398 881 404 883 q 389 886 392 879 q 366 885 370 882 q 355 884 362 888 q 336 880 340 887 q 323 876 332 873 q 311 865 316 871 q 297 856 305 859 q 292 842 294 849 q 288 829 290 836 q 288 811 289 819 q 281 799 288 803 q 270 782 273 788 q 259 774 267 776 q 256 768 256 772 q 255 760 256 764 q 244 736 247 745 q 245 710 251 722 q 232 689 239 699 q 233 682 232 685 q 235 673 235 678 q 218 637 235 642 q 238 632 232 628 q 255 635 244 636 q 287 650 278 644 q 304 662 296 655 q 326 656 320 658 q 336 652 332 655 q 346 656 343 654 q 355 661 349 659 q 374 654 366 658 q 385 640 382 651 q 418 648 399 646 q 444 640 437 644 q 456 632 450 636 q 473 631 465 635 q 484 621 481 628 q 494 607 488 606 q 507 608 500 608 q 517 606 513 608 q 525 600 522 605 q 536 585 528 586 q 547 579 544 585 q 551 559 549 564 q 555 551 552 555 q 568 547 564 549 q 575 541 572 544 q 574 514 571 530 q 588 506 587 509 q 587 500 589 503 q 591 480 589 484 q 595 469 594 476 q 610 467 605 469 q 608 452 613 457 q 604 435 602 446 q 617 425 616 426 l 617 404 q 624 390 621 397 q 624 373 627 382 l 633 362 m 463 289 q 462 298 463 294 q 461 309 461 302 q 467 320 464 315 q 471 332 469 326 q 458 357 463 342 q 462 373 461 363 q 460 389 463 382 q 463 404 463 397 q 455 421 452 416 q 458 431 458 426 q 450 431 453 433 q 442 430 448 429 q 437 443 433 434 q 439 461 441 452 q 425 467 433 464 q 422 481 418 471 q 412 490 418 487 q 401 500 406 494 q 382 506 391 500 q 378 522 374 511 q 370 524 372 522 q 361 526 368 526 q 344 515 354 522 q 330 524 334 509 q 321 519 324 522 q 311 518 319 517 q 298 524 300 530 q 292 513 296 518 q 263 499 278 499 q 254 489 256 495 q 248 476 251 483 q 235 470 240 475 q 227 460 231 465 q 227 446 225 452 q 228 430 229 439 q 221 418 225 423 q 217 403 217 412 q 218 375 224 388 q 213 347 212 362 q 223 334 218 340 q 227 315 228 328 q 219 301 222 308 q 213 285 216 294 q 219 280 216 282 q 224 273 222 278 q 221 254 224 264 q 229 237 228 239 q 235 229 232 232 q 235 218 237 225 q 256 212 247 210 q 269 206 266 214 q 268 184 269 190 q 271 176 267 179 q 279 176 275 175 q 286 175 282 178 q 299 165 297 167 q 304 163 301 164 q 323 153 315 155 q 339 149 332 152 q 367 153 358 153 q 387 153 376 152 q 386 163 389 157 q 388 171 382 168 q 414 179 407 172 q 429 193 420 186 q 433 200 430 198 q 439 206 437 202 q 448 227 433 227 q 446 256 445 247 q 450 274 448 266 q 458 279 454 277 q 463 289 461 282 z "},"7":{"ha":628,"x_min":-8,"x_max":628,"o":"m 628 987 q 624 979 625 982 q 621 972 623 977 q 606 947 606 964 q 607 923 612 929 q 600 910 602 917 q 602 888 602 901 q 591 872 601 875 q 589 859 586 860 q 590 856 591 859 q 581 845 579 845 q 581 842 582 845 q 574 827 576 836 q 572 808 571 819 q 566 804 570 806 q 560 799 563 802 q 553 782 557 783 q 547 777 548 781 q 545 751 547 765 q 544 726 543 738 q 538 709 538 719 q 538 689 537 699 q 530 671 533 674 q 524 661 526 667 q 527 648 530 651 q 521 642 524 644 q 515 637 518 639 q 509 632 513 635 q 499 603 503 609 q 496 586 495 597 q 491 568 488 571 q 495 560 494 566 q 486 541 490 549 q 476 525 481 533 q 472 500 476 510 q 457 479 460 487 q 453 463 454 472 q 445 449 452 456 q 444 439 444 445 q 445 430 445 433 q 423 406 423 420 q 424 380 426 391 q 422 358 422 370 q 408 338 415 347 q 399 315 401 330 q 393 296 395 301 q 381 277 381 283 q 385 264 381 270 q 380 235 384 248 q 378 203 376 221 q 362 191 372 197 q 357 170 353 184 q 344 145 338 157 q 347 122 350 133 q 336 106 338 113 q 331 96 335 99 q 323 77 319 84 q 324 64 327 71 q 313 53 315 56 q 309 47 311 50 q 315 26 312 41 q 311 5 319 12 q 287 6 300 7 q 266 12 274 5 q 250 14 254 20 q 237 4 247 7 q 230 7 232 4 q 225 14 228 11 q 216 11 221 14 q 205 7 210 8 q 195 6 199 5 q 186 12 190 7 q 177 12 182 12 q 170 15 172 12 q 157 6 164 12 q 141 7 151 0 q 134 1 138 5 q 126 1 130 -3 q 130 11 125 8 q 137 20 134 14 q 141 37 134 31 q 155 49 148 43 q 163 90 155 79 q 163 105 161 98 q 167 119 165 113 q 174 136 175 133 q 175 144 174 140 q 179 154 176 151 q 183 164 182 157 q 185 180 186 171 q 187 195 184 189 q 199 215 197 208 q 208 229 202 222 q 212 246 210 237 q 217 263 214 255 q 236 308 228 293 q 246 330 241 326 q 255 339 251 334 q 251 372 251 353 q 259 384 254 378 q 269 393 264 389 q 276 421 270 410 q 285 448 282 433 q 283 459 285 454 q 283 471 282 464 q 290 476 286 475 q 296 480 293 477 q 298 495 300 494 q 297 499 296 496 q 301 512 298 506 q 302 528 304 518 q 309 554 308 544 q 321 563 311 564 q 334 584 326 576 q 345 609 343 591 q 339 618 342 614 q 335 628 336 621 q 341 642 338 636 q 354 650 345 648 q 358 671 358 658 q 361 679 359 675 q 363 688 363 682 q 374 699 368 694 q 382 709 380 703 q 379 721 377 720 q 381 726 381 722 q 380 739 382 734 q 377 751 378 745 q 380 762 377 758 q 384 773 384 765 q 389 793 392 789 q 391 807 393 806 q 388 811 389 808 q 396 820 391 818 q 404 829 401 822 q 401 847 404 840 q 400 864 399 854 q 391 860 396 863 q 381 859 387 857 q 361 862 365 864 q 353 859 358 860 q 334 868 338 864 q 326 863 330 865 q 316 859 323 860 q 307 859 311 857 q 300 864 304 861 q 283 867 290 856 q 273 865 277 868 q 263 864 270 863 q 246 865 250 869 q 236 864 243 861 l 220 852 q 210 854 213 850 q 203 860 206 857 q 191 856 197 854 q 184 865 184 857 q 169 860 171 859 q 163 861 167 861 q 151 857 157 859 q 138 857 145 854 q 129 845 129 852 q 107 836 113 841 q 95 825 102 830 q 73 818 79 825 q 56 817 66 811 q 37 796 46 810 q 16 781 23 788 q 0 769 9 773 q -4 789 -8 781 q 0 806 0 796 q 18 830 11 821 q 34 849 26 840 q 31 870 24 867 q 43 878 37 873 q 49 890 46 884 q 54 905 52 897 q 54 918 57 917 q 52 924 52 920 q 57 929 54 926 q 62 935 60 932 q 72 947 68 943 q 75 964 72 960 q 81 970 77 967 q 81 979 84 977 q 79 985 79 981 q 98 1000 90 991 q 115 1012 113 1009 q 122 1010 117 1015 q 119 1001 125 1004 q 110 991 113 998 q 124 994 118 989 q 140 998 130 1000 q 156 1000 155 1002 q 160 997 157 997 q 172 1002 168 998 q 184 1008 176 1006 q 186 994 189 998 q 183 986 184 990 q 203 996 199 994 q 210 1001 208 998 q 233 994 229 1004 q 252 1001 243 997 q 273 1002 262 1005 q 286 997 282 994 q 296 1002 290 1000 q 326 1006 313 1001 q 357 993 346 996 q 378 993 368 990 q 397 998 389 996 q 415 997 404 1001 q 435 996 430 997 q 444 991 441 994 q 471 1006 464 1001 q 487 1009 477 1012 q 489 1003 490 1006 q 488 994 488 1000 q 498 996 494 997 q 507 996 502 996 q 523 992 521 994 q 528 989 525 990 q 536 989 532 989 q 544 987 541 990 q 558 990 552 987 q 571 994 564 993 q 588 990 585 989 q 597 994 591 991 q 610 990 604 993 q 624 990 617 987 l 628 987 z "},"8":{"ha":685,"x_min":42,"x_max":652,"o":"m 640 308 q 648 300 644 305 q 650 288 652 296 l 637 271 q 625 237 635 250 q 629 218 631 221 q 624 213 627 216 q 620 198 624 202 q 616 186 616 194 q 594 167 609 168 q 591 143 593 151 q 582 132 589 136 q 583 118 585 125 q 574 110 581 111 q 559 92 564 99 q 548 77 555 85 q 537 69 543 73 q 525 62 532 65 q 510 50 519 54 q 499 43 500 43 q 495 42 498 43 q 484 30 490 39 q 471 12 477 20 q 453 -3 464 3 q 448 3 448 -1 q 450 12 448 8 q 439 14 444 12 q 427 16 434 16 q 409 11 412 11 q 403 9 406 11 q 374 -1 381 3 q 358 -3 366 -4 q 320 1 330 4 q 294 7 298 7 q 279 8 289 8 q 266 15 273 11 q 252 23 259 19 q 243 22 247 24 q 237 20 240 20 q 212 32 221 33 q 197 35 203 31 q 191 50 197 45 q 176 53 184 53 q 160 57 167 53 q 156 64 159 61 q 151 71 153 66 q 123 102 151 99 q 113 121 118 118 q 109 132 109 125 q 90 156 96 140 q 83 163 87 160 q 76 170 79 165 q 64 199 72 190 q 54 218 57 208 q 50 232 50 231 q 52 236 50 233 q 47 262 42 245 q 43 284 43 279 q 42 296 42 289 q 45 330 43 321 q 49 350 47 339 q 49 370 46 368 q 54 380 52 373 q 52 406 52 396 q 61 420 53 412 q 64 444 61 439 q 71 453 68 448 q 74 469 69 461 q 84 484 79 477 q 93 506 87 503 q 100 517 99 509 q 115 531 113 528 q 119 541 117 534 q 128 546 123 544 q 137 552 133 548 q 159 568 152 564 q 157 583 152 581 q 163 593 161 586 q 156 595 160 597 q 146 594 152 594 q 137 616 132 597 q 123 627 130 621 q 118 644 115 632 q 113 653 115 650 q 111 663 111 656 q 104 674 109 670 q 96 685 99 678 q 107 695 100 692 q 117 707 114 699 q 101 715 104 713 q 92 720 98 718 q 92 730 91 726 q 90 736 92 734 q 83 732 85 735 q 75 731 80 728 q 77 742 72 739 q 84 751 83 745 q 83 766 83 760 q 84 780 84 773 q 91 798 91 789 q 96 804 94 800 q 100 811 98 807 q 104 827 99 822 q 113 837 109 831 q 118 868 115 853 q 130 892 121 883 q 144 907 140 901 q 152 922 149 913 q 165 932 159 928 q 176 944 171 937 q 186 968 176 959 q 203 966 195 977 q 216 977 210 970 q 232 981 222 983 q 244 988 239 983 q 258 994 250 993 q 283 1000 278 993 q 298 1010 289 1008 q 311 1006 305 1008 q 326 1008 317 1005 q 346 1001 340 1002 q 354 997 351 1000 q 367 1003 361 1000 q 382 1008 373 1006 q 395 1001 392 1002 q 400 998 397 1000 q 412 1003 407 1001 q 425 1006 418 1005 q 448 993 444 1001 q 448 977 453 985 q 460 978 452 977 q 476 977 469 979 q 485 964 481 967 q 491 954 488 960 q 508 947 502 951 q 525 943 514 943 q 547 922 545 928 q 557 907 549 909 q 568 898 566 905 q 568 882 564 883 q 572 879 571 882 q 574 869 575 872 q 574 860 572 865 q 579 847 576 853 q 589 837 582 841 q 597 810 601 817 q 589 799 594 803 q 598 774 598 780 q 598 760 598 768 q 602 733 604 739 q 598 719 600 727 q 597 709 597 713 q 594 700 597 704 q 587 675 585 682 q 590 659 589 669 q 579 648 587 654 q 574 635 581 637 q 559 633 567 633 q 559 612 562 618 q 544 601 553 605 q 532 564 532 586 q 544 548 544 559 q 562 538 556 548 q 585 511 567 515 q 591 506 587 509 q 597 499 594 503 q 609 481 610 487 q 616 477 612 479 q 621 471 620 475 q 619 459 621 464 q 614 449 617 454 q 624 439 614 439 q 636 430 633 438 q 630 424 635 425 q 623 420 625 423 q 637 405 636 414 q 635 391 639 396 q 635 372 639 376 q 640 343 640 354 q 642 323 639 332 q 643 310 644 311 q 640 308 642 309 m 241 746 q 239 739 239 743 q 237 730 239 734 q 245 729 240 728 q 252 724 251 730 q 245 716 250 718 q 239 711 241 715 q 254 694 248 697 q 258 685 259 692 q 274 679 269 684 q 279 662 279 674 q 301 647 297 656 q 314 642 313 644 q 317 640 315 640 q 342 641 330 642 q 359 631 355 640 q 367 635 363 633 q 377 637 370 637 q 393 648 387 648 q 408 658 392 661 q 423 673 415 666 q 429 699 426 685 q 446 722 444 711 q 441 739 438 736 q 448 743 445 741 q 448 754 445 750 q 450 761 452 758 q 446 777 445 769 q 445 787 448 784 q 436 802 435 796 q 438 811 437 807 q 429 819 435 817 q 419 825 423 821 q 416 841 419 830 q 409 851 411 845 q 403 863 407 857 q 387 854 401 852 q 366 867 370 868 q 346 869 350 871 q 336 865 342 867 q 321 864 321 869 q 313 856 320 859 q 300 849 305 850 q 276 848 279 852 q 267 846 273 844 q 262 837 259 838 q 264 831 266 836 q 254 821 255 823 q 252 817 252 819 q 252 806 254 807 q 248 802 251 804 q 245 784 243 785 q 248 779 248 783 q 242 757 243 761 q 241 746 241 753 m 471 323 q 484 330 476 328 q 494 338 491 331 q 471 364 473 345 q 468 403 469 384 q 463 414 461 411 q 464 419 464 416 q 457 438 453 435 q 461 448 461 441 q 438 457 438 446 q 430 464 434 461 q 423 471 426 467 q 407 486 410 480 q 404 502 404 491 q 386 498 395 505 q 369 499 377 491 q 352 512 361 513 q 336 509 343 511 q 316 517 320 519 q 309 513 312 515 q 297 506 298 505 q 293 507 296 507 q 279 494 283 503 q 267 485 273 490 q 255 475 262 480 q 250 457 258 460 q 236 450 243 454 q 224 426 229 433 q 214 412 220 419 q 209 393 216 400 q 195 378 202 385 q 201 370 198 373 q 205 362 205 368 q 200 327 203 340 q 194 305 197 313 q 207 291 203 292 q 213 288 210 290 q 218 255 220 270 q 216 229 217 240 q 237 225 231 233 q 247 210 243 217 q 252 192 245 197 q 259 179 258 187 q 283 163 275 170 q 304 161 290 157 q 323 151 319 155 q 330 144 327 148 q 341 146 336 142 q 353 149 346 151 q 384 145 376 140 q 404 148 392 151 q 438 172 423 167 q 457 195 453 178 q 460 216 454 212 q 469 227 467 220 q 471 238 468 235 q 476 248 473 241 q 476 263 473 255 q 479 279 479 271 q 477 293 475 292 q 481 297 480 294 q 479 312 476 305 l 471 323 z "},"9":{"ha":705,"x_min":33,"x_max":656,"o":"m 642 593 q 640 576 639 585 q 639 562 642 568 q 648 545 643 551 q 656 529 654 538 q 654 519 655 524 q 652 509 652 514 q 635 484 635 494 q 632 464 635 473 q 638 446 635 457 q 635 426 642 434 q 638 385 642 400 q 624 362 635 369 q 627 329 624 349 q 616 302 629 309 q 601 308 609 302 q 604 290 600 298 q 605 270 608 282 q 596 253 595 259 q 594 241 597 247 q 590 217 589 227 q 589 198 591 208 q 578 186 583 191 q 570 171 572 180 q 567 144 572 156 q 557 122 562 133 q 530 90 533 118 q 514 68 518 81 q 494 64 499 68 q 486 54 488 60 q 484 43 484 47 q 479 35 483 38 q 470 37 472 34 q 464 41 468 39 q 438 14 452 19 q 420 9 425 3 q 406 16 415 15 q 389 9 395 14 q 373 3 382 5 q 357 -3 365 0 q 339 -7 349 -5 q 315 1 320 -1 q 305 0 311 3 q 284 -1 292 0 q 270 -4 277 -1 q 262 -1 264 -4 q 258 5 260 3 q 243 4 252 4 q 226 9 236 8 q 209 15 216 11 q 191 39 194 35 q 177 39 184 38 q 167 46 170 41 q 151 54 153 50 q 144 61 148 58 q 131 66 137 64 q 125 79 125 69 q 117 87 121 83 q 114 99 114 92 q 107 106 111 103 q 103 114 103 109 q 92 129 90 122 q 81 148 85 137 q 68 165 77 159 q 62 176 66 172 q 56 186 58 180 q 59 199 57 193 q 68 208 61 205 q 80 224 76 220 q 91 225 84 228 q 97 234 94 231 q 109 240 100 237 q 115 256 111 248 q 125 270 118 263 q 143 278 146 270 q 141 293 140 286 q 146 299 144 296 q 151 307 148 302 q 163 320 164 316 q 164 327 161 324 q 180 337 179 334 q 189 345 182 340 q 198 355 198 353 q 201 361 198 358 q 222 372 217 365 q 233 373 227 378 q 232 349 237 354 q 224 332 227 334 q 221 327 222 330 q 219 315 222 320 q 213 305 216 311 q 213 290 216 297 q 210 273 216 278 q 220 260 214 264 q 228 245 225 256 q 219 235 217 235 q 221 232 221 235 q 220 225 221 228 q 220 217 218 222 q 230 214 224 214 q 237 206 236 213 q 235 197 237 199 q 232 190 233 194 q 245 170 241 175 q 247 157 248 164 q 279 146 266 155 q 291 135 285 133 q 300 130 297 137 q 324 131 320 134 q 335 132 328 127 q 355 136 350 129 q 369 140 359 142 q 381 153 376 146 q 393 163 387 159 q 399 175 397 168 q 403 189 400 182 q 403 207 401 198 q 410 220 404 216 q 430 243 416 241 q 433 250 434 245 q 435 258 433 255 q 440 265 438 263 q 445 270 442 267 q 445 309 439 297 q 457 331 450 320 q 456 340 457 336 q 454 349 454 343 q 460 373 458 365 q 471 384 461 381 q 450 389 457 393 q 431 387 444 385 q 400 370 408 377 q 382 357 392 363 q 349 368 362 362 q 340 363 343 366 q 330 359 336 361 q 309 366 317 362 q 298 381 301 370 q 264 372 283 373 q 239 380 247 376 q 227 389 232 385 q 206 390 216 387 q 194 400 197 393 q 174 414 189 416 q 155 420 159 411 q 142 437 151 435 q 129 444 133 438 q 126 463 127 458 q 122 472 125 468 q 102 480 110 475 q 102 509 106 494 q 85 524 83 518 q 81 543 84 537 q 77 555 79 548 q 66 574 61 568 q 68 590 71 579 q 56 610 56 606 q 54 621 56 614 q 47 636 50 628 q 46 652 43 644 q 39 680 33 673 q 47 693 45 686 q 45 705 47 701 q 41 716 42 709 q 46 745 41 736 q 46 766 45 754 q 50 774 47 772 q 56 783 53 777 q 56 802 53 796 q 65 817 61 812 q 76 829 77 823 q 72 837 75 834 q 76 846 75 842 q 77 857 77 850 q 92 882 87 869 q 101 883 96 883 q 109 886 106 883 q 104 897 102 897 q 110 901 107 898 q 138 937 122 918 q 153 954 149 945 q 164 967 157 963 q 182 976 176 971 q 193 985 187 981 q 205 987 201 983 q 216 989 209 990 q 231 1003 225 996 q 251 1012 237 1010 q 270 1008 267 1005 q 279 1009 273 1010 q 288 1006 285 1009 q 294 1001 290 1004 q 314 1017 311 1010 q 324 1023 317 1023 q 336 1009 335 1023 q 345 1014 342 1010 q 354 1019 349 1017 q 363 1013 359 1016 q 373 1006 366 1009 q 402 1004 393 1005 q 415 998 411 1004 q 434 994 429 1000 q 449 985 439 987 q 468 981 468 987 q 479 973 479 975 q 483 968 480 971 q 493 973 490 970 q 503 975 496 977 q 509 968 509 972 q 507 959 510 963 q 513 951 510 954 q 518 947 515 949 q 543 918 540 936 q 549 916 545 916 q 557 914 553 916 q 561 907 560 911 q 564 901 562 903 q 572 892 567 895 q 581 886 578 890 q 581 874 582 878 q 578 867 579 871 q 584 860 581 863 q 590 854 587 857 q 598 827 595 842 q 604 823 601 825 q 609 817 606 821 q 604 800 606 811 q 622 781 617 788 q 625 764 627 774 q 630 737 631 753 q 636 711 629 722 q 631 680 632 689 q 632 663 631 671 q 630 633 635 642 q 623 612 625 624 q 635 612 628 612 q 646 605 643 612 l 642 593 m 467 623 q 466 650 460 637 q 471 680 472 663 q 459 692 464 685 q 456 711 454 699 q 468 742 464 724 q 462 747 465 745 q 457 754 458 750 q 458 764 457 760 q 458 773 458 769 q 452 788 452 787 q 450 791 452 789 q 445 800 448 796 q 445 810 442 803 q 422 817 431 819 q 410 823 412 814 q 410 844 410 838 q 406 853 410 850 q 399 853 403 854 q 391 853 395 852 q 376 864 380 863 q 370 867 373 865 q 351 877 361 876 q 335 880 342 878 q 307 877 316 876 q 288 876 298 878 q 288 867 285 872 q 286 859 290 861 q 258 850 266 857 q 243 836 251 842 q 239 828 241 830 q 233 822 236 826 q 225 802 239 802 q 227 771 228 780 q 224 754 225 762 q 210 739 213 746 q 212 728 212 732 q 213 716 213 723 q 208 706 210 711 q 203 694 205 701 q 217 669 210 685 q 214 653 214 662 q 217 637 213 644 q 214 630 216 633 q 214 621 213 627 q 222 604 225 609 q 218 591 218 598 q 227 593 224 591 q 235 594 229 595 q 241 581 244 590 q 239 564 237 572 q 254 558 245 562 q 256 541 262 555 q 269 533 262 536 q 278 524 275 530 q 298 517 290 524 q 304 500 307 511 q 311 498 309 500 q 320 498 313 496 q 329 503 324 499 q 338 508 334 506 q 347 509 343 510 q 353 499 350 507 q 362 504 359 500 q 372 506 365 507 q 386 500 384 494 q 392 510 388 506 q 408 522 403 518 q 420 525 412 525 q 437 547 430 532 q 450 553 445 548 q 458 566 454 559 q 457 580 458 574 q 456 594 456 586 q 463 607 458 601 q 467 623 467 613 z "},"":{"ha":555,"x_min":19,"x_max":551,"o":"m 544 766 q 547 759 543 761 q 548 750 551 757 q 521 745 528 746 q 507 746 514 743 q 496 733 495 735 q 494 731 496 731 q 482 736 484 735 q 479 736 480 736 l 480 709 q 486 686 490 693 q 483 673 481 680 q 505 654 506 671 q 503 627 503 637 q 517 606 514 620 q 518 578 519 593 q 517 557 519 567 q 513 540 514 548 q 515 525 515 533 q 522 514 515 517 l 533 486 q 528 472 532 477 q 521 460 524 467 q 522 447 522 454 q 522 433 521 439 q 517 418 524 418 q 507 418 511 418 q 513 400 510 407 q 519 382 517 393 l 515 345 q 515 313 514 327 q 511 290 515 300 q 509 275 513 279 q 503 264 506 271 l 499 244 q 484 216 490 227 q 477 197 476 199 q 479 189 479 194 q 471 181 475 183 q 464 175 467 179 q 453 163 456 163 q 448 160 450 163 q 431 146 445 146 q 421 132 423 133 q 418 127 419 130 q 415 113 420 117 q 406 115 408 111 q 399 118 404 118 q 387 107 391 109 q 376 104 378 102 q 369 106 373 106 q 358 98 362 103 q 343 94 354 92 q 333 88 340 90 q 320 84 326 87 q 300 81 302 83 q 293 76 297 79 q 285 79 288 77 q 278 83 282 81 q 260 78 264 73 q 251 85 255 83 q 237 86 239 90 q 231 83 235 83 q 223 85 225 81 q 216 90 221 88 q 191 89 197 81 q 178 102 184 96 q 168 103 171 100 q 159 104 165 106 q 150 113 155 109 q 140 122 145 117 q 124 130 127 123 q 118 142 121 136 l 88 176 q 80 189 84 190 q 73 191 76 189 q 68 202 71 197 q 61 212 65 208 q 56 228 61 220 q 58 244 61 235 q 42 258 43 251 q 42 275 39 267 q 32 298 31 294 q 33 305 33 301 q 31 321 30 313 q 31 338 27 335 q 33 349 34 342 q 24 360 30 355 q 23 374 19 365 q 32 397 28 391 q 38 410 35 404 l 38 427 q 45 450 50 445 q 43 463 41 454 q 59 475 57 472 q 58 484 61 477 q 62 500 60 496 q 73 526 77 518 q 88 534 87 534 q 91 533 90 533 q 94 541 94 537 q 98 548 95 545 q 106 564 99 564 q 118 567 114 564 q 132 583 119 585 q 151 583 144 581 q 160 603 153 601 q 175 604 167 605 q 185 612 179 608 q 199 612 191 616 q 222 616 216 617 q 236 612 229 614 q 259 628 237 625 q 269 626 266 628 q 277 623 273 624 q 286 625 281 624 q 296 625 290 627 q 319 620 311 624 q 338 613 327 616 q 360 603 355 606 q 372 597 365 600 q 369 632 362 613 q 364 645 363 642 q 365 652 365 648 q 355 669 359 659 q 353 690 350 680 q 334 690 338 693 q 326 688 331 688 q 309 688 315 682 q 298 677 300 677 q 296 678 297 678 q 275 678 281 670 q 269 675 273 675 q 262 671 264 674 q 247 690 247 681 q 240 700 240 697 q 237 705 240 703 q 239 713 241 713 q 233 720 236 713 q 239 735 236 734 q 243 741 241 736 q 252 746 250 743 q 258 751 255 749 q 275 750 270 746 q 286 757 279 754 q 303 757 300 753 q 313 760 307 761 q 313 783 315 777 q 309 795 312 789 q 298 803 302 798 q 289 812 294 808 q 277 815 281 810 q 267 822 274 821 q 250 819 254 822 q 243 817 247 817 q 224 817 229 815 q 216 815 218 818 q 189 799 205 802 q 187 789 190 793 q 183 777 184 784 q 178 764 176 766 q 182 758 180 762 q 174 752 179 753 q 167 749 170 751 q 168 729 174 732 q 160 718 163 726 q 163 705 164 705 q 163 703 163 705 q 168 682 165 686 q 170 673 171 678 q 170 659 172 661 q 170 654 168 656 q 179 642 182 646 q 169 633 172 628 q 163 642 165 639 q 151 646 151 644 q 148 651 151 648 q 133 671 133 662 q 119 678 118 675 q 119 684 121 681 q 102 700 106 694 q 104 713 102 707 q 99 724 106 720 q 73 746 77 731 q 64 751 66 747 q 58 758 61 754 q 31 774 34 757 q 37 782 34 779 q 41 792 41 785 q 47 806 46 804 q 60 821 57 818 q 71 842 68 840 q 76 848 73 845 q 79 857 76 854 q 85 863 83 860 q 91 873 85 871 q 102 879 96 876 q 115 890 114 890 q 119 891 117 891 q 140 898 125 901 q 153 917 151 911 q 168 922 160 921 q 182 926 175 924 q 198 930 197 928 q 205 933 199 933 q 216 930 210 930 q 227 926 222 929 q 242 930 239 928 q 251 930 245 932 q 277 932 270 935 q 290 928 283 930 q 302 922 297 925 q 316 917 308 918 q 328 922 324 917 q 340 925 332 928 q 365 903 355 914 q 382 895 381 899 q 384 884 384 890 q 400 871 392 875 q 422 856 411 860 q 428 837 423 845 q 444 827 433 829 l 453 807 q 464 804 461 800 q 469 808 467 807 q 484 808 480 808 q 491 807 488 807 q 517 815 510 822 q 530 803 526 807 q 530 795 528 800 q 532 788 533 791 q 537 770 537 774 l 544 766 m 170 330 q 170 319 171 324 q 168 311 168 315 q 173 303 170 305 q 179 298 176 301 q 182 284 182 292 q 186 270 183 277 q 194 251 194 258 q 193 235 191 237 q 197 229 195 233 q 211 218 205 224 q 225 208 217 212 q 235 203 237 208 q 235 195 232 198 q 250 195 243 194 q 264 190 258 195 q 287 195 279 194 q 301 194 294 195 q 313 208 308 208 q 326 216 323 217 q 332 216 330 214 q 336 235 338 232 q 335 240 335 237 q 345 245 336 247 q 358 245 353 243 q 363 260 361 256 q 368 267 365 263 l 374 282 q 372 297 372 290 q 376 303 373 301 q 382 308 380 305 q 376 321 380 315 q 370 335 373 328 q 374 350 369 345 q 384 361 378 355 q 378 385 384 374 q 378 408 372 396 q 375 421 378 416 q 369 431 372 426 q 369 445 368 439 q 369 457 370 450 q 362 465 366 461 q 351 471 358 469 q 339 490 347 484 q 328 493 332 490 q 321 500 324 496 q 309 511 311 506 q 300 517 307 517 q 290 509 292 506 q 282 511 288 511 q 271 505 279 498 q 254 514 262 511 q 238 496 244 500 q 221 491 232 491 q 213 483 218 486 q 203 475 208 480 q 201 463 208 465 q 189 457 194 460 q 190 443 187 450 q 186 431 193 435 q 175 424 172 429 q 180 415 178 419 q 170 402 168 406 q 171 396 171 399 q 170 383 168 391 q 172 369 171 376 q 163 347 168 355 q 170 330 164 340 z "},"":{"ha":591,"x_min":-77,"x_max":654,"o":"m 395 593 q 401 581 395 585 q 407 568 408 576 q 394 564 395 567 q 389 559 393 562 q 366 553 377 557 q 343 551 354 548 q 340 537 342 544 q 331 533 339 530 q 315 529 319 522 q 308 530 312 530 q 300 529 304 529 q 293 523 297 526 q 282 518 289 519 q 271 508 271 507 q 267 506 270 509 q 256 499 260 503 q 245 491 251 495 q 247 480 245 486 q 247 468 248 475 q 245 456 247 461 q 240 445 243 452 q 243 433 243 439 q 245 422 243 426 q 249 408 247 411 q 250 401 251 406 q 248 394 250 397 q 245 387 245 391 q 250 366 251 370 q 247 358 248 362 q 248 344 248 351 q 245 330 248 336 q 247 316 247 323 q 244 304 247 309 q 248 281 248 293 q 244 273 247 277 q 241 262 241 269 q 242 240 243 244 q 241 229 241 236 q 244 212 241 222 q 243 201 244 206 q 244 193 243 197 q 245 182 244 187 q 250 170 247 176 q 250 159 251 164 q 250 149 250 155 q 254 134 252 142 q 262 121 255 125 q 276 127 270 122 q 293 129 282 132 q 310 137 300 132 q 330 141 320 142 q 352 135 338 132 q 374 136 366 138 q 384 142 381 137 q 395 144 387 146 q 401 135 397 140 q 401 125 404 130 q 410 125 403 125 q 423 126 416 126 q 436 125 430 126 q 442 122 442 125 q 449 127 446 125 q 457 130 452 129 q 468 134 461 129 q 481 143 475 138 q 496 151 488 148 q 507 152 503 155 q 514 160 511 155 q 522 163 517 165 q 532 162 529 159 q 543 165 536 165 q 553 173 549 168 q 562 182 556 178 q 571 201 563 195 q 589 209 587 203 q 589 218 591 214 q 595 236 595 225 q 612 237 600 243 q 619 245 617 240 q 624 256 621 250 q 633 273 631 263 q 646 285 636 282 q 652 277 654 285 q 654 263 651 269 q 650 255 652 258 q 647 248 648 252 q 645 230 646 239 q 642 214 644 221 q 629 191 628 197 q 629 179 631 186 q 623 152 623 161 q 616 132 617 144 q 616 109 614 119 q 605 96 613 100 q 591 85 597 92 q 592 71 591 79 q 587 60 593 64 q 576 47 575 53 q 579 38 578 42 q 570 17 571 22 q 571 5 570 12 q 566 -14 570 -9 q 554 -15 559 -14 q 543 -19 549 -16 q 528 -15 533 -19 q 513 -16 514 -18 q 509 -11 511 -14 q 501 -15 502 -9 q 494 -19 500 -20 q 481 -6 487 -7 q 469 -7 475 -5 q 456 -4 464 -4 q 441 -5 448 -4 l 414 1 q 406 -12 410 -3 q 395 -22 403 -20 q 390 -7 389 -12 q 392 5 391 -1 q 361 -8 380 -9 q 334 -8 342 -7 q 316 -9 327 -9 q 302 -4 305 -9 q 288 -5 289 -1 q 282 -11 288 -9 q 264 -8 269 -9 l 247 -9 q 243 -17 244 -14 q 237 -23 241 -20 q 220 -16 222 -14 q 212 -18 218 -19 q 208 -5 209 -5 q 205 -4 206 -5 q 195 -9 198 -5 q 183 -11 191 -12 l 163 -1 q 152 -2 157 -3 q 141 -4 146 -1 q 111 -7 125 -7 q 90 -12 104 -9 q 65 -9 76 -15 q 55 3 61 5 q 43 -1 49 0 l 24 -9 q 16 -9 19 -9 q 9 -7 14 -8 q 1 -10 5 -8 q -9 -9 -4 -12 q -1 1 -7 -3 q 9 9 4 5 q 22 20 14 16 l 41 34 q 49 46 47 38 q 53 62 50 54 q 58 76 61 73 q 56 85 54 79 q 79 94 61 94 q 79 106 81 100 q 79 121 76 111 q 85 124 81 123 q 92 127 90 125 q 92 139 94 134 q 88 151 91 144 q 90 161 91 156 q 88 172 90 167 q 91 179 90 176 q 92 187 92 182 q 91 214 87 201 q 85 220 90 218 q 79 225 80 221 q 79 243 83 241 q 73 250 76 245 q 77 258 73 256 q 84 264 81 260 q 80 286 84 278 q 90 306 88 302 q 90 316 92 309 q 92 330 91 324 q 92 342 92 335 q 92 358 88 357 q 95 366 96 359 q 83 377 92 369 q 80 391 83 387 q 77 406 77 396 q 68 412 69 415 q 61 407 66 410 q 43 404 45 407 q 39 396 42 400 q -4 391 11 378 q -13 383 -8 387 q -24 377 -18 380 q -39 370 -38 368 q -50 401 -47 388 q -62 416 -61 412 q -66 425 -64 419 q -69 439 -65 438 q -76 448 -73 439 q -77 463 -73 457 q -73 471 -76 468 q -69 480 -71 475 q -55 490 -57 484 q -47 502 -53 496 q -22 503 -30 495 q -4 517 -14 510 q 4 515 1 518 q 9 510 7 513 q 21 520 16 514 q 37 526 26 526 q 58 534 50 537 q 77 551 71 544 q 82 568 84 566 q 79 572 80 570 q 77 583 80 582 q 76 587 75 585 q 85 597 79 594 q 94 605 91 600 q 85 610 90 608 q 77 616 80 613 q 79 627 77 623 q 84 635 81 631 q 75 674 85 666 q 75 683 73 680 q 76 693 76 686 q 77 727 65 708 q 71 743 69 741 q 76 747 73 745 q 75 758 75 754 q 79 769 76 762 q 76 789 77 783 q 75 803 75 796 q 84 819 80 808 q 82 843 80 834 q 81 861 84 852 q 69 878 73 867 q 64 892 65 891 q 47 911 56 909 q 37 920 39 913 q 31 934 38 933 q 22 940 24 935 q 15 957 20 956 q 4 959 9 958 q -4 970 3 963 q -14 979 -11 977 q 8 983 8 986 q 20 985 8 981 q 31 984 22 983 q 41 983 39 985 q 52 981 50 979 q 56 982 53 982 q 72 986 73 981 q 79 989 75 989 q 90 990 84 989 q 110 994 100 994 q 112 986 113 991 q 111 977 111 981 q 123 985 119 979 q 134 991 126 990 q 149 993 141 990 q 163 989 157 996 q 198 989 182 991 q 211 994 205 991 q 224 993 217 997 q 232 985 229 985 q 236 982 235 985 q 240 962 235 970 q 236 945 240 951 q 233 929 232 940 q 243 910 240 916 q 238 895 240 902 q 232 882 236 887 q 232 852 237 860 q 238 823 240 840 q 241 791 236 806 q 241 775 240 777 q 244 770 243 773 q 246 749 244 753 q 247 739 248 746 q 245 713 245 720 q 243 690 240 703 q 244 663 245 678 l 245 644 q 247 629 247 632 q 250 624 247 627 q 260 631 256 625 q 271 640 264 637 q 292 644 286 643 q 302 647 297 646 q 320 658 313 658 q 329 665 323 663 q 340 665 335 667 q 351 667 347 671 q 358 661 354 663 q 368 635 363 643 q 369 623 372 628 q 380 612 381 614 q 380 605 380 609 q 391 593 388 593 q 395 593 393 594 z "},"":{"ha":491,"x_min":-57,"x_max":541,"o":"m 385 480 q 391 469 385 472 q 397 456 397 465 q 385 452 385 454 q 381 448 384 450 q 358 443 369 446 q 338 441 347 439 q 335 427 336 434 q 326 423 334 420 q 311 419 315 415 q 304 420 308 420 q 296 419 301 419 q 290 414 293 416 q 281 410 286 411 q 267 399 267 400 q 252 390 258 393 q 240 384 247 387 q 229 378 227 381 q 233 370 232 376 q 228 355 232 361 q 231 328 235 338 q 232 309 235 317 q 227 290 229 300 q 233 281 229 285 q 237 271 236 278 q 234 261 237 264 q 228 255 231 258 q 233 249 229 250 q 240 245 237 248 q 239 237 241 240 q 233 231 236 233 l 227 217 q 224 201 225 209 q 228 186 224 193 q 229 169 231 176 q 225 152 227 161 q 234 148 229 149 q 241 141 239 146 q 243 132 243 137 q 241 121 244 126 q 262 121 250 118 q 283 123 275 125 q 295 119 289 121 q 304 113 301 118 q 323 116 311 114 q 343 117 336 118 q 363 111 355 109 q 377 113 370 114 q 388 121 384 115 q 403 127 392 127 q 408 134 406 130 q 416 137 411 137 q 421 144 419 140 q 427 152 423 149 q 442 158 441 153 q 446 165 444 163 q 454 170 452 167 q 460 175 456 172 q 473 182 473 174 q 475 195 472 190 q 486 203 479 199 q 498 212 492 206 q 496 219 498 216 q 496 227 494 222 q 510 236 502 228 l 526 255 q 540 250 541 255 q 538 239 538 245 q 531 227 530 229 q 529 221 532 225 q 532 209 537 210 q 525 203 528 208 q 520 193 522 198 q 515 182 518 189 q 512 168 514 171 q 509 157 510 164 q 507 140 513 142 q 496 132 500 137 q 492 92 498 107 q 488 61 486 77 q 482 49 486 54 q 476 37 479 43 q 476 14 471 22 q 476 3 477 7 q 473 -5 475 0 q 454 -8 464 -8 q 437 -1 444 -8 q 422 -3 430 -4 q 408 0 415 -1 q 384 7 385 -7 q 356 -3 369 -5 q 339 -5 343 -1 q 315 -5 332 -4 q 296 0 298 -5 q 288 -5 290 -1 q 281 -11 286 -8 q 261 -9 274 -8 q 241 -7 248 -9 q 225 -11 235 -9 q 213 -1 216 -12 q 204 -7 209 -4 q 195 -12 199 -9 q 185 -14 189 -11 q 176 -15 182 -16 q 167 -10 171 -15 q 155 -7 163 -5 q 138 -8 146 -11 q 121 -5 129 -5 q 99 -10 102 -12 q 94 -5 96 -8 q 79 -5 83 -4 q 69 -8 76 -7 q 60 -6 64 -7 q 53 -5 57 -5 q 40 -6 43 -4 q 30 -7 37 -8 q 18 5 20 5 q 15 9 15 5 q 31 30 24 23 q 43 37 39 33 q 58 41 47 42 q 61 48 62 45 q 58 58 60 52 l 72 66 q 80 74 75 71 q 88 81 85 77 q 83 89 85 84 q 83 99 80 94 q 81 112 77 110 q 85 118 84 114 q 92 125 91 121 q 95 134 92 130 q 94 151 91 151 q 99 155 98 152 q 98 163 100 161 q 92 168 95 165 q 88 178 92 175 q 81 187 84 182 q 88 231 81 214 q 102 259 95 247 q 95 265 99 264 q 88 270 91 266 q 90 280 88 277 q 94 288 91 283 q 91 301 94 296 q 85 315 88 307 q 79 310 80 312 q 72 305 77 308 q 57 302 58 305 q 53 296 56 298 q 26 286 34 286 q 12 290 19 285 q 4 283 8 288 q -7 277 0 279 q -27 290 -23 285 q -33 300 -31 294 q -43 314 -42 311 q -46 324 -45 317 q -49 336 -45 335 q -56 343 -53 336 q -54 350 -54 347 q -57 358 -54 353 q -53 366 -56 363 q -49 374 -50 369 q -36 385 -38 380 q -30 395 -34 389 q -4 395 -11 388 q 12 408 3 403 q 36 411 31 406 q 50 416 41 416 q 71 425 62 427 q 85 440 81 438 q 92 448 90 442 q 90 473 87 456 q 76 480 81 476 q 72 495 71 484 q 66 502 69 499 q 61 510 62 505 q 73 526 64 521 q 90 540 83 530 q 85 560 85 551 q 84 579 85 570 q 87 595 90 593 q 88 601 85 597 q 92 614 95 612 q 85 621 88 616 q 90 630 88 627 q 94 637 91 633 q 87 663 87 654 q 84 678 87 671 l 76 696 q 71 704 75 703 q 65 708 68 705 q 62 716 66 715 q 57 724 58 718 q 53 735 56 734 q 49 739 50 736 q 39 755 37 753 q 45 760 42 757 l 26 772 q 7 781 5 773 q 7 795 8 788 q 22 799 12 800 q 38 802 31 798 q 52 799 46 802 q 68 796 58 796 q 85 802 81 803 q 94 802 90 802 q 109 806 100 806 q 121 800 117 807 q 139 806 137 807 q 144 803 141 804 q 156 806 151 806 q 167 804 161 807 q 188 809 179 806 q 210 812 197 812 q 226 805 221 804 q 233 803 231 806 q 231 794 233 796 q 232 787 229 792 l 224 769 q 229 752 227 753 q 231 749 231 751 q 224 735 232 741 q 228 728 227 731 q 231 720 229 726 q 227 707 228 713 q 229 694 227 701 q 224 680 225 681 q 229 656 231 662 q 223 639 222 646 q 224 625 224 632 q 231 590 231 613 q 236 583 233 586 q 241 576 239 581 q 238 564 241 568 q 233 553 235 560 q 223 543 222 545 q 224 534 224 540 q 224 511 229 517 q 221 496 218 506 l 233 509 q 238 516 236 511 q 244 521 240 521 q 258 515 255 510 q 270 524 262 521 q 289 528 283 526 q 300 530 294 529 q 315 541 309 541 q 335 547 326 552 q 345 550 342 553 q 351 544 347 547 q 360 519 357 526 q 361 509 363 513 q 372 496 373 499 q 372 491 372 494 q 382 480 380 479 q 385 480 385 481 z "},"":{"ha":670,"x_min":-16,"x_max":644,"o":"m 642 330 q 642 314 642 323 q 640 298 643 305 q 641 273 644 285 q 635 247 637 262 q 636 229 640 237 q 625 216 632 221 q 622 203 625 208 q 616 194 618 199 q 609 170 614 176 q 598 157 604 164 q 595 137 597 146 q 589 121 594 127 q 588 109 587 114 q 585 100 589 103 q 577 98 581 99 q 568 99 574 98 q 557 92 562 96 q 547 83 553 87 q 545 66 548 68 q 537 62 541 65 q 530 53 534 57 q 526 41 526 49 q 519 34 522 38 q 511 27 515 30 q 499 11 507 16 q 483 9 484 11 q 479 4 481 7 q 464 -1 472 1 q 446 -5 456 -4 q 430 -10 435 -5 q 414 -15 425 -15 q 405 -9 407 -7 q 399 -14 403 -11 q 383 -20 388 -14 q 369 -30 378 -27 q 360 -26 362 -30 q 355 -20 358 -23 q 341 -35 340 -28 q 335 -45 342 -42 q 320 -39 326 -43 q 308 -31 315 -34 q 294 -36 300 -33 q 277 -38 288 -39 q 254 -35 258 -31 q 245 -38 251 -39 q 236 -33 239 -38 q 227 -24 233 -28 q 205 -15 209 -26 q 196 -16 199 -15 q 190 -16 193 -16 q 161 -7 174 -9 q 138 -1 149 -5 q 128 16 132 5 q 122 38 125 27 q 111 47 115 50 q 100 43 107 43 q 88 56 94 45 q 69 81 75 68 q 52 106 64 95 q 31 135 43 122 q 4 161 18 148 q -1 186 -1 172 q -11 208 0 201 q -2 222 -16 216 q 18 239 12 228 q 41 247 33 248 q 58 251 50 245 q 67 267 62 266 q 76 271 72 267 q 89 294 85 289 q 95 302 92 298 q 114 321 103 313 q 133 345 126 336 q 146 361 140 353 q 168 370 159 369 q 180 363 175 363 q 191 357 184 363 q 168 331 186 335 q 166 320 168 326 q 167 309 164 315 q 171 300 170 305 q 175 292 172 296 q 172 283 174 288 q 164 277 171 279 q 162 266 165 270 q 160 255 159 262 q 166 243 163 248 q 172 231 170 237 q 173 204 178 212 q 165 191 168 197 q 172 182 168 186 q 179 175 176 179 q 194 161 183 170 q 225 152 217 163 q 236 122 233 141 q 243 123 239 121 q 254 125 247 125 q 279 122 267 126 q 304 123 301 126 q 315 118 308 119 q 326 126 323 121 q 336 134 330 132 q 346 133 343 134 q 355 130 349 132 q 362 126 362 129 q 369 123 362 123 q 380 127 376 125 q 392 132 385 130 q 403 138 399 134 q 415 142 407 142 q 420 168 419 160 q 427 179 422 176 q 441 197 438 190 q 446 212 444 205 q 463 235 461 224 q 465 258 465 247 q 474 285 471 271 q 480 313 477 298 q 481 335 479 327 q 476 358 473 343 q 465 373 465 366 q 464 384 465 380 q 451 397 457 391 q 442 414 445 404 q 422 430 429 418 q 409 427 416 426 q 397 433 401 427 q 380 439 387 435 q 359 439 373 442 q 352 449 353 445 q 350 460 351 453 q 336 461 345 463 q 317 463 327 460 q 307 467 312 465 q 296 469 302 469 q 279 478 289 476 q 263 487 269 480 q 236 502 247 499 q 214 507 225 505 q 201 515 206 513 q 180 511 183 510 q 171 514 176 513 q 164 519 167 517 q 157 522 161 521 q 140 539 151 532 q 123 557 130 547 q 116 564 119 560 q 110 570 113 567 q 84 581 95 574 q 77 610 80 601 q 76 632 75 620 q 66 639 72 636 q 58 648 61 642 q 54 667 60 661 q 45 681 47 673 q 49 690 47 685 q 52 699 50 694 q 46 722 47 709 q 49 747 45 734 q 49 764 49 761 q 52 769 49 766 q 51 779 52 774 q 50 788 50 784 q 52 802 50 795 q 56 815 53 808 q 73 844 69 831 q 84 863 76 856 q 101 893 91 880 q 122 918 111 906 q 138 930 134 924 q 149 940 141 937 q 166 947 164 941 q 175 958 168 954 q 193 959 186 955 q 210 964 199 963 q 235 985 224 972 q 246 983 241 985 q 255 979 251 981 q 268 988 266 987 q 271 990 270 989 q 288 998 281 997 q 300 1000 296 1000 q 315 1001 312 998 q 323 1004 317 1004 q 330 1002 328 1002 q 339 1004 332 1001 q 361 999 354 1001 q 377 998 368 997 q 389 989 381 994 q 399 995 395 991 q 410 1002 404 998 q 420 1009 415 1005 q 433 1006 426 1013 q 433 996 435 1001 q 431 985 430 991 q 450 973 442 977 q 465 963 458 970 q 479 954 477 958 q 484 947 481 949 q 496 949 491 948 q 507 952 500 951 q 521 929 524 951 q 533 922 528 925 q 544 913 538 918 q 575 898 568 910 q 572 883 572 884 q 590 876 587 878 q 595 871 593 873 q 593 859 595 861 q 590 853 591 857 l 604 842 q 612 835 610 838 q 620 831 614 831 q 626 817 627 819 q 628 812 625 815 q 594 788 608 803 q 587 775 587 779 q 583 769 586 772 q 576 758 576 761 q 578 753 576 755 q 570 742 574 746 q 563 732 566 738 q 556 716 560 722 q 544 709 549 713 q 532 704 538 705 q 532 692 532 697 q 529 681 533 688 q 513 658 518 674 q 500 646 500 650 q 496 636 499 642 q 476 627 483 627 q 465 633 469 628 q 465 655 465 648 q 477 674 475 666 q 476 692 472 685 q 479 705 476 704 q 481 707 481 705 q 473 723 475 722 q 469 726 472 724 q 463 738 465 736 q 461 743 461 739 q 456 760 458 757 q 454 768 454 764 q 457 782 457 779 q 454 788 457 785 q 447 789 450 791 q 439 791 444 788 q 435 800 434 796 q 433 808 435 804 q 439 822 439 815 q 431 824 434 825 q 425 826 427 823 q 411 846 412 840 q 404 844 407 846 q 396 844 401 842 q 378 852 382 853 q 366 852 373 852 q 339 860 349 856 q 331 876 330 864 q 326 870 328 875 q 320 863 323 865 q 302 861 311 861 q 282 860 293 861 q 273 854 277 857 q 263 848 269 850 q 254 836 258 842 q 245 826 251 830 q 229 821 235 823 q 230 810 229 815 q 227 803 231 806 q 211 783 209 796 q 210 758 213 769 q 206 748 205 750 q 206 741 208 746 q 198 724 198 731 q 208 709 199 715 q 221 703 213 708 q 221 688 220 696 q 224 673 222 681 q 236 652 233 667 q 250 644 247 651 q 258 631 252 636 q 283 625 277 629 q 298 617 290 621 q 309 619 305 617 q 317 621 312 621 q 332 611 324 614 q 347 601 340 608 q 371 595 359 598 q 392 587 382 593 q 399 588 396 587 q 407 587 403 589 q 418 581 414 586 q 426 574 422 576 q 446 569 441 575 q 457 557 450 563 q 475 556 463 556 q 495 547 490 547 q 505 547 500 548 q 511 542 509 544 q 517 537 514 540 q 533 528 532 532 q 537 522 534 525 q 556 514 548 522 q 561 503 557 507 q 567 494 564 499 q 577 490 574 494 q 583 483 581 486 q 586 473 585 477 q 587 463 587 469 q 595 451 590 456 q 602 438 600 446 q 613 427 608 431 q 620 414 618 423 q 631 390 627 395 q 633 372 636 385 q 634 351 635 358 q 631 338 633 345 l 642 330 m 334 1095 q 321 1098 330 1099 q 312 1104 313 1097 q 298 1112 305 1105 q 275 1138 286 1134 q 269 1154 270 1153 q 266 1156 267 1154 q 252 1162 259 1158 q 240 1168 244 1165 q 229 1179 231 1179 q 217 1191 221 1187 q 205 1198 213 1195 q 186 1211 189 1206 q 176 1219 183 1217 q 161 1227 165 1221 q 159 1236 157 1233 q 175 1242 170 1241 q 186 1253 182 1252 q 195 1272 189 1267 q 206 1282 201 1276 q 218 1303 214 1299 q 222 1301 221 1306 q 240 1278 237 1293 q 256 1265 254 1270 q 277 1261 271 1259 q 289 1242 286 1257 q 305 1235 304 1240 q 307 1225 307 1230 q 316 1217 311 1221 q 328 1211 321 1214 q 340 1202 338 1203 q 345 1203 342 1202 q 361 1215 357 1215 q 371 1222 368 1222 q 376 1225 374 1222 q 380 1235 377 1232 q 385 1244 382 1238 q 404 1257 401 1253 q 414 1263 407 1261 q 429 1277 427 1276 q 434 1280 431 1278 q 449 1294 438 1295 q 458 1305 456 1309 q 464 1298 461 1301 q 469 1291 465 1291 q 472 1282 473 1291 q 483 1271 477 1275 q 491 1259 488 1267 q 496 1251 494 1251 q 500 1244 498 1251 l 513 1232 q 502 1219 503 1221 q 488 1215 491 1219 q 483 1204 486 1210 q 461 1195 463 1199 q 456 1184 460 1191 q 433 1169 441 1177 q 412 1158 425 1161 q 410 1143 410 1150 q 395 1130 396 1139 q 378 1115 381 1118 q 368 1111 374 1112 q 359 1104 365 1105 q 351 1096 354 1103 l 349 1078 q 334 1095 331 1082 z "},"":{"ha":528,"x_min":0,"x_max":521,"o":"m 515 302 q 521 285 518 292 q 517 248 521 266 q 518 214 513 229 q 505 195 513 203 q 490 179 498 187 q 490 168 490 174 q 490 159 491 163 q 485 149 488 152 q 479 141 481 146 l 465 125 q 455 106 458 109 q 445 103 452 103 q 438 73 438 92 q 422 61 426 64 q 411 56 418 58 q 404 49 407 53 q 395 43 401 45 q 387 33 391 38 q 378 20 382 27 q 365 20 366 19 q 359 23 363 22 q 339 8 346 15 q 332 6 336 7 q 324 3 328 5 q 316 3 319 4 q 309 3 313 3 q 283 3 290 1 q 270 8 277 5 q 262 2 264 5 q 251 -4 259 -1 q 241 -1 245 -3 q 232 1 237 0 q 208 9 216 11 q 191 9 201 7 q 184 20 189 16 q 176 27 180 23 q 169 26 172 27 q 161 26 165 26 q 143 31 155 33 q 126 37 132 30 q 111 47 117 49 q 96 47 104 46 q 81 63 85 53 q 66 79 77 73 q 64 94 62 92 q 65 100 65 96 q 58 101 62 102 q 49 102 53 100 q 37 112 43 107 q 27 123 31 117 q 30 132 27 129 q 34 140 33 136 q 22 149 22 146 q 23 155 23 152 q 12 184 15 174 q 3 189 3 186 q 0 194 3 191 q 9 197 5 197 q 19 199 14 197 q 19 217 18 214 q 31 227 23 225 q 45 235 39 228 q 54 253 46 254 q 69 258 62 252 q 77 273 73 273 q 85 277 81 274 q 108 304 98 296 q 127 327 118 313 q 146 334 134 330 q 165 338 159 339 q 169 331 171 335 q 168 323 167 327 q 159 305 160 308 q 155 300 157 302 q 155 291 153 296 q 153 281 156 286 q 164 270 164 277 q 159 262 161 264 q 155 254 157 260 q 156 232 153 245 q 156 216 152 222 q 163 199 160 209 q 161 191 163 194 q 160 183 160 187 q 168 172 163 176 q 175 161 172 168 q 172 154 174 157 q 170 144 170 151 q 183 146 176 141 q 197 148 190 152 q 205 142 199 136 q 217 142 210 149 q 217 134 220 137 q 214 127 214 132 q 219 121 216 122 q 227 117 222 119 q 236 120 233 117 q 245 123 239 123 q 257 119 252 122 q 271 118 262 117 q 286 125 283 123 q 290 127 288 126 q 302 137 297 133 q 315 146 308 141 q 326 146 324 148 q 330 144 327 144 q 334 151 332 146 q 339 157 336 155 q 355 161 347 159 q 358 175 358 167 q 361 190 358 183 q 374 213 373 209 q 375 231 373 224 q 374 250 377 239 q 386 270 387 262 q 385 285 385 278 q 378 290 384 289 q 370 293 373 290 q 370 304 368 300 q 372 315 372 308 q 365 324 369 320 q 357 332 361 328 q 346 334 350 332 q 338 338 342 336 q 329 351 335 346 q 316 362 323 355 q 304 363 309 361 q 292 363 298 365 q 279 373 286 369 q 267 384 273 377 q 256 385 260 387 q 247 382 252 384 q 238 382 243 381 q 229 381 233 382 q 197 401 212 397 q 172 412 183 406 q 148 435 163 435 q 135 444 140 438 q 119 450 130 449 q 98 468 110 460 q 77 494 85 483 q 65 513 71 507 q 56 526 60 519 q 46 544 47 534 q 45 580 42 567 q 54 604 49 593 q 55 629 56 617 q 60 650 54 642 q 73 697 66 681 q 98 719 79 713 q 111 741 104 730 q 127 758 117 751 q 152 772 145 765 q 165 787 159 779 q 183 795 176 789 q 198 807 190 802 q 210 804 205 806 q 220 802 214 803 q 233 810 227 806 q 250 818 239 815 q 262 810 258 808 q 269 808 266 811 q 281 814 275 811 q 296 817 288 817 q 305 809 302 814 q 312 800 308 804 q 328 807 323 802 q 345 815 334 812 q 353 809 350 812 q 363 804 357 806 q 372 806 369 804 q 381 806 376 808 q 399 780 396 796 l 416 780 q 422 770 419 776 q 429 761 425 765 q 441 758 435 760 q 449 750 446 757 q 453 736 449 736 q 460 734 457 736 q 473 725 469 726 q 480 724 477 724 q 484 710 483 718 q 486 696 484 703 q 494 682 494 689 q 477 669 487 680 q 471 651 468 658 l 463 629 q 450 611 456 616 q 439 604 445 606 q 423 581 438 587 l 414 564 q 400 550 407 557 q 392 532 393 543 q 384 527 388 529 q 373 528 380 525 q 370 536 370 532 q 373 548 369 541 q 378 568 373 563 q 382 578 382 572 q 368 587 369 586 q 365 590 366 587 q 367 600 365 597 q 366 609 369 602 q 368 628 365 620 q 359 636 361 631 q 357 647 358 642 q 353 661 350 658 q 355 671 357 665 q 328 682 335 677 q 312 693 321 688 q 301 692 305 693 q 290 690 297 690 q 283 705 283 693 q 267 692 270 694 q 259 688 264 689 q 234 690 240 694 q 221 684 228 686 q 209 663 212 674 q 210 644 209 651 q 204 637 208 640 q 193 635 201 633 q 191 615 190 627 q 194 597 191 604 q 193 585 191 587 q 195 581 194 583 q 197 562 191 571 q 198 543 202 552 q 217 534 208 537 q 228 519 227 532 q 243 515 235 515 q 259 511 252 515 q 270 500 262 503 q 281 488 278 496 q 309 486 300 488 q 330 486 317 484 q 349 477 340 483 q 368 467 358 472 q 376 469 373 468 q 382 471 380 471 q 395 465 391 471 q 403 454 399 458 q 414 450 411 454 q 425 445 418 446 q 446 425 434 429 q 467 415 457 422 q 477 397 473 407 q 484 373 481 388 q 496 360 490 366 q 502 345 502 354 q 505 321 506 327 q 500 309 503 316 q 508 306 503 307 q 515 302 513 305 m 263 821 q 251 824 259 825 q 241 830 243 823 q 228 838 235 831 q 205 864 216 860 q 198 880 199 879 q 195 882 197 880 q 181 888 189 884 q 170 894 174 891 q 159 905 160 905 q 146 917 151 913 q 134 924 142 921 q 115 937 118 932 q 106 945 113 943 q 91 953 95 947 q 88 962 87 959 q 104 968 99 967 q 115 979 111 978 q 124 998 118 993 q 136 1008 130 1002 q 147 1029 144 1025 q 152 1027 151 1032 q 170 1004 167 1019 q 186 991 183 996 q 206 987 201 985 q 218 968 216 983 q 235 961 233 966 q 236 951 236 956 q 245 943 240 947 q 258 937 251 940 q 269 928 267 929 q 274 929 271 928 q 290 941 286 941 q 300 948 297 948 q 305 951 304 948 q 309 961 307 958 q 315 970 312 964 q 334 983 331 979 q 343 989 336 987 q 359 1003 357 1002 q 363 1006 361 1004 q 378 1020 368 1021 q 388 1031 385 1035 q 393 1024 391 1027 q 399 1017 395 1017 q 401 1008 403 1017 q 412 997 407 1001 q 420 985 418 993 q 425 977 423 977 q 430 970 427 977 l 442 958 q 431 945 433 947 q 418 941 420 945 q 412 930 415 936 q 391 921 392 925 q 385 910 389 917 q 362 895 370 903 q 342 884 354 887 q 339 869 339 876 q 324 856 326 865 q 307 841 311 844 q 297 837 304 838 q 289 830 294 831 q 281 822 283 829 l 278 804 q 263 821 260 808 z "},"":{"ha":556,"x_min":-113,"x_max":700,"o":"m 699 1002 q 696 989 700 991 q 689 985 692 987 q 674 975 678 979 q 658 968 665 972 q 643 962 651 964 q 645 946 642 948 q 650 939 648 944 q 642 930 648 932 q 629 926 636 928 q 616 923 623 924 q 602 920 609 922 q 586 911 589 911 q 578 899 582 906 q 570 887 575 892 q 568 873 571 880 q 560 861 564 867 q 551 838 559 844 q 534 829 543 833 q 517 787 525 802 q 509 757 510 773 q 500 737 505 746 q 494 715 496 728 q 469 693 480 704 q 456 663 458 682 q 456 650 456 656 q 454 636 456 643 q 442 605 446 621 q 440 581 441 593 q 437 559 439 570 q 418 530 425 547 q 404 499 411 514 q 396 484 396 488 q 396 475 396 479 q 391 463 393 469 q 384 453 388 457 q 385 424 391 430 q 380 407 380 418 q 371 386 373 396 q 363 363 369 376 q 366 342 366 353 q 369 326 366 332 q 362 309 366 316 q 363 290 363 298 q 358 275 362 282 q 361 244 361 258 q 355 216 361 231 q 350 209 353 213 q 345 199 347 205 q 355 184 349 191 q 358 174 357 178 q 359 165 359 170 q 353 151 358 157 q 346 137 349 145 q 352 130 349 132 q 358 123 355 127 q 361 112 361 118 q 362 99 361 106 q 365 91 363 95 q 366 81 366 87 q 366 65 368 73 q 362 50 365 57 q 366 34 365 43 q 370 16 368 24 l 377 -14 q 366 -14 370 -16 q 357 -9 361 -12 q 347 -16 350 -12 q 334 -19 343 -19 q 328 -13 330 -16 q 324 -5 327 -9 q 311 -15 316 -9 q 301 -24 307 -20 q 289 -26 294 -26 q 274 -27 283 -27 q 266 -20 269 -24 q 258 -12 263 -15 q 233 -8 243 -14 q 216 -14 222 -9 q 203 -20 210 -18 q 194 -18 197 -20 q 186 -14 191 -15 q 161 -15 165 -8 q 149 -26 157 -22 q 127 -18 133 -19 q 114 -9 117 -8 q 109 -12 111 -11 q 88 -7 96 -8 q 80 0 80 -7 q 92 3 84 3 q 104 5 100 3 q 121 19 119 16 q 129 20 122 22 q 161 21 155 11 q 182 33 167 31 q 192 39 187 35 q 201 46 197 42 q 201 60 198 53 q 201 75 203 68 q 192 84 189 81 q 197 91 195 87 q 199 113 194 106 q 206 130 203 121 q 195 147 194 141 q 195 159 195 153 q 182 157 187 159 q 175 159 178 156 q 191 167 184 167 q 208 178 205 175 q 213 187 212 180 q 203 193 210 191 q 194 198 197 194 q 195 218 194 210 q 197 237 197 227 q 194 258 191 251 q 195 301 190 288 q 208 330 201 315 q 199 345 205 343 q 193 353 193 346 q 200 363 195 359 q 208 372 205 366 q 204 380 208 378 q 203 387 201 381 q 197 408 199 406 q 193 414 195 411 q 189 428 191 422 q 184 444 186 434 q 159 460 164 446 q 157 473 159 467 q 153 487 156 480 q 141 502 151 495 q 141 513 141 507 q 144 524 141 518 l 136 545 q 132 559 132 552 q 132 576 133 567 q 118 595 123 585 q 107 616 113 605 q 102 648 107 637 q 91 672 91 661 q 83 689 91 684 q 79 705 81 703 q 75 712 77 708 q 74 718 73 716 q 73 727 75 720 q 67 735 71 731 q 62 746 64 739 q 66 754 62 751 q 69 764 69 757 q 58 779 66 772 q 57 796 49 785 q 53 804 56 802 q 47 810 50 807 q 36 823 38 825 q 30 822 34 821 q 20 840 23 829 q 11 857 18 850 q 5 880 9 875 q 1 898 0 886 q -5 904 0 903 q -14 909 -11 905 q -7 922 -12 914 q -12 930 -8 928 q -16 936 -15 932 q -33 943 -27 939 q -49 951 -38 948 q -62 948 -56 949 q -76 947 -68 947 q -84 965 -79 956 q -103 971 -90 974 q -109 976 -106 974 q -111 985 -113 978 q -102 986 -107 989 q -91 982 -96 983 q -79 987 -84 985 q -66 990 -75 990 q -45 977 -52 985 q -29 987 -38 981 q -14 985 -20 994 q 5 979 0 982 q 21 977 15 972 q 35 983 27 982 q 54 979 50 979 q 60 974 57 978 q 77 975 76 972 q 81 978 79 977 q 102 979 99 978 q 107 983 104 981 q 123 983 119 981 q 130 985 126 985 q 144 974 141 985 q 149 962 141 959 q 161 960 157 964 q 159 949 163 954 q 153 941 156 945 q 164 914 163 922 q 168 895 165 906 q 173 888 171 891 q 178 883 175 886 q 178 873 178 876 q 178 864 179 869 q 184 854 180 859 q 190 845 187 850 q 205 838 197 840 q 216 829 213 836 q 212 806 214 817 q 212 780 210 795 q 218 764 214 772 q 221 746 222 757 q 227 731 218 731 q 241 728 236 731 q 239 714 243 718 q 235 705 236 711 q 239 681 241 686 q 235 670 236 675 q 252 668 241 667 q 266 659 263 669 q 264 650 267 654 q 264 640 262 646 q 289 618 281 633 q 291 639 292 636 q 292 646 290 642 q 304 660 301 654 q 311 674 308 666 q 315 705 311 690 q 322 715 317 712 q 330 724 327 718 q 330 732 330 728 q 331 742 331 736 q 342 761 334 754 q 353 783 351 768 q 362 791 359 785 q 368 804 365 798 q 360 830 361 825 q 359 846 359 836 q 368 859 365 852 q 377 871 370 865 q 381 888 377 882 q 388 903 385 895 q 387 911 389 909 q 384 918 385 914 q 387 930 387 924 q 391 941 388 937 q 398 941 393 943 q 407 940 403 939 q 406 960 410 951 q 412 985 412 981 q 415 993 412 989 q 421 988 422 994 q 422 978 420 982 q 444 985 433 978 q 465 986 454 993 q 483 983 479 979 q 503 987 495 983 q 521 991 511 990 q 543 988 537 985 q 557 994 548 991 q 564 1000 562 997 q 574 1002 567 1002 q 584 990 579 990 q 593 987 589 990 q 606 985 601 983 q 618 989 612 986 q 656 991 646 991 q 677 998 667 994 q 699 1002 686 1001 m 225 1062 q 213 1072 213 1066 q 216 1080 213 1077 q 231 1090 228 1089 q 236 1092 233 1092 q 247 1099 245 1099 q 250 1103 248 1100 q 259 1126 252 1120 q 274 1128 274 1126 q 277 1133 274 1130 q 284 1138 282 1134 q 290 1145 286 1142 q 308 1157 304 1157 q 316 1168 311 1164 q 327 1176 321 1172 q 339 1185 338 1179 q 342 1198 340 1191 q 347 1204 345 1200 q 353 1210 350 1207 q 363 1213 361 1208 q 372 1215 365 1217 q 381 1213 376 1213 q 393 1212 387 1213 q 406 1208 400 1211 q 415 1204 412 1206 q 441 1206 433 1210 q 458 1199 449 1202 q 473 1209 467 1204 q 487 1214 479 1214 q 494 1199 494 1200 q 491 1196 494 1198 q 469 1177 488 1184 q 466 1171 467 1175 q 461 1164 465 1166 q 445 1154 448 1152 q 436 1144 441 1145 q 429 1141 431 1143 q 412 1130 425 1130 q 388 1115 396 1119 q 376 1101 380 1111 q 359 1079 368 1082 q 345 1067 350 1076 q 325 1053 330 1058 q 311 1047 320 1047 q 305 1040 308 1044 q 300 1034 302 1036 q 287 1023 289 1031 q 278 1009 285 1015 q 258 1020 263 1013 q 250 1036 252 1036 q 245 1038 248 1035 q 232 1048 236 1050 q 225 1046 228 1047 q 222 1053 220 1050 q 225 1062 224 1057 z "},"":{"ha":572,"x_min":-94,"x_max":666,"o":"m 655 807 q 662 793 666 804 q 647 789 655 789 q 618 775 624 780 q 601 769 612 770 q 587 766 587 768 q 586 761 587 764 q 566 751 574 758 q 559 731 557 745 q 545 716 553 722 q 537 700 540 705 q 522 682 526 693 q 509 663 518 671 q 497 633 502 648 q 483 604 492 617 q 480 596 481 600 q 479 589 479 593 q 469 576 475 585 q 468 562 468 570 q 465 544 468 553 q 454 536 453 540 q 454 530 454 533 q 452 517 454 522 q 448 505 449 511 q 429 483 438 491 q 423 467 430 472 q 412 456 416 463 q 406 441 410 446 q 400 427 403 437 q 393 412 396 411 q 388 410 389 412 q 387 392 391 392 q 379 374 382 381 q 369 358 376 366 q 382 348 380 347 q 385 347 384 349 q 378 328 388 334 q 366 311 369 321 q 366 287 369 292 q 359 275 362 282 q 364 259 362 267 q 363 241 366 251 q 368 209 369 225 q 368 186 369 193 q 361 178 366 180 q 362 165 363 172 q 357 155 361 157 q 362 150 359 152 q 365 141 365 148 q 363 122 362 127 q 363 110 365 117 q 363 92 363 102 q 362 76 363 83 q 361 50 362 58 q 362 33 359 41 q 358 22 362 26 q 357 12 354 19 q 363 0 369 1 q 357 -8 357 -1 q 346 -1 342 -4 q 347 5 350 3 q 338 5 342 8 q 328 1 334 1 l 307 7 q 295 5 302 5 q 283 3 288 4 q 266 -2 264 -3 q 255 -4 267 -1 q 242 -4 243 -7 q 240 1 241 -1 q 222 -1 229 3 q 206 -1 214 -4 q 186 5 197 12 q 164 0 176 -1 q 142 11 152 14 q 125 5 132 8 q 119 20 115 11 q 140 32 130 27 q 157 30 149 37 q 170 37 164 33 q 182 43 175 41 q 194 58 187 52 q 212 68 201 65 q 220 87 214 79 q 229 107 227 96 q 227 129 228 118 q 220 146 227 140 q 233 206 222 180 q 227 233 233 222 q 227 258 220 243 q 226 267 225 264 q 228 274 227 270 q 233 279 231 277 q 237 286 236 282 q 222 295 224 294 q 222 298 221 296 q 227 306 222 305 q 232 311 231 307 q 228 321 232 319 q 221 327 224 323 q 216 335 218 331 q 212 343 214 339 q 208 364 213 355 q 194 380 202 373 q 192 387 193 384 q 191 395 191 391 q 180 414 178 408 q 184 425 182 419 q 170 440 182 433 q 157 457 159 448 q 145 474 149 471 q 140 483 141 477 q 140 493 138 488 q 142 502 142 498 q 138 509 141 506 q 134 517 134 513 q 138 532 137 524 q 138 547 140 540 q 131 555 136 552 q 121 562 126 559 q 113 570 117 566 q 111 585 110 575 q 106 591 109 589 q 102 597 104 593 q 100 610 103 606 q 95 620 98 614 q 81 638 81 629 q 79 656 80 647 q 75 665 77 661 q 72 675 72 669 q 37 705 42 689 q 22 722 18 705 q 6 735 7 731 q 3 745 5 739 q -12 751 -4 750 l -26 760 q -44 765 -38 760 q -61 770 -50 770 q -75 779 -69 776 q -90 783 -85 779 q -83 798 -94 792 q -64 795 -73 798 q -47 791 -56 793 q -11 803 -22 802 q 24 799 12 799 q 50 799 39 803 q 73 793 61 795 q 93 796 83 796 q 110 791 103 796 q 135 798 123 793 q 165 799 146 802 q 182 793 180 793 q 184 791 184 793 q 178 778 176 780 q 179 773 179 776 q 180 761 178 765 q 183 750 183 757 q 197 734 195 735 q 202 717 198 718 q 210 716 206 716 q 213 698 216 700 q 209 692 210 696 q 212 683 210 686 q 213 673 213 680 q 222 663 220 666 q 228 656 225 659 q 237 646 240 648 q 233 642 235 644 q 240 632 236 636 q 245 621 244 628 q 255 606 250 617 q 259 585 262 587 q 256 579 256 582 q 271 567 271 570 q 271 562 270 564 q 275 548 275 549 q 274 544 274 547 q 281 532 277 537 q 292 524 286 528 q 298 528 296 525 q 305 530 301 530 q 314 546 311 537 q 321 563 317 555 q 336 583 332 574 q 340 605 340 591 q 354 621 353 618 q 357 635 354 631 q 359 648 359 640 q 368 663 368 658 q 370 670 368 667 q 370 682 369 675 q 373 693 372 688 q 380 700 376 697 q 388 709 385 703 q 388 732 385 722 q 399 749 391 743 q 400 760 396 755 q 401 770 404 764 q 410 783 406 777 q 414 800 415 789 q 427 803 420 802 q 442 807 434 804 q 465 806 454 803 q 484 814 475 810 q 492 808 488 811 q 500 804 495 806 q 523 809 511 806 q 547 808 534 812 q 570 814 564 811 l 585 814 q 605 804 598 810 q 614 804 612 804 q 620 802 617 803 q 637 806 629 804 q 655 807 646 807 m 153 910 q 141 920 141 914 q 144 928 141 925 q 159 939 156 937 q 164 940 161 940 q 175 947 174 947 q 178 951 176 948 q 187 974 180 968 q 202 976 202 974 q 205 981 202 978 q 212 986 210 982 q 218 993 214 990 q 236 1005 232 1005 q 244 1016 239 1012 q 255 1024 250 1020 q 267 1033 266 1027 q 270 1046 269 1039 q 275 1052 273 1048 q 281 1058 278 1055 q 291 1061 289 1057 q 300 1063 293 1065 q 309 1061 304 1061 q 321 1060 315 1061 q 334 1057 328 1059 q 343 1053 340 1054 q 369 1054 361 1058 q 387 1047 377 1050 q 401 1057 395 1053 q 415 1062 407 1062 q 422 1047 422 1048 q 419 1044 422 1046 q 397 1025 416 1032 q 394 1019 395 1023 q 389 1012 393 1015 q 373 1002 376 1000 q 364 992 369 993 q 357 989 359 991 q 340 978 353 978 q 316 963 324 967 q 304 949 308 959 q 287 927 296 930 q 273 916 278 924 q 253 901 258 906 q 239 895 248 895 q 233 888 236 892 q 228 882 231 884 q 215 871 217 879 q 206 857 213 863 q 186 868 191 861 q 178 884 180 884 q 174 886 176 883 q 160 897 164 898 q 153 894 156 895 q 150 901 148 898 q 153 910 152 905 z "},"":{"ha":685,"x_min":-20,"x_max":692,"o":"m 692 541 l 688 519 q 686 502 685 505 q 688 495 686 499 q 685 478 688 486 q 680 465 682 471 q 682 457 680 460 q 685 450 684 454 q 683 433 681 434 q 682 429 685 431 q 663 416 666 419 q 654 411 659 414 q 650 390 654 399 q 644 370 647 381 q 639 359 640 366 q 636 343 637 351 q 627 335 632 338 q 614 328 621 332 q 616 317 618 323 q 610 305 613 311 q 596 304 604 304 q 585 300 589 304 q 583 288 583 293 q 582 275 582 282 q 561 267 571 271 q 538 256 551 262 q 533 241 540 245 q 519 247 526 236 q 510 240 514 244 q 499 240 506 236 q 489 224 492 229 q 480 217 486 220 q 462 222 469 218 q 444 225 454 225 q 432 216 437 222 q 420 209 427 209 q 402 213 406 214 q 393 212 399 212 q 376 219 380 221 q 368 217 373 217 q 350 221 351 224 q 345 217 349 218 q 327 216 330 217 q 321 214 324 216 q 309 214 313 216 q 300 210 304 212 q 291 216 293 212 q 285 224 289 221 q 270 224 277 222 q 259 195 256 217 q 260 182 266 182 q 252 179 254 183 q 260 165 254 170 q 269 155 266 161 q 262 139 266 145 q 255 125 258 133 q 264 117 258 119 q 273 111 270 115 q 269 102 273 104 q 264 94 266 99 q 269 78 267 85 q 266 64 271 71 q 258 58 255 61 q 264 49 262 54 q 267 34 264 41 q 269 19 269 27 q 273 10 270 15 q 274 1 275 5 q 260 -8 263 -4 q 254 -14 258 -12 q 245 -8 247 -12 q 240 -1 244 -4 q 224 2 231 0 q 206 1 217 4 q 195 14 199 4 q 189 8 193 11 q 178 9 184 5 q 170 4 174 7 q 160 1 167 1 q 142 1 148 4 q 133 0 137 -1 q 125 6 127 3 q 121 12 123 9 q 102 5 104 1 q 96 12 99 9 q 87 11 91 12 q 76 9 83 9 q 35 -9 56 -9 q 18 -7 20 -4 q 9 -8 16 -9 q -12 3 -4 4 q -20 8 -19 1 q -6 20 -7 15 q -3 30 -5 24 q 7 33 1 33 q 18 35 12 33 q 38 46 34 47 q 51 55 50 56 q 54 56 52 54 q 62 66 58 61 q 69 76 65 71 q 73 97 68 91 q 85 110 79 103 q 93 142 88 134 q 100 161 98 151 q 95 181 91 179 q 102 189 99 183 q 96 212 100 208 q 91 221 92 216 q 92 239 92 227 q 89 253 94 254 q 81 255 84 252 q 89 272 84 266 q 98 285 94 278 q 95 305 100 298 q 100 315 98 311 q 103 326 102 319 q 98 334 100 331 q 94 342 96 338 q 100 373 92 359 q 99 382 100 380 q 95 388 98 385 q 100 409 96 399 q 100 431 103 419 q 106 439 103 437 q 113 446 110 441 q 105 462 111 457 q 94 473 99 467 q 100 503 96 491 q 104 530 103 514 q 99 538 102 536 q 95 547 96 541 q 97 569 96 559 q 98 590 98 579 q 96 602 95 595 q 96 620 96 609 q 95 634 96 627 q 94 647 94 642 q 100 659 95 654 q 103 673 104 665 q 96 674 100 677 q 88 673 92 671 q 89 688 85 684 q 94 699 92 692 q 102 713 96 703 q 96 728 99 720 q 96 745 94 735 q 102 752 99 749 q 109 761 106 755 q 100 767 107 768 q 90 773 92 766 q 99 790 98 787 q 102 799 100 793 q 98 806 100 803 q 94 812 96 810 q 93 849 90 840 q 96 869 96 859 q 93 876 95 872 q 91 884 91 879 q 96 892 94 888 q 96 902 98 895 q 87 909 95 909 q 77 916 80 910 q 74 939 76 932 q 65 948 72 945 q 53 948 60 949 q 45 954 46 947 q 41 970 47 966 q 12 973 23 972 q -5 974 1 974 q 12 986 8 985 q 24 991 18 989 q 34 997 31 993 q 59 996 50 997 q 75 991 68 994 q 88 998 81 994 q 104 1002 95 1001 q 117 1003 119 1000 q 118 1009 115 1006 q 127 1006 125 1012 q 134 1000 129 1001 q 148 1000 141 1004 q 163 998 155 997 q 174 1005 170 1001 q 189 1010 179 1009 q 192 1004 191 1008 q 195 997 193 1000 q 216 1003 206 1000 q 236 1009 225 1006 q 252 1005 244 1006 q 264 997 259 1004 q 274 1000 269 998 q 282 996 279 1002 q 270 975 271 981 q 266 966 269 970 q 272 946 274 949 q 267 940 270 943 q 267 927 270 933 q 258 918 263 921 q 264 902 263 905 q 266 894 266 899 q 273 887 269 890 q 278 879 277 884 q 273 868 277 872 q 266 860 270 864 q 258 845 264 853 q 267 842 262 842 q 274 836 271 841 q 271 826 274 829 q 267 818 269 823 q 279 803 275 806 q 286 796 283 800 q 307 799 298 792 q 330 802 315 806 q 353 802 343 795 q 384 805 374 806 q 397 798 393 804 q 423 803 418 799 q 441 807 434 804 q 456 812 448 810 q 470 805 465 810 q 481 795 475 800 q 498 792 491 793 q 507 785 505 791 q 530 781 525 783 q 540 776 534 779 q 553 768 547 769 q 570 757 568 764 q 574 743 571 750 q 582 739 578 741 q 589 734 586 736 q 591 727 590 730 q 595 720 593 724 q 612 716 608 723 q 610 706 608 709 q 613 696 613 703 q 626 695 620 696 q 636 690 632 694 q 646 668 642 674 q 655 655 650 662 q 670 648 666 655 q 663 634 670 637 q 659 620 656 631 q 674 608 671 612 q 680 601 677 605 q 682 581 677 591 q 683 564 680 564 q 688 560 686 563 q 689 546 688 548 q 692 541 690 544 m 511 491 q 516 510 513 502 q 514 525 519 518 q 508 541 505 537 q 514 552 511 545 q 513 562 511 557 q 513 571 514 566 q 506 576 510 574 q 499 582 502 578 q 495 593 498 593 q 488 595 492 593 q 484 603 486 600 q 480 613 483 606 q 479 628 480 624 q 464 642 467 631 q 454 643 457 643 q 445 643 450 643 q 444 655 441 647 q 439 667 446 663 q 429 665 433 667 q 419 665 426 663 q 411 671 414 667 q 406 678 408 675 q 387 673 388 674 q 371 663 373 667 q 362 661 369 659 q 359 670 358 665 q 357 678 359 675 q 342 673 347 678 q 324 670 336 667 q 290 680 302 670 q 283 679 286 680 q 275 678 279 678 q 271 667 274 671 q 267 655 269 662 q 267 637 273 644 q 256 621 260 629 q 266 605 264 610 q 266 595 267 600 q 270 586 269 590 q 273 578 271 582 q 270 566 271 570 q 266 559 269 563 q 267 536 267 540 q 264 526 266 533 q 271 513 269 519 q 272 501 273 506 q 273 490 271 496 q 265 480 270 483 q 256 472 260 477 q 263 458 262 464 q 258 438 258 452 q 262 414 266 426 q 268 391 270 407 q 266 359 266 374 q 280 351 279 353 q 285 349 281 349 q 296 353 292 350 q 309 355 301 355 q 322 349 317 353 q 334 342 327 345 q 340 352 338 345 q 350 359 343 359 q 363 357 361 354 q 370 359 366 359 q 383 357 381 355 q 388 355 385 358 q 402 345 400 343 q 407 347 404 347 q 419 349 416 345 q 423 361 422 354 q 431 370 427 365 q 442 377 435 374 q 461 377 456 377 q 469 385 465 382 q 477 392 473 388 l 477 431 q 486 439 479 439 q 499 437 492 439 q 499 464 498 456 q 503 483 500 472 l 511 491 z "},"":{"ha":536,"x_min":-5,"x_max":541,"o":"m 540 475 q 533 429 540 444 q 539 412 537 422 q 534 393 541 401 q 536 372 537 384 q 538 351 536 361 q 533 340 536 345 q 528 328 530 335 q 532 307 532 320 q 515 289 529 286 q 513 273 513 282 q 511 255 513 263 q 498 229 507 236 q 484 224 484 227 q 481 218 484 221 q 469 207 469 210 q 465 201 468 203 q 452 205 454 205 q 446 205 449 206 q 438 195 439 202 q 430 186 437 189 q 395 175 408 179 q 374 168 378 167 q 365 161 370 165 q 355 167 359 157 q 342 166 346 170 q 331 161 338 163 q 307 165 312 163 q 296 172 301 168 q 274 169 279 172 q 262 163 269 165 q 243 168 251 161 q 228 168 236 175 q 230 152 231 155 q 231 144 229 149 q 224 127 222 129 q 227 123 227 126 q 226 113 227 118 q 229 106 225 109 q 227 98 228 102 q 227 91 225 95 q 221 67 220 72 q 220 56 222 62 q 221 31 225 45 q 230 9 229 15 q 232 0 231 4 q 210 -5 216 -7 q 194 -1 203 -3 q 159 0 168 4 q 138 2 141 4 q 127 0 134 0 q 109 9 114 5 q 99 0 102 7 q 90 -9 96 -7 q 75 -6 76 -4 q 71 -8 73 -8 q 61 -3 64 -7 q 53 4 58 1 q 40 5 46 4 q 30 8 34 5 q 20 6 24 8 q 14 5 16 4 q -1 4 1 1 q -5 9 -3 7 q 1 23 0 20 q 4 27 1 26 q 24 37 19 35 q 31 45 28 39 q 41 52 38 47 q 50 60 45 56 q 64 80 53 77 l 80 125 q 78 152 76 137 q 75 178 80 167 q 76 195 77 186 q 73 213 75 203 q 74 228 77 227 q 71 233 71 229 q 73 241 71 239 q 77 248 75 244 q 74 277 71 260 q 71 304 77 293 q 63 309 68 308 q 56 315 58 311 q 61 321 57 320 q 65 330 65 323 q 61 338 65 336 q 58 347 57 340 q 71 359 64 354 q 80 374 77 363 q 77 404 75 387 q 73 431 73 415 q 73 460 73 446 q 69 473 69 465 q 76 484 69 481 q 77 496 73 492 q 83 507 81 500 q 79 530 80 518 q 73 553 79 543 q 77 563 75 559 q 76 572 79 567 q 73 595 76 590 q 71 606 69 600 q 74 625 75 623 q 73 632 73 628 q 77 644 75 639 q 79 658 79 650 q 77 673 76 665 q 75 688 77 681 q 77 700 77 694 q 76 713 76 705 q 69 719 73 716 q 65 728 65 722 q 50 753 53 746 q 45 766 47 760 q 31 779 33 769 q 22 784 26 781 q 16 791 18 787 q 22 802 16 802 q 34 803 27 802 q 47 804 42 804 q 57 803 53 804 q 74 801 73 803 q 77 799 75 799 q 91 799 85 800 q 103 796 96 798 q 123 793 119 788 q 133 800 126 798 q 150 795 144 799 q 163 789 156 792 q 195 802 187 798 q 213 808 202 807 q 216 800 217 803 q 216 793 216 798 q 213 753 220 761 q 219 743 216 746 q 221 730 222 739 q 212 707 216 719 q 218 703 214 704 q 225 699 222 703 q 220 678 225 685 q 222 661 222 671 q 221 643 222 651 q 230 643 228 640 q 239 644 232 646 q 243 638 241 643 q 241 629 244 633 q 266 639 263 636 q 276 641 274 636 q 285 646 278 646 q 304 645 300 642 q 317 646 309 648 q 339 643 334 639 q 355 647 345 647 q 361 641 359 644 q 370 637 363 637 q 383 633 378 631 q 393 635 388 635 q 401 625 399 628 q 404 618 403 623 q 417 619 412 621 q 427 613 422 617 q 436 604 431 609 q 448 598 441 600 q 456 591 450 594 q 464 583 461 587 q 479 575 479 582 q 483 564 480 568 q 491 559 487 562 q 498 551 495 556 q 517 536 511 536 q 522 525 519 530 q 528 514 524 519 q 540 475 530 486 m 412 388 q 408 426 404 412 q 401 446 403 441 q 396 456 399 450 q 392 473 392 468 q 378 481 381 479 q 372 486 374 483 q 349 514 351 503 q 336 515 342 515 q 327 518 331 515 q 304 519 307 521 q 296 517 301 517 q 287 517 292 518 q 278 518 282 517 q 255 520 259 522 q 245 518 251 518 q 237 523 241 519 q 227 524 232 526 q 236 520 232 521 q 241 514 240 519 q 228 500 241 503 q 227 487 224 494 q 225 473 229 480 q 229 454 232 464 q 234 439 235 449 q 231 423 233 430 q 226 399 224 406 q 225 385 228 392 q 227 363 224 369 q 233 350 231 357 q 228 335 232 340 q 217 323 224 330 q 217 313 218 316 q 214 307 216 311 q 222 294 227 294 q 218 288 218 293 q 233 288 231 285 q 241 292 236 290 q 260 284 255 282 q 271 285 264 286 q 286 279 277 278 q 301 285 294 281 q 309 284 307 286 q 316 282 312 282 q 322 288 320 285 q 328 292 324 292 q 342 290 335 290 q 355 288 349 290 q 367 301 362 294 q 382 309 372 308 q 397 323 395 320 q 403 331 400 327 q 406 361 401 351 q 412 384 410 372 l 412 388 z "},"":{"ha":612,"x_min":-23,"x_max":639,"o":"m 635 199 q 632 186 636 189 q 625 179 628 184 q 624 170 624 175 q 621 161 624 164 q 614 149 617 155 q 612 133 610 144 q 608 113 612 117 q 602 103 605 110 q 583 94 589 100 q 583 78 583 85 q 579 65 582 71 q 570 54 571 57 q 567 52 570 52 q 556 22 560 35 q 547 -3 552 9 q 526 -6 529 -11 q 519 5 522 -1 q 510 11 514 8 q 503 18 506 14 q 487 2 492 12 q 471 -14 481 -8 q 464 -5 464 -12 q 458 5 464 3 q 454 -3 454 3 q 452 -12 454 -9 q 437 -8 444 -11 q 423 -3 430 -5 q 409 -1 416 -3 q 395 -3 401 0 q 381 -5 384 -3 q 373 -11 378 -8 q 351 -12 355 -16 q 342 -3 347 -7 q 322 -6 326 -8 q 313 -4 319 -4 q 300 -6 307 -4 q 285 -7 293 -8 q 269 3 273 3 q 258 1 264 3 q 235 -9 243 -14 q 217 -3 228 -4 q 207 -11 210 -5 q 193 -16 203 -16 q 186 -9 187 -15 q 183 0 186 -3 q 170 -4 171 -5 q 165 -1 168 -3 q 151 -2 159 0 q 136 -3 144 -4 q 113 -6 118 0 q 98 -15 107 -12 q 90 -6 88 -14 q 94 8 91 1 q 78 -1 81 7 q 65 -12 75 -9 q 49 -2 54 1 q 38 -1 43 -5 q 34 14 39 7 q 42 24 37 20 q 50 34 47 27 q 65 72 52 57 q 75 81 76 75 q 76 91 75 87 q 95 126 91 106 q 102 141 107 132 q 102 155 103 149 q 102 167 100 161 q 112 184 110 180 q 117 194 114 189 q 125 217 127 203 q 133 237 130 227 q 144 254 136 247 q 152 269 160 258 q 148 292 144 281 q 157 315 153 304 q 171 327 160 326 q 177 343 176 334 q 186 355 178 353 q 177 368 183 362 q 174 387 171 374 q 184 388 176 389 q 195 388 191 387 q 201 394 199 391 q 205 401 202 397 q 205 422 202 411 q 205 442 208 433 q 233 503 222 472 q 243 512 239 507 q 245 525 247 517 q 252 555 245 547 q 256 578 259 563 q 262 587 259 583 q 267 597 264 591 q 270 624 269 616 q 277 639 271 632 q 278 648 277 646 q 281 655 279 651 q 308 685 298 669 q 324 699 321 690 q 315 699 321 701 q 307 703 308 696 q 319 709 311 709 q 331 716 328 709 q 325 726 331 724 q 313 730 319 727 q 304 731 309 731 q 298 736 300 731 q 320 746 315 742 q 323 759 321 753 q 323 772 326 765 q 331 793 326 784 q 339 814 336 803 q 347 818 343 817 q 353 823 350 819 q 334 825 342 822 q 328 838 326 827 q 313 833 321 836 q 297 836 304 830 q 285 832 290 834 q 273 829 279 830 q 261 833 266 830 q 250 833 256 836 q 230 829 236 831 q 216 830 224 827 q 214 838 214 833 q 213 845 214 842 q 201 840 206 844 q 190 836 197 837 l 167 834 q 146 836 156 841 q 127 829 137 830 q 108 823 111 821 q 102 827 104 825 q 92 823 98 825 q 83 817 87 821 q 75 800 80 806 q 65 803 68 800 q 56 804 62 806 q 56 793 54 799 q 56 783 57 787 q 23 768 47 764 q 7 754 11 758 q 0 745 4 750 q -5 735 -3 741 q -14 727 -8 730 q -19 740 -23 734 q -18 753 -15 746 q -12 764 -15 760 q -7 773 -9 768 q -5 791 -7 788 q -3 798 -4 793 q 7 808 4 802 q 14 821 11 814 q 18 848 22 836 q 24 867 14 860 q 22 873 23 871 q 20 882 20 876 q 37 895 28 888 q 53 909 46 901 q 59 913 56 911 q 65 918 62 916 q 62 932 60 929 q 68 939 65 935 q 63 951 62 949 q 64 956 64 952 q 71 964 66 960 q 80 971 76 967 q 94 978 88 974 q 109 983 99 982 q 113 972 114 975 q 110 966 111 970 q 117 966 113 964 q 125 968 121 968 q 159 977 148 972 q 169 977 164 977 q 176 975 174 978 q 179 966 178 970 q 187 962 180 962 q 201 968 195 964 q 213 975 206 972 q 231 975 224 974 q 241 972 237 975 q 262 975 260 979 q 270 970 264 971 q 284 979 277 975 q 304 981 292 982 q 323 971 312 974 q 345 966 334 968 q 362 966 355 963 q 374 975 369 970 q 392 979 385 975 q 410 979 399 982 q 433 980 422 975 q 454 982 444 985 q 478 975 472 970 q 491 985 484 981 q 503 979 500 985 q 513 971 506 974 q 526 976 521 972 q 536 983 532 979 q 551 982 543 982 q 567 981 559 982 q 579 977 571 977 q 590 971 587 978 q 575 956 589 962 q 566 940 574 944 q 552 930 559 936 q 541 906 547 913 q 536 887 536 899 q 532 854 534 867 q 525 830 530 841 q 528 821 526 825 q 530 812 529 818 q 519 794 528 800 q 503 777 510 788 q 505 762 506 765 q 505 757 505 760 q 489 728 496 743 q 471 701 481 712 q 457 688 463 696 q 460 671 461 675 q 457 662 458 667 q 456 633 464 646 q 441 612 448 621 l 441 597 q 425 572 437 582 q 420 553 420 564 q 416 533 420 541 q 402 514 412 521 q 385 498 392 507 q 380 471 388 480 q 373 448 372 463 q 378 441 374 444 q 384 437 381 439 q 379 418 387 425 q 365 407 372 411 q 361 391 363 393 q 353 388 358 388 q 345 372 346 381 q 336 357 343 362 q 336 338 336 346 q 334 320 335 330 q 317 286 324 296 q 309 262 311 277 q 299 240 305 250 q 290 218 293 231 q 263 191 278 203 q 264 178 260 182 q 271 171 269 175 q 271 153 274 161 q 266 134 269 144 q 275 130 267 126 q 293 136 282 134 q 300 139 296 137 q 308 140 304 141 q 326 134 321 129 q 336 137 330 138 q 349 132 347 132 q 353 133 350 132 q 360 127 358 130 q 368 123 362 123 q 380 128 376 125 q 392 132 385 132 q 411 137 406 140 q 423 132 416 134 q 442 132 433 133 q 456 123 458 133 q 470 122 463 118 q 481 129 477 126 q 503 130 498 127 q 515 132 507 133 q 531 143 530 140 q 534 148 532 146 q 557 158 553 151 q 566 172 560 165 q 576 179 581 178 q 574 186 572 180 q 587 193 585 190 q 594 195 590 195 q 601 204 597 199 q 610 212 605 209 q 626 224 620 217 q 639 222 632 232 q 632 209 631 209 q 636 206 633 209 l 635 199 m 305 1095 q 293 1098 301 1099 q 283 1104 285 1097 q 270 1112 277 1105 q 247 1138 258 1134 q 240 1154 241 1153 q 237 1156 239 1154 q 223 1162 231 1158 q 212 1168 216 1165 q 201 1179 202 1179 q 189 1191 193 1187 q 176 1198 184 1195 q 157 1211 160 1206 q 148 1219 155 1217 q 133 1227 137 1221 q 130 1236 129 1233 q 146 1242 141 1241 q 157 1253 153 1252 q 166 1272 160 1267 q 178 1282 172 1276 q 189 1303 186 1299 q 194 1301 193 1306 q 212 1278 209 1293 q 228 1265 225 1270 q 248 1261 243 1259 q 260 1242 258 1257 q 277 1235 275 1240 q 278 1225 278 1230 q 288 1217 282 1221 q 300 1211 293 1214 q 311 1202 309 1203 q 316 1203 313 1202 q 332 1215 328 1215 q 342 1222 339 1222 q 347 1225 346 1222 q 351 1235 349 1232 q 357 1244 354 1238 q 376 1257 373 1253 q 385 1263 378 1261 q 401 1277 399 1276 q 406 1280 403 1278 q 420 1294 410 1295 q 430 1305 427 1309 q 435 1298 433 1301 q 441 1291 437 1291 q 444 1282 445 1291 q 454 1271 449 1275 q 463 1259 460 1267 q 467 1251 465 1251 q 472 1244 469 1251 l 484 1232 q 473 1219 475 1221 q 460 1215 463 1219 q 454 1204 457 1210 q 433 1195 434 1199 q 427 1184 431 1191 q 404 1169 412 1177 q 384 1158 396 1161 q 381 1143 381 1150 q 366 1130 368 1139 q 349 1115 353 1118 q 339 1111 346 1112 q 331 1104 336 1105 q 323 1096 326 1103 l 320 1078 q 305 1095 302 1082 z "},"":{"ha":484,"x_min":-56,"x_max":513,"o":"m 502 214 q 511 207 513 210 q 513 198 510 203 q 505 176 506 183 q 496 167 503 170 q 494 157 498 160 q 490 146 491 153 q 479 130 481 137 q 471 119 476 123 q 463 103 468 104 q 456 95 458 102 q 460 77 463 80 q 460 66 458 73 q 448 54 452 56 q 448 43 449 47 q 450 31 448 38 q 446 16 446 19 q 443 9 446 11 q 437 4 439 7 q 435 -7 438 -3 q 429 -14 431 -11 q 420 -9 422 -14 q 416 -1 419 -5 q 394 -2 400 -7 q 381 7 388 3 q 372 5 376 7 q 366 3 369 4 q 354 2 355 7 q 349 -5 353 -3 q 332 -8 335 -7 q 327 -11 330 -9 q 311 -12 313 -11 q 307 -14 309 -14 q 300 -9 302 -12 q 293 -4 297 -7 q 279 -2 286 -1 q 264 -5 273 -3 q 247 -1 248 -3 q 241 3 245 1 q 220 -2 224 -4 q 213 1 217 0 q 204 1 209 0 q 195 4 199 3 q 186 -3 190 1 q 176 -9 182 -7 q 168 -12 171 -9 q 160 -15 165 -15 q 139 -11 142 -9 q 129 -11 136 -12 q 123 -4 125 -8 q 118 4 121 0 q 94 -3 100 4 q 87 -3 91 -3 q 79 -3 83 -4 q 73 2 76 0 q 66 7 71 4 q 53 4 60 5 q 43 -1 46 3 q 35 -3 38 -1 q 27 -5 31 -4 q 16 -3 18 0 q 11 -5 15 -5 q -2 1 0 3 q -8 -1 -4 -1 q 3 11 0 9 q 7 15 5 12 q 33 71 22 47 q 37 89 34 83 q 38 103 41 95 q 50 123 42 114 q 50 146 57 133 q 54 157 52 153 q 56 168 56 161 q 62 176 58 172 q 64 186 65 179 q 66 194 65 190 q 66 205 66 198 q 79 222 77 218 q 85 228 81 225 q 97 249 92 239 q 109 270 102 259 q 110 288 111 281 q 113 303 114 302 q 111 307 111 304 q 123 340 118 324 q 138 369 129 355 q 152 392 144 384 q 156 409 152 395 q 160 426 160 423 q 172 454 170 437 q 180 481 174 471 q 182 497 179 491 q 187 509 184 503 q 193 519 190 514 q 197 533 197 525 q 202 541 199 537 q 206 552 205 545 q 216 572 212 559 q 224 608 213 595 q 244 633 236 620 q 242 649 240 647 q 243 656 244 651 q 250 670 247 662 q 250 686 254 678 q 239 688 245 690 q 225 689 232 686 q 199 684 208 684 q 184 686 191 684 q 164 681 178 684 q 117 684 137 688 q 105 686 110 685 q 94 688 100 688 q 75 681 83 685 q 61 673 68 677 l 45 673 q 33 665 39 669 q 19 659 26 662 q 7 640 12 642 q -3 636 1 639 q -22 613 -15 617 q -33 600 -28 609 q -45 591 -42 597 q -56 590 -49 586 q -52 601 -54 597 q -47 612 -50 605 q -42 627 -43 625 l -30 643 q -26 655 -27 648 q -23 669 -24 662 q -9 692 -15 681 q 0 721 -3 709 q 9 741 3 732 q 7 751 7 746 q 5 761 8 757 q 14 778 9 769 q 18 800 18 787 q 25 801 22 802 q 35 803 28 800 q 55 800 52 798 q 64 802 58 802 q 80 799 80 806 q 92 800 87 800 q 102 803 96 800 q 110 806 107 804 q 119 810 113 808 q 136 806 129 811 q 139 798 137 802 q 146 792 141 793 q 156 796 152 793 q 167 796 160 799 q 174 800 172 798 q 180 806 176 803 q 194 802 187 803 q 209 804 201 802 q 227 801 224 800 q 233 800 229 802 q 251 795 247 792 q 262 800 255 798 q 277 799 270 800 q 290 796 283 798 q 298 800 294 798 q 307 802 301 802 q 324 796 313 796 q 330 801 328 798 q 339 804 332 804 q 347 800 345 803 q 354 793 350 796 q 372 795 361 796 q 389 792 382 795 q 410 802 399 799 q 437 807 422 804 q 444 793 442 793 q 446 789 445 792 q 446 774 438 781 q 430 750 442 761 q 431 743 431 747 q 431 734 430 738 q 416 711 423 723 q 401 688 410 699 q 396 663 401 670 q 391 642 391 655 q 382 627 384 636 q 374 610 381 617 q 376 598 378 600 q 372 594 373 597 q 370 575 376 583 q 360 566 363 572 q 358 548 357 560 q 338 517 346 524 q 340 498 338 503 q 328 474 328 481 q 326 460 328 467 q 312 423 308 450 q 304 414 308 420 q 296 398 300 407 q 291 380 293 389 q 289 366 289 372 q 276 347 278 351 q 275 335 274 342 q 271 321 273 328 q 267 308 270 315 q 259 286 269 296 q 252 271 255 274 q 247 266 250 269 q 250 258 248 260 q 252 250 252 256 q 237 236 240 244 q 222 213 229 229 q 221 195 224 198 q 217 186 218 191 q 211 162 214 170 q 206 144 208 155 q 197 136 199 141 q 190 126 194 132 q 210 115 202 111 q 225 121 218 119 q 235 111 232 113 q 241 110 239 110 q 263 113 258 113 q 273 115 269 114 q 292 109 286 107 q 304 107 297 110 q 317 117 312 110 q 335 121 321 123 q 342 117 339 119 q 350 114 346 115 q 385 117 372 114 q 404 122 399 117 q 413 125 411 122 q 420 129 415 129 q 430 146 426 140 q 447 159 444 153 q 456 172 450 165 q 472 187 460 189 q 482 199 480 198 q 486 205 484 201 q 498 210 496 208 q 502 214 499 213 m 241 821 q 229 824 237 825 q 220 830 221 823 q 206 838 213 831 q 183 864 194 860 q 176 880 178 879 q 174 882 175 880 q 159 888 167 884 q 148 894 152 891 q 137 905 138 905 q 125 917 129 913 q 113 924 121 921 q 94 937 96 932 q 84 945 91 943 q 69 953 73 947 q 66 962 65 959 q 83 968 77 967 q 94 979 90 978 q 102 998 96 993 q 114 1008 109 1002 q 125 1029 122 1025 q 130 1027 129 1032 q 148 1004 145 1019 q 164 991 161 996 q 184 987 179 985 q 197 968 194 983 q 213 961 212 966 q 214 951 214 956 q 224 943 218 947 q 236 937 229 940 q 248 928 245 929 q 252 929 250 928 q 269 941 264 941 q 279 948 275 948 q 283 951 282 948 q 288 961 285 958 q 293 970 290 964 q 312 983 309 979 q 321 989 315 987 q 337 1003 335 1002 q 342 1006 339 1004 q 357 1020 346 1021 q 366 1031 363 1035 q 372 1024 369 1027 q 377 1017 373 1017 q 380 1008 381 1017 q 391 997 385 1001 q 399 985 396 993 q 404 977 401 977 q 408 970 406 977 l 420 958 q 410 945 411 947 q 396 941 399 945 q 391 930 393 936 q 369 921 370 925 q 363 910 368 917 q 340 895 349 903 q 320 884 332 887 q 317 869 317 876 q 302 856 304 865 q 286 841 289 844 q 275 837 282 838 q 267 830 273 831 q 259 822 262 829 l 256 804 q 241 821 239 808 z "},"":{"ha":945,"x_min":12,"x_max":937,"o":"m 64 970 q 43 989 43 979 q 33 991 37 989 q 24 994 30 993 q 15 1008 18 1008 q 14 1015 12 1009 q 26 1014 24 1016 q 33 1010 28 1012 q 58 1011 50 1009 q 72 1010 66 1013 q 92 1010 87 1010 q 103 1009 98 1009 q 124 1008 121 1006 q 132 1012 127 1010 q 146 1010 142 1008 q 155 1015 151 1012 q 169 1010 170 1012 q 171 1009 168 1009 q 170 994 172 998 q 168 981 168 989 l 171 954 q 169 939 172 943 q 167 926 165 935 q 172 915 172 918 q 174 909 171 911 q 174 890 175 898 q 171 875 172 882 q 172 861 172 865 q 168 853 171 857 q 168 845 170 848 q 164 838 167 842 q 171 815 167 818 q 168 799 168 804 q 166 778 167 781 q 165 772 165 774 q 168 751 168 761 q 172 728 172 735 q 173 716 176 722 q 167 705 170 711 q 169 698 167 700 q 171 690 171 696 q 168 677 170 684 q 165 663 167 670 q 171 656 168 659 q 175 650 174 654 q 172 634 171 635 q 174 631 174 633 q 172 618 171 625 q 170 605 172 612 q 169 590 172 594 q 168 579 165 586 q 170 524 168 545 l 170 509 q 170 500 171 503 q 168 494 170 498 q 172 479 171 483 q 170 473 172 476 q 174 460 174 460 q 175 457 175 460 q 163 446 163 448 q 161 446 163 445 q 148 446 155 446 q 136 444 141 446 q 122 447 123 446 q 119 449 121 448 q 107 448 113 449 q 95 448 102 446 q 83 445 90 448 q 73 448 76 442 q 60 446 62 448 q 54 448 57 445 q 58 460 60 460 q 57 463 57 460 q 70 473 68 471 q 73 479 72 476 q 71 490 69 488 q 69 495 72 492 q 75 515 76 511 q 75 524 73 518 q 74 548 75 541 q 76 559 73 555 q 75 568 76 563 q 73 576 73 572 q 74 601 73 594 q 76 613 75 608 q 75 629 76 628 q 72 633 73 631 q 75 646 75 647 q 76 648 76 646 q 75 660 75 655 q 73 673 75 665 q 73 713 71 692 q 76 724 75 720 q 77 731 77 728 q 74 749 76 745 q 69 758 72 753 q 73 783 69 773 q 73 795 72 789 q 72 806 75 800 q 74 818 75 812 q 75 830 73 823 q 74 840 75 834 q 75 850 73 845 q 77 878 73 872 q 74 890 73 890 q 75 894 75 891 q 74 906 76 901 q 72 917 72 911 q 73 933 73 930 q 75 944 73 943 q 76 948 76 945 q 72 955 75 952 q 66 962 69 958 l 64 970 m 937 178 q 936 168 936 172 q 933 161 936 164 q 925 142 928 145 q 920 136 922 138 q 915 120 914 121 q 916 118 916 119 q 903 88 911 94 q 895 71 895 76 q 891 61 894 65 q 882 47 886 53 q 875 35 879 41 q 869 20 872 20 q 864 22 865 20 q 856 3 861 8 q 832 -7 838 -4 q 823 -4 826 -9 q 810 -7 812 -5 q 804 -8 808 -9 q 791 -5 793 -4 q 787 -5 789 -5 q 766 -6 773 -4 q 754 -3 758 -8 q 739 -3 747 -3 q 726 0 730 -3 q 718 -1 722 -1 q 711 -3 713 -1 q 695 -2 703 0 q 681 -1 688 -4 q 663 -5 673 -3 q 644 -4 654 -8 q 627 -3 628 -4 q 624 -1 627 -3 q 616 -5 620 -3 q 610 -8 613 -7 q 602 -7 604 -9 q 597 -1 600 -4 q 589 -3 593 -3 q 581 -4 585 -3 q 568 3 568 3 q 567 5 567 4 q 578 37 568 27 q 578 44 579 41 q 578 52 576 47 q 582 67 579 64 q 587 73 585 71 q 585 88 583 85 q 584 102 582 102 q 586 106 586 103 q 587 122 583 118 q 593 133 590 126 q 598 149 594 144 q 606 156 602 153 q 616 173 609 167 q 629 186 623 179 q 639 196 633 193 q 651 203 644 199 q 663 212 663 212 q 662 214 662 213 q 681 229 677 228 q 689 233 685 231 q 699 243 694 239 q 711 252 704 247 q 732 259 727 255 q 741 269 738 263 q 743 278 747 271 q 745 288 739 285 q 752 289 746 289 q 760 290 758 289 q 769 296 765 293 q 777 304 773 300 q 785 318 783 313 q 789 330 787 323 q 795 337 792 332 q 796 347 799 342 q 804 366 800 362 q 802 385 806 381 q 802 393 799 388 q 808 403 807 400 q 806 408 808 406 q 799 422 800 422 q 796 425 798 423 q 787 438 791 435 q 784 448 784 441 q 772 451 773 445 q 776 461 772 457 q 755 459 761 457 q 749 465 749 461 q 741 475 741 475 q 742 479 742 476 q 734 482 738 484 q 715 481 730 480 q 705 467 715 471 q 680 463 685 468 q 671 450 675 457 q 662 447 666 448 q 654 444 658 446 q 653 431 651 438 q 648 422 655 425 q 642 409 642 411 q 642 404 643 407 q 625 385 629 395 q 623 373 623 373 q 624 370 624 373 q 619 354 620 357 q 620 347 618 351 q 600 339 602 338 q 600 357 600 354 q 598 362 600 359 q 593 372 594 370 q 591 378 591 374 q 587 394 589 395 q 586 396 586 393 q 581 410 582 411 q 576 410 579 408 q 576 424 576 419 q 574 437 575 429 q 565 448 562 444 q 567 458 568 452 q 565 471 563 469 q 570 473 567 472 q 590 494 583 492 q 605 500 597 496 q 618 511 614 502 q 628 522 623 519 q 644 525 644 522 q 644 530 643 528 l 656 547 q 667 553 663 553 q 674 555 670 552 q 682 557 678 556 q 689 559 685 557 q 704 563 703 563 q 750 563 723 567 q 761 555 755 553 q 770 557 766 557 q 784 549 783 548 q 787 551 785 551 q 800 546 796 545 q 807 544 804 547 q 819 537 812 536 q 827 533 825 538 q 835 526 829 525 q 841 522 841 526 q 848 513 848 514 q 849 509 849 511 q 857 504 853 509 q 856 494 861 499 q 869 486 867 487 q 875 481 872 484 q 880 464 882 469 q 882 454 879 458 q 882 439 882 444 q 886 433 883 435 q 892 418 891 419 q 895 416 894 418 q 897 401 894 403 q 901 396 899 399 q 902 385 901 387 q 905 381 903 384 q 901 371 905 374 q 895 365 898 368 q 899 355 895 358 q 902 346 902 353 q 898 330 898 330 q 887 317 891 324 q 878 305 883 309 q 873 288 875 290 q 869 282 871 286 q 861 267 863 267 q 859 266 860 267 q 851 256 854 260 q 845 245 848 252 l 833 235 q 818 221 827 225 q 798 210 800 213 q 789 205 795 208 q 776 194 779 199 q 770 189 773 191 q 764 184 766 187 q 753 179 753 180 q 750 176 753 178 q 739 168 739 172 q 735 161 738 164 q 719 153 728 155 q 709 144 708 145 q 711 140 709 142 q 696 120 700 122 q 690 111 692 118 q 691 99 693 100 q 688 95 689 98 q 688 81 693 83 q 680 76 682 80 q 701 75 694 71 q 711 73 704 72 q 722 71 719 75 q 730 73 727 72 q 738 75 734 75 q 753 72 750 71 q 760 73 755 73 q 769 68 766 66 q 774 69 772 69 q 783 71 779 69 q 791 71 788 72 q 798 75 795 73 q 807 77 802 76 q 818 88 815 88 q 823 88 821 88 q 847 108 841 104 q 859 118 853 111 q 882 130 878 125 q 884 140 879 136 q 894 141 888 144 q 903 157 901 155 q 909 161 906 159 q 919 167 917 163 q 924 174 921 171 l 937 178 m 574 675 q 563 665 568 670 q 555 651 557 661 q 541 639 548 648 q 542 633 541 636 q 541 624 543 629 q 531 598 538 609 q 514 578 524 587 q 511 570 513 572 q 507 564 510 567 q 506 555 507 559 q 505 547 505 552 q 498 534 500 541 q 491 524 496 528 q 483 502 490 509 q 467 488 476 495 q 460 464 464 469 q 453 453 457 458 q 452 439 452 446 q 450 425 452 433 q 433 399 444 407 q 427 376 433 385 q 415 359 422 366 q 404 328 408 342 q 395 313 399 320 q 389 296 392 305 q 370 279 370 290 q 363 262 369 269 q 350 231 358 239 q 338 210 336 216 q 342 195 340 203 q 323 185 327 187 q 315 180 320 183 l 315 157 q 307 146 311 152 q 301 134 304 140 q 281 95 292 106 q 267 75 269 85 q 259 60 266 65 q 244 54 247 54 q 248 43 244 47 q 250 30 251 38 q 246 19 247 24 q 241 11 245 14 q 207 16 220 12 q 180 18 194 19 q 174 12 176 15 q 164 8 171 8 q 125 13 140 11 q 103 23 110 15 q 85 18 96 23 q 73 16 75 19 q 65 11 71 12 q 59 17 61 12 q 53 24 57 22 q 64 42 56 34 q 95 52 88 47 q 109 60 102 56 q 122 73 122 69 q 132 85 129 77 q 144 94 134 92 q 151 101 148 98 q 156 111 155 104 q 157 120 157 115 q 157 129 156 125 q 160 140 159 136 q 161 152 161 145 q 174 169 170 159 q 184 189 178 179 q 201 222 195 209 q 218 245 208 236 q 218 259 220 252 q 218 273 217 266 q 225 284 221 279 q 232 294 229 289 q 243 305 239 298 q 250 324 248 312 q 262 345 256 334 q 275 363 267 355 q 274 378 273 376 q 278 385 275 381 q 292 412 285 406 q 305 422 298 418 q 315 433 311 427 q 326 445 319 439 q 328 470 326 464 q 334 483 331 476 q 347 494 340 487 q 350 513 353 502 q 360 530 355 522 q 368 552 365 538 l 368 576 q 377 588 373 581 q 382 605 381 595 q 397 618 391 612 q 410 635 404 625 q 418 642 415 637 q 429 650 422 647 q 426 664 431 658 q 422 677 420 670 q 429 686 422 684 q 438 697 435 689 q 452 713 449 709 q 458 724 456 718 q 476 774 467 755 q 479 790 476 788 q 483 796 481 792 q 487 813 480 807 q 500 825 494 819 q 508 844 505 841 q 514 852 511 846 q 513 871 510 869 q 519 876 517 872 q 531 897 524 892 q 538 914 538 902 q 545 922 543 917 q 553 929 548 926 q 551 939 548 935 q 557 945 553 943 q 551 950 555 948 q 547 958 547 952 q 553 970 547 967 q 564 978 560 972 q 570 989 567 985 q 575 998 572 993 q 595 1001 586 996 q 616 1001 605 1006 q 628 1005 623 1004 q 640 1008 633 1006 q 665 1010 659 1005 q 678 1012 671 1015 q 684 1005 684 1009 q 690 998 685 1001 q 718 1004 709 1004 q 734 1006 727 1004 q 745 1005 741 1006 q 754 1006 749 1004 q 772 1003 761 1002 q 787 997 784 1004 q 753 979 764 983 q 731 970 743 974 q 723 958 727 964 q 712 949 719 952 q 701 937 707 940 q 696 920 700 921 q 689 914 692 918 q 682 886 688 892 q 670 873 677 880 q 646 840 659 854 q 620 808 632 825 q 621 797 620 802 q 620 785 621 792 q 618 754 627 762 q 605 739 610 746 q 604 716 609 720 q 594 709 600 712 q 583 693 590 700 q 574 675 576 686 z "},"":{"ha":925,"x_min":-1,"x_max":925,"o":"m 920 205 q 921 186 925 190 q 913 161 914 167 q 916 144 916 149 l 917 129 q 916 114 917 117 q 899 109 903 109 q 887 115 887 114 q 886 115 887 115 l 871 114 q 856 111 861 114 q 855 94 856 98 q 854 88 854 91 q 854 66 856 69 q 864 42 872 54 q 861 23 865 34 q 863 8 861 9 q 857 -20 861 -15 l 861 -37 q 850 -53 857 -52 q 844 -65 848 -60 q 833 -73 841 -71 q 821 -96 830 -91 q 817 -107 819 -102 q 807 -115 814 -113 q 804 -123 806 -119 q 796 -129 802 -127 q 792 -137 793 -133 q 787 -142 791 -141 l 783 -157 q 770 -182 770 -175 l 768 -197 q 753 -197 754 -198 q 752 -178 751 -182 q 750 -171 753 -174 q 750 -152 750 -159 q 751 -138 750 -140 q 751 -136 751 -137 q 748 -118 747 -123 q 750 -109 749 -113 l 745 -94 l 747 -77 q 746 -68 745 -72 q 749 -60 747 -64 q 746 -39 743 -42 q 747 -26 746 -33 q 750 -12 749 -19 q 754 4 753 -4 q 753 19 755 12 q 754 35 754 35 l 754 50 q 754 65 755 64 q 753 69 753 66 q 751 85 753 79 q 750 103 750 102 q 734 110 739 109 q 724 114 728 111 l 708 117 l 694 107 l 680 111 q 665 114 669 115 q 656 113 662 113 q 634 111 639 110 q 624 114 629 113 q 609 118 616 118 q 578 118 587 113 q 560 111 570 111 q 544 118 545 117 l 528 125 l 541 133 q 545 144 545 142 q 544 148 544 146 q 547 165 544 157 l 552 180 q 557 199 556 197 q 557 203 557 201 l 560 224 q 563 244 563 233 q 564 251 564 247 q 566 259 564 255 l 571 277 l 570 292 q 576 308 576 304 q 575 319 575 317 q 574 324 575 321 q 578 339 578 336 l 582 354 q 585 377 583 372 q 585 392 583 389 q 587 397 586 395 l 587 419 q 591 437 591 430 q 597 457 594 444 q 597 472 597 469 l 598 487 q 605 500 600 495 q 607 517 605 515 q 610 519 609 518 q 624 530 621 530 q 640 526 635 526 q 647 524 644 525 q 655 526 651 525 q 665 528 659 528 q 681 524 680 525 q 696 530 690 530 l 707 519 q 701 496 705 500 q 694 465 699 475 q 692 446 693 450 l 694 431 q 694 417 693 418 q 694 415 694 416 q 690 402 690 403 q 689 400 690 401 q 686 384 684 389 q 686 368 688 372 q 681 350 686 358 q 677 330 680 340 q 677 313 678 315 q 674 304 675 309 q 671 296 673 300 l 671 278 l 667 263 q 660 252 661 254 q 658 250 659 251 q 662 229 661 233 q 661 213 662 217 q 669 202 667 201 q 675 201 671 203 q 699 201 690 198 q 717 202 712 203 q 728 201 722 201 q 738 200 734 201 q 745 199 742 199 q 758 214 758 208 l 755 229 q 757 248 757 244 q 755 261 754 259 q 755 264 755 263 q 760 283 754 278 q 758 309 758 298 l 761 324 q 754 339 755 332 l 757 354 q 758 369 758 368 q 761 388 760 385 l 760 404 q 761 423 761 411 q 758 439 758 438 q 757 442 757 441 q 753 458 755 453 q 758 476 757 475 q 755 494 757 487 q 758 509 755 506 q 765 524 762 521 q 770 526 768 526 l 787 524 q 802 522 799 522 q 815 529 808 526 l 834 525 q 860 515 856 524 q 861 500 860 500 q 861 499 861 500 q 861 490 861 492 q 860 484 860 487 q 859 465 863 469 q 853 457 856 460 q 863 450 860 453 q 865 445 865 446 q 859 430 859 429 l 861 415 q 862 397 863 399 q 861 393 861 395 q 863 375 863 381 q 863 362 863 369 q 864 347 865 353 q 860 338 863 342 q 867 320 868 321 q 867 302 867 307 q 864 283 865 286 q 861 264 864 267 l 865 250 q 859 233 865 237 q 857 214 861 224 q 860 199 860 210 l 875 201 q 883 206 879 203 q 894 209 887 209 q 914 206 909 206 l 920 205 m 31 989 q 19 991 23 989 q 11 994 15 993 q 1 1008 4 1008 q 0 1015 -1 1009 q 13 1014 11 1016 q 18 1010 15 1012 q 45 1011 38 1009 q 60 1010 53 1013 q 79 1010 73 1010 q 91 1009 84 1009 q 111 1008 109 1006 q 119 1012 114 1010 q 132 1010 129 1008 q 140 1015 136 1012 q 156 1010 156 1012 q 157 1009 156 1009 q 155 981 155 994 q 158 963 157 967 q 159 954 159 959 q 156 939 159 943 q 153 926 153 935 q 160 909 159 913 q 161 890 161 898 q 159 875 160 882 q 159 861 160 865 q 156 853 157 857 q 155 845 156 848 q 152 838 153 842 q 157 815 156 818 q 155 799 157 810 q 154 778 155 781 q 153 772 153 774 q 155 758 156 762 q 156 751 155 754 q 160 728 160 735 q 159 716 163 722 q 155 705 156 711 q 155 698 153 700 q 157 690 157 696 q 156 677 157 684 q 153 663 155 670 q 157 656 155 659 q 163 650 160 654 q 159 634 159 635 q 160 631 160 633 q 159 618 159 625 q 157 605 160 612 q 156 590 159 594 q 155 579 153 586 q 156 524 155 545 q 159 513 160 514 q 157 509 157 511 q 155 494 157 499 q 157 473 159 477 q 161 460 160 460 q 161 457 161 460 q 150 446 149 448 q 148 446 151 445 q 122 444 129 446 q 106 449 109 448 q 94 448 99 449 q 81 448 88 446 q 70 445 76 448 q 61 448 64 442 q 42 448 45 445 q 45 460 46 460 q 45 463 43 460 q 56 473 54 471 q 60 479 58 476 q 58 490 57 488 q 57 495 58 492 q 61 515 62 511 q 61 524 60 518 q 61 548 61 541 q 64 559 61 555 q 61 576 61 570 q 62 613 60 601 q 61 629 62 628 q 60 633 60 631 q 63 646 62 647 q 64 648 64 646 q 62 660 62 655 q 60 673 61 665 q 59 692 58 682 q 61 713 60 703 q 62 724 61 720 q 64 731 64 728 q 60 749 62 745 q 56 758 58 753 q 60 783 56 773 q 60 795 60 789 q 58 806 61 800 q 60 818 61 812 q 62 830 60 823 q 60 840 61 834 q 61 850 60 845 q 65 878 60 872 q 62 890 61 890 q 62 894 62 891 q 60 906 62 901 q 60 917 58 911 q 60 933 62 928 q 62 948 62 945 q 58 955 61 952 q 53 962 56 958 q 43 979 45 974 q 31 989 30 979 m 540 675 q 529 665 534 670 q 521 651 524 661 q 510 639 514 648 q 509 633 509 636 q 510 624 510 629 q 498 598 506 609 q 480 578 491 587 q 478 570 480 572 q 473 564 476 567 q 472 555 473 559 q 471 547 471 552 q 466 534 468 541 q 458 524 464 528 q 451 502 458 509 q 435 488 444 495 q 427 464 430 469 q 420 453 423 458 q 419 439 419 446 q 418 425 419 433 q 410 411 414 418 q 401 399 407 404 q 395 376 400 385 q 384 359 391 366 q 374 342 374 350 q 370 328 373 335 q 362 313 366 320 q 355 296 358 305 q 337 279 338 290 q 331 262 336 269 q 325 239 328 243 q 317 231 321 235 q 305 210 302 216 q 308 195 308 203 q 290 185 293 187 q 283 180 286 183 q 283 170 283 175 q 282 157 283 164 q 275 146 278 152 q 269 134 273 140 q 248 95 256 104 q 235 75 236 85 q 227 60 233 65 q 216 43 213 47 q 217 30 220 38 q 214 19 214 24 q 210 11 214 14 q 174 16 186 12 q 149 18 161 19 q 140 12 142 15 q 132 8 138 8 q 92 13 107 11 q 71 23 77 15 q 60 22 64 23 q 54 18 57 20 q 41 16 42 19 q 34 11 39 12 q 25 17 27 12 q 20 24 23 22 q 33 42 22 35 q 62 52 57 47 q 75 60 68 56 q 89 68 88 66 q 90 73 90 71 q 99 85 96 77 q 113 94 102 92 q 118 101 115 98 q 123 111 121 104 q 124 120 125 115 q 123 129 123 125 q 125 140 123 136 q 127 152 127 145 q 141 169 137 159 q 152 189 145 179 q 169 222 163 209 q 184 245 175 236 q 186 259 187 252 q 184 273 184 266 q 191 284 187 279 q 198 294 195 289 q 217 324 217 302 q 229 345 224 334 q 241 363 233 355 q 241 378 239 376 q 244 385 243 381 q 259 412 251 406 q 274 422 267 418 q 283 433 279 427 q 292 445 288 439 q 294 470 292 464 q 300 483 297 476 q 313 494 307 487 q 317 513 320 502 q 328 530 323 522 q 335 552 332 538 l 335 576 q 350 605 345 583 q 364 618 357 612 q 377 635 372 625 q 387 642 384 637 q 396 650 389 647 q 394 664 399 658 q 389 677 389 670 q 396 686 391 684 q 404 697 401 689 q 420 713 416 709 q 426 724 423 718 q 445 774 431 750 q 447 790 445 788 q 450 796 449 792 q 454 813 448 807 q 467 825 461 819 q 475 844 471 841 q 481 852 479 846 q 479 871 476 869 q 486 876 483 872 q 498 897 490 892 q 506 914 506 902 q 513 922 510 917 q 519 929 515 926 q 518 939 515 935 q 524 945 521 943 q 517 950 521 948 q 514 958 514 952 q 521 970 514 967 q 532 978 528 972 q 536 989 533 985 q 541 998 538 993 q 563 1001 553 996 q 583 1001 572 1006 q 595 1005 589 1004 q 609 1008 601 1006 q 632 1010 627 1005 q 644 1012 637 1015 q 652 1005 651 1009 q 658 998 652 1001 q 686 1004 677 1004 q 701 1006 694 1004 q 711 1005 707 1006 q 720 1006 715 1004 q 739 1003 727 1002 q 754 997 751 1004 q 721 979 732 983 q 699 970 709 974 q 690 958 693 964 q 680 949 686 952 q 670 937 671 939 q 663 920 669 921 q 655 914 658 918 q 649 886 655 892 q 636 873 643 880 q 612 840 625 854 q 587 808 598 825 q 587 797 586 802 q 586 785 587 792 q 585 754 593 762 q 574 739 576 746 q 572 716 576 720 q 563 709 567 712 q 550 693 557 700 q 540 675 543 686 z "},"":{"ha":279,"x_min":54,"x_max":218,"o":"m 213 1009 q 210 981 210 994 q 214 963 213 967 q 214 954 214 959 q 212 939 214 943 q 209 926 209 935 q 216 909 214 913 q 216 890 217 898 q 214 875 216 882 q 214 861 216 865 q 212 853 213 857 q 210 845 212 848 q 208 838 209 842 q 213 815 212 818 q 210 799 213 810 q 210 778 210 781 q 209 772 209 774 q 211 758 212 762 q 212 751 210 754 q 216 728 216 735 q 215 716 218 722 q 210 705 212 711 q 211 698 209 700 q 213 690 213 696 q 212 677 213 684 q 209 663 210 670 q 213 656 210 659 q 218 650 216 654 q 215 634 214 635 q 216 631 216 633 q 214 618 214 625 q 212 605 214 612 q 212 590 214 594 q 210 579 209 586 q 212 524 210 545 q 214 513 216 514 q 213 509 213 511 q 210 494 213 499 q 213 473 214 479 q 216 460 216 460 q 217 457 217 460 q 205 446 205 448 q 203 446 206 445 q 178 444 184 446 q 161 449 164 448 q 149 448 155 449 q 136 448 144 446 q 125 445 132 448 q 117 448 119 442 q 98 448 100 445 q 100 460 102 460 q 100 463 99 460 q 112 473 110 471 q 115 479 114 476 q 113 490 113 488 q 113 495 114 492 q 117 515 118 511 q 117 524 115 518 q 117 548 117 541 q 119 559 117 555 q 117 576 117 570 q 118 613 115 601 q 117 629 118 628 q 115 633 115 631 q 119 646 118 647 q 119 648 119 646 q 117 660 118 655 q 115 673 117 665 q 115 692 114 682 q 117 713 115 703 q 118 724 117 720 q 119 731 119 728 q 116 749 118 745 q 111 758 114 753 q 115 783 111 773 q 116 795 115 789 q 114 806 117 800 q 116 818 117 812 q 118 830 115 823 q 116 840 117 834 q 117 850 115 845 q 121 878 115 872 q 117 890 117 890 q 118 894 118 891 q 116 906 118 901 q 115 917 114 911 q 115 933 118 928 q 118 948 118 945 q 114 955 117 952 q 109 962 111 958 q 99 979 100 974 q 89 981 94 979 q 85 989 84 983 q 75 991 79 989 q 66 994 71 993 q 57 1008 60 1008 q 56 1015 54 1009 q 68 1014 66 1016 q 73 1010 71 1012 q 100 1011 92 1009 q 115 1010 109 1013 q 134 1010 129 1010 q 146 1009 140 1009 q 167 1008 164 1006 q 175 1012 170 1010 q 188 1010 184 1008 q 195 1015 191 1012 q 212 1010 212 1012 q 213 1009 212 1009 z "},"":{"ha":1042,"x_min":-7,"x_max":1042,"o":"m 1036 208 q 1038 189 1042 190 q 1031 170 1031 174 q 1029 164 1032 167 q 1034 146 1032 149 l 1034 132 q 1032 115 1034 118 q 1019 111 1020 111 q 1016 111 1019 110 q 1002 118 1005 115 q 988 117 989 118 q 986 117 987 117 q 970 109 970 109 q 972 96 972 99 q 971 91 971 94 q 971 69 972 72 q 983 56 983 62 q 981 45 983 49 q 981 35 982 38 q 978 26 981 31 q 979 13 978 14 q 979 9 979 12 q 977 -10 977 -5 q 975 -18 977 -15 l 978 -34 q 967 -50 975 -47 q 961 -63 964 -57 q 951 -72 958 -69 q 937 -95 945 -90 q 933 -105 936 -100 q 924 -113 930 -110 q 921 -121 922 -117 q 913 -126 920 -125 q 903 -141 909 -138 l 895 -156 q 888 -171 888 -167 q 887 -179 888 -175 l 886 -194 l 871 -197 q 869 -176 868 -179 q 868 -170 869 -172 q 867 -155 868 -157 q 868 -151 867 -153 q 867 -136 867 -137 q 868 -134 868 -136 q 865 -117 864 -122 q 867 -106 865 -111 l 861 -91 l 864 -76 q 863 -66 861 -71 q 867 -58 864 -61 q 863 -37 860 -42 q 864 -23 863 -30 q 867 -9 865 -16 q 871 6 869 -1 q 869 22 872 14 q 872 37 872 34 q 870 48 869 46 q 871 52 871 50 q 869 71 872 65 q 870 83 871 81 q 868 88 869 84 q 867 106 867 103 q 841 115 852 110 q 825 119 827 117 l 811 110 q 791 119 793 114 q 773 115 783 115 q 751 114 755 113 q 741 117 746 115 q 726 119 730 119 q 696 121 705 114 q 687 115 690 117 q 677 113 684 113 q 663 119 665 118 q 661 119 662 119 l 644 126 l 658 136 l 661 151 q 661 161 661 157 q 663 168 662 164 l 669 183 q 674 200 674 198 q 675 205 674 202 l 677 225 q 680 237 680 233 q 681 247 680 241 q 682 263 681 256 q 689 279 688 278 l 688 294 q 693 307 693 305 q 694 309 693 308 q 692 327 692 320 q 694 342 694 339 l 699 357 q 701 372 700 369 q 701 378 701 376 q 701 395 700 392 q 704 400 703 397 l 705 420 q 709 439 708 433 l 713 460 l 713 475 l 715 490 q 722 503 716 498 q 727 521 726 521 q 742 533 738 532 q 765 525 757 529 q 783 529 770 529 l 798 526 q 807 530 804 529 q 812 532 810 532 l 823 521 q 818 499 823 505 q 811 467 815 479 q 808 449 810 453 q 812 427 812 430 q 811 422 811 425 l 810 407 l 802 393 q 803 370 804 373 q 798 353 803 361 q 793 331 796 345 q 794 319 793 320 q 793 315 795 317 q 788 297 791 304 l 788 281 l 785 264 q 777 254 777 255 q 774 251 776 254 q 779 232 776 237 q 777 214 779 220 q 786 204 784 203 q 792 205 788 205 q 815 203 808 199 q 833 205 829 206 q 845 205 838 205 q 854 203 850 203 q 861 201 859 203 q 875 217 875 212 l 873 232 q 875 251 873 244 q 873 267 872 266 q 876 286 873 283 q 875 312 875 301 q 880 330 880 328 l 871 342 q 876 366 873 361 q 876 381 876 377 l 876 396 q 878 426 878 412 q 873 445 875 442 q 869 460 873 456 l 872 475 l 875 490 l 873 505 l 878 521 q 895 525 894 528 q 914 524 911 526 q 932 530 928 529 l 951 528 q 977 518 972 525 q 977 509 978 513 q 977 503 977 506 q 977 487 978 490 q 970 458 979 468 q 980 452 978 456 q 982 446 982 449 q 975 433 975 435 l 978 418 l 979 403 l 981 388 q 981 363 978 377 q 981 349 982 354 q 977 339 979 343 q 983 321 985 323 q 983 307 983 308 q 985 305 983 307 q 982 285 982 290 q 978 267 981 270 l 982 252 q 975 235 982 241 q 975 217 978 228 q 979 201 978 201 q 981 199 979 201 q 1012 210 1000 210 q 1027 208 1025 208 q 1031 209 1028 209 l 1036 208 m 176 471 q 161 468 163 469 q 153 467 159 467 q 142 472 145 475 q 134 471 140 469 q 124 481 125 481 q 123 484 123 481 q 112 490 113 491 q 109 490 111 490 q 94 503 95 500 q 91 509 92 506 q 72 517 77 514 q 53 526 54 524 q 37 534 39 530 q 27 537 35 538 l 11 541 q -1 543 3 544 q -7 548 -5 543 q 8 555 4 553 q 22 559 20 560 q 27 556 24 557 q 45 562 42 564 q 60 568 52 566 q 71 578 68 571 q 85 580 85 581 q 88 578 85 579 q 97 581 92 579 q 106 582 102 582 q 125 595 122 585 q 140 595 137 598 q 144 578 144 581 q 162 565 160 568 q 170 560 164 562 q 188 555 182 553 q 194 548 194 556 q 212 559 209 557 q 220 560 214 560 q 231 572 229 572 q 233 571 232 571 q 243 583 243 583 q 249 608 250 602 q 250 618 248 613 q 252 627 254 627 q 252 635 251 628 q 246 650 251 648 q 243 655 241 652 q 240 667 241 666 q 239 671 239 669 q 237 685 237 684 q 239 689 237 686 q 222 703 227 701 q 217 711 218 705 q 207 723 209 722 q 201 726 205 724 q 184 738 187 734 q 172 749 170 743 q 161 753 164 753 q 155 755 157 753 q 140 760 141 755 q 137 766 138 764 q 114 769 117 765 q 113 785 111 783 q 126 792 123 788 q 132 806 127 802 q 142 817 137 811 q 159 845 160 827 q 178 864 165 857 q 194 886 190 871 q 197 901 193 892 q 203 909 205 905 q 205 916 202 913 q 219 927 218 922 q 225 935 220 932 q 231 939 224 937 q 239 941 239 940 q 228 939 236 939 q 220 945 220 939 q 201 949 205 949 q 194 948 198 949 q 179 947 179 947 q 171 941 175 944 q 160 939 167 939 q 144 947 144 945 q 142 949 144 948 q 120 945 125 947 q 113 947 115 944 q 106 942 110 945 q 96 943 102 939 q 89 939 91 941 q 80 935 87 936 q 67 935 69 939 q 60 930 65 932 q 48 928 52 932 q 38 926 45 925 q 17 916 19 920 q 11 910 15 913 q 24 939 18 928 q 37 947 37 947 q 38 948 37 948 q 42 955 41 951 q 46 962 43 959 q 61 977 46 979 q 64 989 62 989 q 66 991 65 989 q 77 1017 65 1005 q 94 1028 92 1027 q 98 1031 95 1029 q 118 1029 113 1027 q 135 1027 133 1025 q 140 1031 137 1029 q 153 1024 153 1028 q 169 1031 164 1028 q 178 1031 174 1035 q 188 1026 182 1025 q 197 1024 194 1027 q 203 1027 199 1025 q 212 1029 208 1029 q 228 1027 228 1028 q 231 1025 228 1025 q 239 1025 236 1024 q 248 1025 243 1025 q 269 1029 262 1027 q 279 1024 277 1032 q 296 1027 292 1028 q 304 1024 301 1025 q 318 1025 317 1025 q 321 1023 319 1024 q 330 1027 326 1024 q 339 1024 335 1029 q 343 1005 346 1006 q 336 990 336 991 q 336 972 336 974 q 335 968 336 971 q 340 952 339 955 q 343 947 340 949 q 330 920 334 922 q 315 893 323 905 q 304 880 307 882 q 295 863 296 868 q 286 859 294 859 q 280 847 281 848 q 277 846 279 846 q 275 836 277 844 q 269 825 273 827 q 258 817 260 818 q 254 814 256 815 q 248 798 251 799 q 243 793 245 796 q 258 789 256 789 q 268 789 263 789 q 274 787 273 789 q 286 777 281 777 q 292 773 292 776 q 312 748 304 760 q 321 734 320 736 q 332 719 327 719 l 334 703 q 340 687 339 689 q 345 682 342 685 q 342 669 345 671 q 336 663 339 666 q 346 644 343 650 q 346 634 345 637 q 345 628 347 631 q 340 619 338 623 q 340 610 342 616 q 343 596 342 597 q 346 593 345 595 q 335 571 334 582 q 330 555 336 560 q 321 545 321 552 q 312 537 320 537 q 305 524 313 526 q 290 508 293 513 q 285 499 288 503 q 264 488 278 487 q 257 484 260 486 q 248 486 254 483 q 240 474 240 475 q 239 473 240 473 q 224 468 224 469 q 222 465 224 467 q 206 467 209 465 q 197 468 203 468 q 182 466 186 465 q 176 471 178 467 m 651 624 q 640 598 647 609 q 624 578 633 587 q 621 570 623 572 q 617 564 620 567 q 616 555 617 559 q 614 547 614 552 q 608 534 610 541 q 601 524 605 528 q 592 502 600 509 q 576 488 585 495 q 563 453 571 463 q 562 439 562 446 q 560 425 562 433 q 553 411 556 418 q 543 399 549 404 q 525 359 541 376 q 514 328 518 342 q 505 313 509 320 q 498 296 500 305 q 479 279 479 290 q 472 262 479 269 q 466 239 469 243 q 460 231 463 235 q 448 210 446 216 q 450 195 450 203 q 432 185 437 187 q 425 180 427 183 q 425 170 425 175 q 423 157 425 164 q 417 146 420 152 q 411 134 414 140 q 391 95 399 103 q 377 75 378 85 q 369 60 376 65 q 354 54 355 54 q 357 43 354 47 q 359 30 361 38 q 356 19 357 24 q 351 11 355 14 q 317 16 330 12 q 290 18 304 19 q 283 12 285 15 q 274 8 281 8 q 234 13 248 11 q 213 23 220 15 q 195 18 203 23 q 182 16 183 19 q 175 11 180 12 q 168 17 170 12 q 163 24 165 22 q 174 42 164 35 q 204 52 198 47 q 217 60 210 56 q 231 73 232 69 q 241 85 237 77 q 254 94 244 92 q 260 101 256 98 q 266 111 264 104 q 267 120 267 115 q 266 129 266 125 q 269 140 267 136 q 271 152 270 145 q 283 169 279 159 q 294 189 288 179 q 310 222 304 209 q 327 245 316 236 q 328 259 330 252 q 328 273 327 266 q 334 284 331 279 q 342 294 338 289 q 353 305 349 298 q 358 324 358 312 q 370 345 365 334 q 384 363 374 355 q 384 378 382 376 q 387 385 385 381 q 401 412 395 406 q 415 422 408 418 q 425 433 420 427 q 433 445 429 439 q 437 470 434 464 q 442 483 439 476 q 456 494 449 487 q 460 513 463 502 q 469 530 464 522 q 476 552 475 538 q 476 564 476 559 q 477 576 476 570 q 491 605 486 583 q 507 618 499 612 q 518 635 514 625 q 528 642 525 637 q 537 650 530 647 q 535 664 540 658 q 530 677 530 670 q 538 686 532 684 q 545 697 544 689 q 562 713 559 709 q 568 724 566 718 q 586 774 575 754 q 589 790 586 788 q 593 796 591 792 q 597 813 590 807 q 610 825 604 819 q 617 844 613 841 q 624 852 621 846 q 623 871 618 869 q 628 876 627 872 q 640 897 632 892 q 647 914 647 902 q 654 922 652 917 q 661 929 656 926 q 667 945 654 940 q 661 950 665 948 q 655 958 656 952 q 663 970 656 967 q 674 978 670 972 q 679 989 675 985 q 685 998 682 993 q 705 1001 696 996 q 726 1001 715 1006 q 750 1008 738 1005 q 775 1010 769 1005 q 788 1012 781 1015 q 794 1005 793 1009 q 800 998 795 1001 q 827 1004 818 1004 q 844 1006 836 1004 q 853 1005 849 1006 q 863 1006 857 1004 q 881 1003 869 1002 q 895 997 892 1004 q 863 979 873 983 q 841 970 852 974 q 831 958 834 964 q 822 949 827 952 q 811 937 817 940 q 805 920 810 921 q 798 914 800 918 q 791 886 798 892 q 777 873 785 880 q 753 840 766 854 q 730 808 741 825 l 730 785 q 727 754 736 762 q 715 739 718 746 q 713 716 718 720 q 704 709 708 712 q 693 693 700 700 q 682 675 686 686 q 671 665 677 670 q 662 651 665 661 q 651 639 655 648 l 651 624 z "},"":{"ha":457,"x_min":35,"x_max":391,"o":"m 382 1024 q 388 1008 388 1009 q 387 1005 388 1006 q 381 994 382 994 q 378 990 380 993 q 380 972 380 974 q 378 968 380 971 q 383 952 382 955 q 385 947 384 949 q 370 920 378 922 q 357 893 365 905 q 347 880 350 882 q 338 863 339 868 q 330 859 338 859 q 323 847 324 848 q 320 846 323 846 q 317 836 320 844 q 311 825 313 827 q 301 817 302 818 q 297 814 300 815 q 291 798 294 799 q 286 793 288 796 q 309 789 304 789 q 316 787 313 789 q 329 777 323 777 q 335 773 335 776 q 355 748 347 760 q 363 734 362 736 q 374 719 368 719 q 376 707 374 708 q 377 703 377 705 q 383 687 381 689 q 388 682 385 685 q 385 669 388 671 q 380 663 382 666 q 387 648 387 650 q 388 644 388 647 q 389 634 387 637 q 388 628 391 631 q 382 619 380 623 q 384 610 384 616 q 387 596 385 597 q 389 593 388 595 q 377 571 376 582 q 372 555 378 560 q 362 545 362 552 q 355 537 362 537 q 349 524 357 526 q 332 508 335 513 q 327 499 330 503 q 305 488 320 487 q 288 480 289 483 q 285 475 288 477 q 269 471 271 468 q 248 467 251 465 q 240 468 245 468 q 225 466 229 465 q 220 471 221 467 q 202 468 205 469 q 195 467 199 467 q 185 472 189 475 q 178 471 182 469 q 168 481 168 481 q 167 484 167 481 q 154 490 155 491 q 152 490 153 490 q 136 503 137 500 q 132 509 134 506 q 115 517 121 514 q 96 526 98 524 q 79 534 81 530 q 69 537 76 538 l 54 541 q 41 543 46 544 q 35 548 37 543 q 45 553 43 552 q 50 555 47 553 q 64 559 62 560 q 69 556 66 557 q 85 562 83 564 q 102 568 94 566 q 114 578 110 571 q 130 578 127 581 q 138 581 134 579 q 149 582 142 582 q 168 595 165 585 q 183 595 179 597 q 186 580 187 581 q 187 578 186 579 q 203 565 201 568 q 213 560 206 562 q 231 555 225 553 q 237 548 237 556 q 254 559 251 557 q 262 560 256 560 q 273 572 271 572 q 277 571 275 571 q 286 589 286 586 q 288 593 286 591 q 292 608 292 602 q 293 618 292 613 q 295 627 296 627 q 296 635 294 628 q 289 650 294 648 q 286 655 283 652 q 283 667 285 666 q 282 671 282 669 q 281 685 281 684 q 282 689 281 686 q 259 711 262 704 q 248 723 250 722 q 244 726 247 724 q 227 738 231 734 q 216 749 213 743 q 203 753 208 753 q 197 755 198 753 q 183 760 184 755 q 179 766 182 764 q 157 769 160 765 q 156 785 153 780 q 168 794 168 793 q 167 796 167 795 q 176 806 171 802 q 186 817 180 811 q 199 829 194 823 q 201 845 203 836 q 220 864 208 857 q 236 886 233 871 q 239 901 235 892 q 245 909 247 905 q 247 916 244 913 q 262 927 260 922 q 267 935 263 932 q 275 939 267 937 q 281 941 282 940 q 270 939 278 939 q 263 945 262 939 q 243 949 247 949 q 236 948 240 949 q 213 941 217 944 q 201 939 209 939 q 186 949 187 948 q 178 948 180 949 q 171 944 175 947 q 163 945 167 947 q 156 947 159 944 q 149 942 153 945 q 137 943 144 939 q 130 939 132 941 q 123 935 129 936 q 110 935 113 939 q 103 930 107 932 q 90 928 94 932 q 79 926 87 925 q 60 916 62 920 q 54 910 58 913 q 68 939 61 928 q 80 948 77 947 q 85 955 83 951 q 90 962 87 959 q 104 977 90 979 q 107 989 106 989 q 110 991 109 989 q 112 1007 109 1002 q 119 1017 115 1012 q 136 1028 134 1027 q 140 1031 137 1029 q 157 1027 155 1027 q 161 1029 159 1028 q 177 1027 175 1025 q 182 1031 179 1029 q 195 1027 195 1028 q 195 1024 194 1025 q 212 1031 208 1028 q 221 1031 217 1035 q 231 1026 225 1025 q 240 1024 237 1027 q 260 1029 256 1031 q 267 1028 264 1028 q 282 1025 278 1024 q 290 1025 286 1025 q 311 1029 304 1027 q 323 1024 319 1032 q 340 1027 335 1028 q 347 1024 345 1025 q 361 1025 361 1025 q 362 1023 361 1024 q 373 1027 368 1024 q 382 1024 378 1029 z "},"":{"ha":400,"x_min":15,"x_max":392,"o":"m 392 637 q 391 629 391 633 q 388 623 391 625 q 379 603 382 606 q 373 595 376 600 q 368 581 368 581 q 369 578 369 581 q 357 547 365 555 q 349 531 350 536 q 345 522 347 526 q 336 508 339 514 q 330 495 334 502 q 323 481 327 480 q 317 483 320 481 q 309 464 313 465 q 286 454 292 456 q 277 456 281 452 q 264 452 267 454 q 258 452 262 450 q 240 454 244 454 q 220 454 228 456 q 208 458 213 453 q 192 458 201 458 q 179 461 183 457 q 149 458 157 460 q 134 460 140 456 q 117 454 126 457 q 99 456 109 452 q 92 456 95 457 q 84 456 90 454 q 64 452 72 457 q 43 458 47 458 q 35 457 39 457 q 21 465 22 464 q 20 467 20 465 q 24 488 20 484 q 31 498 27 492 q 32 505 33 500 q 33 513 31 509 q 37 528 34 524 q 42 534 39 532 q 37 553 38 551 q 37 560 35 556 q 41 582 38 578 q 47 593 45 586 q 53 608 49 604 q 61 617 57 613 q 70 633 64 628 q 83 646 76 639 q 106 662 91 656 q 117 673 118 673 q 117 675 117 673 q 134 690 130 689 q 142 694 137 692 q 154 703 149 699 q 165 713 159 708 q 186 718 180 715 q 194 728 191 722 q 196 738 199 731 q 198 747 193 745 q 206 749 199 750 q 214 750 213 749 q 231 765 224 754 q 238 778 236 773 q 241 789 240 783 q 249 798 245 792 q 250 808 252 803 q 254 822 252 819 q 258 827 256 825 q 256 845 259 842 q 255 853 252 848 q 262 864 262 861 q 259 869 262 867 q 252 882 254 882 q 250 884 251 883 q 241 897 244 894 q 237 907 237 901 q 227 912 227 906 q 231 921 227 918 q 210 920 216 917 q 203 926 203 922 q 187 942 191 944 q 170 941 183 940 q 160 926 170 930 q 134 922 138 928 q 125 911 129 917 q 117 908 121 909 q 109 905 113 907 q 107 892 104 899 q 103 883 110 886 q 97 869 96 871 q 96 865 98 868 q 83 852 85 856 q 79 846 81 849 q 77 833 76 834 q 77 831 77 833 q 73 815 73 818 q 73 807 72 812 q 58 800 60 802 q 54 800 57 799 q 54 818 54 815 q 53 823 54 821 q 47 832 47 830 q 46 837 46 834 q 43 852 43 850 q 41 864 41 860 q 38 869 41 868 q 31 884 31 879 q 27 898 30 890 q 18 909 15 905 q 20 918 22 913 q 18 932 16 930 q 23 935 20 933 l 38 939 q 45 954 38 954 q 58 962 52 955 q 72 970 68 962 q 81 983 76 979 q 90 983 87 985 q 96 982 94 981 q 111 998 107 997 q 121 1013 118 1013 q 127 1016 123 1012 q 142 1020 132 1017 q 150 1022 146 1021 q 157 1024 153 1023 q 180 1023 168 1021 q 205 1023 191 1025 q 216 1017 210 1015 q 225 1017 221 1019 l 240 1009 q 262 1004 256 1006 q 273 998 267 997 q 282 994 279 998 q 289 985 283 985 q 294 982 294 986 q 311 964 307 968 q 309 954 315 959 q 323 945 320 947 q 330 941 327 944 q 335 925 336 930 q 336 914 334 920 q 340 892 336 899 l 350 876 q 351 861 349 863 q 354 856 353 860 q 355 831 358 834 q 350 825 353 829 q 353 815 350 818 q 355 806 355 812 q 353 793 353 793 q 351 789 353 792 q 342 777 346 784 q 331 765 338 770 q 327 749 328 751 q 324 742 326 746 q 311 726 316 728 q 304 716 308 720 q 298 707 301 712 l 288 694 q 273 682 279 684 q 265 676 269 675 q 258 677 262 677 q 251 671 254 674 q 243 665 248 667 q 233 658 233 659 q 231 655 232 656 q 224 650 227 652 q 218 646 221 647 q 208 640 208 642 q 205 637 208 639 q 192 628 193 632 q 189 621 191 624 q 182 617 186 618 q 174 613 178 616 q 156 589 160 593 q 151 581 155 582 q 144 572 146 579 q 145 560 148 562 q 141 555 142 559 q 142 543 148 544 q 133 536 136 541 q 155 534 151 530 q 166 533 159 532 q 176 530 174 534 q 191 536 180 533 q 207 532 205 530 q 214 534 209 534 q 224 528 221 526 q 229 530 227 529 q 237 531 233 529 q 244 532 240 533 q 252 534 248 533 q 259 537 255 536 q 263 544 262 540 q 267 551 264 548 q 288 555 282 552 q 300 568 294 564 q 312 578 307 572 q 330 587 327 586 q 336 590 334 587 q 338 600 334 597 q 349 601 342 604 q 357 616 354 614 q 362 621 359 618 q 373 627 370 624 q 378 633 376 631 l 392 637 z "},"":{"ha":289,"x_min":-35,"x_max":228,"o":"m 218 895 q 225 865 222 875 q 221 848 228 854 q 205 837 205 846 q 206 817 205 827 q 202 800 202 808 q 198 783 202 792 q 203 768 199 774 q 201 742 201 747 q 202 728 198 730 q 208 724 206 727 q 201 703 209 711 q 208 685 209 689 q 206 675 208 681 q 212 657 209 665 q 217 639 214 650 q 210 627 216 631 q 199 617 205 624 q 196 607 197 612 q 191 600 195 602 q 180 606 184 601 q 170 613 176 610 q 162 600 163 608 q 155 590 161 593 q 149 596 149 591 q 148 606 149 601 q 127 608 129 604 q 122 614 126 612 q 110 605 115 612 q 96 598 104 598 q 90 602 92 600 q 80 605 87 604 q 73 600 75 604 q 65 597 72 595 q 67 608 64 605 q 72 614 71 610 q 83 629 81 621 q 85 644 84 636 q 79 651 83 650 q 72 656 75 652 q 78 673 72 667 q 88 686 84 678 q 79 717 76 704 q 88 738 81 730 q 81 760 84 755 q 79 770 79 764 q 79 784 77 781 q 83 791 80 787 q 78 819 80 810 q 79 838 76 827 q 64 869 66 857 q 68 891 62 882 q 60 911 64 902 q 58 930 56 920 q 55 940 57 936 q 50 948 53 944 q 35 954 43 948 q 24 970 28 968 q 18 974 20 971 q 7 979 9 982 q -3 979 4 977 q -22 981 -14 983 q -35 986 -31 979 q -30 996 -34 993 q -23 1004 -26 1000 q 0 1004 -9 1004 q 12 1002 8 1001 q 18 1004 15 1004 q 28 1000 23 1002 q 37 997 33 997 q 47 1002 43 1000 q 58 1008 52 1005 q 75 1008 69 1004 q 82 1005 79 1006 q 91 1006 85 1004 q 98 1004 95 1002 q 107 1008 102 1006 q 125 1008 118 1006 q 138 1015 132 1010 q 146 1011 148 1015 q 149 1002 145 1008 q 172 1011 168 1008 q 182 1015 175 1015 q 205 1012 189 1008 q 210 994 214 998 q 203 986 206 990 q 210 978 208 982 q 212 966 213 974 q 207 959 210 962 q 199 952 203 956 q 202 932 197 940 q 203 914 208 925 q 218 895 206 905 m 205 35 q 216 32 209 33 q 218 22 222 31 q 210 9 206 14 q 212 -3 213 4 q 202 -5 209 -5 q 193 -8 195 -5 q 185 -5 189 -7 q 176 -4 182 -4 q 169 6 170 -1 q 163 16 168 14 q 149 9 155 15 q 136 1 144 4 q 95 -1 110 -8 q 76 1 81 8 q 60 -7 71 -5 q 42 1 46 1 q 34 3 38 0 q 14 6 19 8 q 1 4 8 4 q -9 -1 -3 1 q -18 4 -15 -3 q 4 20 0 15 q 18 24 11 22 q 33 31 26 26 q 49 51 42 47 q 66 54 56 54 q 72 75 66 73 q 80 81 77 77 q 83 95 80 90 q 85 109 85 100 q 79 119 83 115 q 72 127 75 122 q 75 148 71 138 q 76 171 79 157 q 72 184 75 178 q 76 197 69 190 q 87 210 90 206 q 84 216 84 213 q 84 252 88 233 q 73 282 80 270 q 77 305 77 304 q 79 320 79 311 q 79 338 81 336 q 76 345 77 340 q 81 353 79 350 q 84 363 83 357 q 79 369 81 366 q 75 377 77 372 q 74 385 77 382 q 72 392 71 388 q 88 398 83 395 q 98 406 94 401 q 119 404 118 400 q 127 407 119 408 q 147 408 148 406 q 156 407 146 411 q 167 394 160 395 q 176 387 174 393 q 191 395 183 392 q 205 403 198 397 q 208 383 214 392 q 208 362 202 374 q 209 339 212 345 q 205 324 206 334 q 210 314 208 317 q 216 305 213 311 q 211 283 213 296 q 209 258 209 271 q 210 250 209 254 q 210 241 210 245 q 208 233 210 237 q 206 227 206 229 q 213 191 214 201 q 213 170 212 180 q 217 163 214 165 q 220 153 220 160 q 212 140 217 145 q 203 127 208 134 q 212 99 198 109 q 209 67 214 84 q 205 35 203 50 z "},"":{"ha":465,"x_min":0,"x_max":496,"o":"m 490 498 q 491 484 486 490 q 490 471 496 477 q 476 471 477 473 q 471 469 475 469 q 448 473 460 472 q 425 480 435 475 q 418 471 422 476 q 407 471 414 465 q 392 473 392 465 q 385 477 389 476 q 378 480 381 477 q 368 477 373 479 q 357 477 363 475 q 341 472 342 471 q 338 472 340 473 q 321 469 330 471 q 305 469 313 468 q 293 483 296 476 q 269 472 281 479 q 258 473 262 471 q 252 477 255 475 q 234 477 236 479 q 229 473 232 475 q 218 474 218 476 q 214 472 217 472 q 195 467 201 471 q 179 463 190 463 q 155 471 164 463 q 138 473 144 476 q 125 475 132 471 q 118 472 121 473 q 110 471 115 471 q 92 475 95 477 q 84 469 90 472 q 43 481 50 465 q 19 477 33 477 q 3 479 5 473 q 7 513 3 500 q 1 530 1 526 q 1 540 0 534 q 4 553 8 551 q 1 564 0 556 q 6 571 4 568 q 7 579 8 574 q 14 585 9 583 q 22 591 19 587 q 40 594 37 590 q 50 601 43 598 q 75 591 64 587 q 96 597 85 594 q 103 592 102 595 q 107 585 104 589 q 121 589 114 586 q 137 589 129 593 q 156 591 153 593 q 161 587 159 590 q 190 594 180 593 q 209 593 199 595 q 222 587 221 585 q 227 590 224 590 q 238 589 233 590 q 250 586 243 587 q 297 591 271 597 q 315 587 304 587 q 336 586 326 586 q 355 593 346 591 q 363 599 359 595 q 372 600 366 602 q 385 589 378 585 q 397 593 391 593 q 418 587 412 589 q 430 585 425 586 q 450 589 448 590 q 472 586 463 595 q 481 583 480 587 q 486 575 483 579 q 484 547 483 556 q 480 534 484 538 q 484 520 486 522 q 481 515 483 518 q 486 501 483 502 q 490 498 488 500 z "},"":{"ha":486,"x_min":-7,"x_max":494,"o":"m 483 667 q 494 650 494 654 q 476 643 479 646 q 469 624 465 636 q 460 619 467 618 q 448 620 454 620 q 425 608 434 606 q 412 601 416 609 q 408 587 411 589 q 401 583 406 586 q 394 574 399 578 q 388 564 389 571 q 366 547 377 555 q 347 529 354 540 q 363 511 359 514 q 369 505 366 507 q 404 483 395 496 q 410 460 407 465 q 418 448 414 454 q 436 447 426 448 q 450 439 446 446 q 460 440 456 439 q 468 437 465 441 q 472 421 471 426 q 476 411 473 416 q 484 399 488 403 q 477 393 480 396 q 475 384 475 389 q 472 373 475 378 q 458 372 467 368 q 446 370 450 376 q 444 346 452 354 q 433 338 433 339 q 430 336 433 338 q 446 320 430 324 q 449 305 450 312 q 456 293 452 298 q 461 281 461 288 q 456 267 458 274 q 450 252 453 259 q 453 239 449 245 q 454 225 457 233 q 444 226 445 224 q 438 229 444 228 q 428 243 433 236 q 414 255 423 250 q 410 271 414 267 q 401 273 404 274 q 392 275 397 273 q 393 288 392 282 q 393 300 395 293 q 377 312 381 307 q 369 324 373 317 q 358 334 363 330 q 353 347 353 338 q 336 364 340 361 q 327 372 332 368 q 312 395 312 381 q 301 399 307 397 q 289 400 296 400 q 275 416 279 414 q 270 425 271 418 q 264 422 266 426 q 255 419 262 418 q 250 427 250 423 q 251 435 250 431 q 241 428 244 433 q 233 419 237 423 q 222 413 228 416 q 213 406 217 410 q 193 390 198 396 q 183 374 187 384 q 181 366 183 369 q 178 359 179 363 q 144 323 159 346 q 137 317 140 320 q 132 311 134 313 q 125 290 127 305 q 119 288 126 286 q 109 296 113 290 q 95 310 98 305 q 90 319 92 315 q 83 328 87 324 q 72 331 80 331 q 62 349 65 336 q 50 347 56 351 q 37 340 43 342 q 24 350 27 343 q 19 363 22 357 q 3 391 9 373 q 16 407 12 406 q 38 412 33 407 q 46 425 43 416 q 64 446 60 434 q 83 454 73 450 q 99 465 94 458 q 125 494 117 476 q 125 507 121 506 q 132 510 129 507 q 149 524 145 521 q 155 532 152 526 q 143 547 149 544 q 136 557 137 549 q 127 560 130 559 q 118 563 123 562 q 111 572 115 568 q 104 582 107 576 q 84 605 91 590 q 63 618 73 612 q 46 635 53 624 q 37 652 43 651 q 27 655 31 652 q 11 667 16 667 q -1 682 5 682 q -7 686 -7 681 q -1 692 -5 690 q 7 694 3 693 q 34 712 16 707 q 60 720 49 712 q 68 732 68 731 q 69 736 69 734 q 92 753 81 743 q 122 761 102 762 q 136 747 136 747 q 150 740 145 747 q 149 726 155 732 q 157 718 152 722 q 160 708 163 715 q 170 702 164 704 q 180 697 175 700 q 189 686 184 692 q 199 675 194 681 q 208 675 205 674 q 216 677 212 677 q 231 667 227 667 q 239 665 236 667 q 246 652 241 658 q 255 639 251 646 q 259 646 258 642 q 266 652 260 650 q 273 647 273 652 q 277 639 273 642 q 281 643 279 637 q 283 652 282 648 q 302 669 297 666 q 312 675 307 673 q 327 689 321 681 q 335 711 334 700 q 354 718 340 715 q 361 728 357 724 q 370 736 366 731 q 371 751 372 749 q 372 757 370 754 q 384 758 377 760 q 389 753 391 755 q 399 749 396 749 q 406 742 401 750 q 416 730 412 728 q 427 730 420 731 q 433 724 431 728 q 439 719 434 720 q 451 713 446 712 q 458 712 456 713 q 461 690 465 704 q 467 677 463 682 q 475 665 472 673 l 483 667 z "}," ":{"ha":442,"x_min":0,"x_max":0,"o":""},"!":{"ha":294,"x_min":5,"x_max":281,"o":"m 269 326 q 275 316 271 319 q 281 308 278 313 q 266 271 278 281 q 269 252 266 263 q 269 241 267 247 q 266 233 271 236 q 255 241 258 241 q 250 243 252 241 q 243 237 244 240 q 236 232 241 233 q 224 234 229 231 q 214 240 220 237 q 199 237 208 248 q 180 227 190 225 q 156 229 161 232 q 141 227 151 227 q 121 227 127 229 q 109 229 115 225 q 95 222 102 228 q 80 224 88 217 q 87 231 83 229 q 95 237 92 233 q 100 261 92 255 q 111 277 107 267 q 96 279 104 279 q 85 283 88 278 q 94 302 88 294 q 103 323 100 311 q 102 340 103 335 q 107 361 102 350 q 115 384 110 374 q 112 401 113 392 q 110 419 111 410 q 111 437 111 427 q 114 453 111 446 q 110 485 115 471 q 98 510 104 499 q 98 532 95 522 q 103 552 102 541 q 104 572 100 563 q 104 591 107 581 q 101 612 99 609 q 103 623 103 616 q 101 642 99 633 q 109 658 103 650 q 106 676 106 667 q 109 693 107 685 q 102 701 106 699 q 96 707 99 703 q 98 723 94 715 q 106 738 102 731 q 98 755 103 745 q 95 779 92 765 q 94 793 96 791 q 91 800 92 796 q 92 821 88 810 q 99 838 96 831 q 99 861 96 856 q 104 872 102 867 q 99 885 103 880 q 96 901 95 890 q 89 909 94 906 q 81 918 84 913 q 81 932 84 928 q 76 943 77 936 q 64 947 68 941 q 65 960 61 954 q 47 962 50 964 q 39 962 45 960 q 28 969 33 964 q 19 979 23 974 q 14 994 5 989 q 32 993 23 991 q 52 993 41 994 q 71 988 64 985 q 85 989 77 991 q 100 997 92 991 q 123 994 118 996 q 132 994 127 993 q 144 1000 138 997 q 157 1002 149 1004 q 166 1008 163 1005 q 176 1010 170 1010 q 179 996 180 1000 q 176 989 178 993 q 185 990 182 986 q 193 996 189 994 q 212 1004 201 1001 q 232 1003 228 1000 q 245 1005 236 1006 q 267 993 262 996 q 262 980 266 979 q 256 978 259 981 q 260 958 263 962 q 255 948 258 955 q 266 921 258 932 q 265 907 263 909 q 269 903 267 906 q 268 890 271 895 q 262 882 264 886 q 258 859 258 871 q 262 837 259 848 q 260 829 262 833 q 256 822 258 825 q 260 810 260 817 q 258 798 259 804 q 262 791 259 795 q 264 784 264 788 q 264 767 266 774 q 263 753 263 760 q 266 737 263 745 q 266 719 269 730 q 269 711 266 715 q 271 704 271 708 q 271 694 273 699 q 267 686 269 690 q 269 673 270 681 q 270 659 269 666 q 280 640 281 644 q 279 631 279 636 q 269 609 270 617 q 264 595 267 601 q 267 572 264 583 q 266 551 269 562 q 267 543 266 545 q 270 534 269 540 q 262 515 269 524 q 264 496 256 506 q 272 478 275 487 q 266 460 269 469 q 263 406 270 433 q 262 392 266 393 q 259 387 259 391 q 267 328 271 366 l 269 326 m 254 159 q 254 149 255 155 q 254 137 254 142 q 272 98 266 122 q 271 50 278 75 q 248 26 255 33 q 235 15 241 20 q 225 1 231 8 q 212 -9 220 -5 q 187 -5 198 -9 q 165 -5 176 0 q 118 7 142 3 q 110 16 114 11 q 100 23 106 20 q 88 45 92 34 q 85 56 88 54 q 81 60 83 57 q 87 67 84 64 q 94 75 91 71 q 97 98 94 88 q 102 119 100 107 q 107 127 104 123 q 111 137 110 130 q 136 151 127 148 q 151 161 144 155 q 170 163 165 161 q 182 167 175 165 q 204 164 199 165 q 213 161 209 163 q 227 161 221 160 q 240 164 233 163 l 254 159 z "},"\"":{"ha":418,"x_min":53,"x_max":362,"o":"m 227 994 q 218 993 221 996 q 210 993 214 990 q 211 1006 206 1001 q 218 1016 216 1010 q 241 1024 228 1021 q 248 1022 244 1021 q 256 1023 252 1023 q 264 1019 262 1021 q 273 1017 267 1017 q 313 1023 297 1021 q 336 1012 330 1025 q 362 1002 361 1012 q 353 992 358 996 q 345 982 347 989 q 347 966 350 968 q 340 960 343 963 l 342 929 q 346 918 345 924 q 349 905 347 911 q 344 897 347 899 q 338 890 340 894 q 347 880 340 883 q 351 867 354 878 q 340 859 339 861 q 340 853 340 856 q 339 844 340 848 q 336 834 338 840 q 338 803 336 812 q 345 788 339 793 q 346 779 345 781 q 349 773 347 776 q 338 754 350 757 q 306 762 317 761 q 288 769 294 762 q 271 767 278 770 q 256 768 264 764 q 241 758 250 766 q 234 753 236 757 q 227 750 232 750 q 219 768 218 755 q 222 792 220 780 q 220 817 220 810 q 224 831 221 825 q 230 838 227 836 q 233 849 233 841 q 227 855 232 854 q 220 863 221 856 q 224 871 221 869 q 229 876 228 872 q 228 894 229 890 q 223 916 218 911 q 229 926 228 920 l 229 948 q 227 964 229 963 q 221 968 224 966 q 223 982 220 978 q 227 994 227 986 m 186 749 q 172 749 174 745 q 163 757 170 754 q 142 762 151 754 q 127 760 134 755 q 117 772 121 765 q 107 765 111 769 q 96 765 103 761 q 81 753 85 761 q 65 742 76 745 q 63 766 56 760 q 68 784 71 773 q 74 792 71 788 q 80 802 77 796 q 72 814 75 812 q 69 821 69 817 q 73 857 72 846 q 73 880 75 868 q 68 898 69 894 q 68 907 68 902 q 68 924 72 922 q 60 928 64 925 q 57 949 54 945 q 62 956 60 952 q 61 977 58 974 q 66 983 64 979 q 58 990 64 989 q 54 1000 53 991 q 60 1008 57 1005 q 62 1019 62 1010 q 73 1023 68 1021 q 85 1024 77 1025 q 98 1029 92 1027 q 111 1034 104 1031 q 127 1029 122 1029 q 146 1025 136 1025 q 170 1019 163 1019 q 181 1023 176 1020 q 194 1024 186 1027 q 197 1013 199 1019 q 190 1004 195 1006 q 186 989 190 996 q 180 977 183 983 q 183 965 182 971 q 182 954 184 959 q 185 925 191 932 q 175 910 179 918 q 182 900 178 905 q 186 887 186 895 q 184 878 186 882 q 180 868 182 873 q 180 848 184 852 q 181 829 180 837 q 183 812 182 822 q 186 785 189 803 q 182 768 180 770 q 184 764 184 766 q 184 757 183 760 q 186 749 186 754 z "},"#":{"ha":872,"x_min":-7,"x_max":872,"o":"m 872 715 q 871 705 871 711 q 868 697 871 700 q 869 682 872 684 q 863 678 865 681 q 865 661 865 670 q 860 646 864 651 q 860 628 863 633 q 863 614 863 621 q 863 600 863 606 q 849 593 860 591 q 830 585 836 587 q 812 589 817 586 q 804 594 807 591 q 780 587 785 590 q 766 581 774 583 q 760 586 764 583 q 750 586 757 589 q 739 594 743 589 q 728 604 735 600 q 722 593 719 594 q 722 589 724 591 q 716 579 720 582 q 708 572 712 576 q 705 557 708 559 q 699 553 701 556 q 697 530 700 533 q 700 505 697 515 q 700 480 703 494 q 692 468 693 469 q 690 464 690 467 q 681 452 684 458 q 674 439 678 446 q 677 429 675 433 q 680 420 678 426 q 670 408 678 414 q 684 410 677 406 q 694 407 690 414 q 703 393 697 391 q 715 396 708 396 q 734 397 728 396 q 757 399 747 400 q 776 397 766 399 q 787 399 781 399 q 796 395 793 399 q 786 374 791 376 q 779 369 781 373 q 781 359 781 365 q 779 350 780 354 q 781 327 785 331 q 776 316 777 323 q 779 304 779 309 q 783 293 780 300 q 770 281 777 286 q 755 279 764 275 q 747 283 753 282 q 735 281 741 283 q 724 281 730 282 q 712 278 718 279 q 702 277 707 277 q 693 282 697 277 q 675 277 675 274 q 671 281 674 279 q 652 274 658 275 q 645 264 647 271 q 635 259 643 258 q 636 249 633 252 q 642 241 639 245 q 636 234 640 236 q 628 229 632 232 q 620 197 631 212 q 612 181 617 183 q 605 175 608 179 q 606 146 608 153 q 601 132 604 138 q 602 108 602 119 q 597 85 601 96 q 587 60 594 69 q 576 63 576 61 q 572 68 575 65 q 547 73 566 73 q 533 79 534 81 q 528 76 532 76 q 517 68 522 72 q 505 66 513 64 q 498 46 494 60 q 486 37 492 38 q 479 24 481 31 q 471 12 477 16 q 456 10 464 11 q 442 8 449 9 q 431 -1 434 5 q 420 -9 429 -7 q 414 1 412 -1 q 415 7 416 3 q 421 22 418 14 q 425 41 425 30 q 431 45 427 43 q 437 52 435 47 q 433 60 435 57 q 429 71 430 64 q 441 75 435 73 q 452 80 448 77 l 452 96 q 452 104 450 102 q 453 113 453 107 q 458 118 456 115 q 464 125 461 121 q 465 160 475 142 q 469 170 467 167 q 473 180 472 174 q 473 190 472 187 q 476 199 473 193 q 475 214 473 213 q 480 217 477 214 q 484 230 480 224 q 486 243 488 236 q 490 250 487 247 q 491 259 494 254 q 502 271 499 267 q 491 273 498 274 q 479 273 484 271 q 467 275 469 277 q 463 273 465 274 q 448 273 456 273 q 433 273 441 274 q 423 268 426 271 q 414 263 420 264 q 408 269 408 264 q 410 279 408 274 q 395 279 397 279 q 389 281 392 279 q 380 279 384 279 q 369 278 376 278 q 344 277 349 281 q 332 270 339 273 q 311 270 317 270 q 300 258 313 260 q 296 233 297 245 q 286 216 296 221 q 289 205 286 209 q 292 194 292 201 q 284 171 283 178 q 283 156 285 164 q 267 133 269 142 q 266 109 275 110 q 265 98 263 102 q 270 91 267 94 q 262 77 269 81 q 251 81 255 79 q 241 81 247 84 q 218 87 224 90 q 206 83 213 84 q 183 72 187 75 q 175 65 179 69 q 167 58 171 61 q 155 57 163 56 q 148 35 145 52 q 136 26 145 27 q 130 13 132 20 q 122 3 129 5 q 108 1 115 1 q 94 -3 100 0 q 81 -11 84 -5 q 71 -19 79 -16 q 66 -10 64 -12 q 66 -3 68 -8 q 73 12 69 4 q 76 31 76 20 q 88 42 85 35 q 85 51 88 47 q 81 61 81 54 q 94 66 88 64 q 106 71 100 68 q 117 96 111 91 q 114 109 111 107 q 117 118 117 111 q 123 127 121 122 q 129 140 126 133 q 132 155 130 148 q 134 168 133 161 q 140 205 137 190 q 150 218 146 210 q 160 228 153 225 q 158 245 156 243 q 161 251 160 247 q 157 269 156 267 q 160 275 159 271 q 143 279 153 281 q 129 283 133 277 q 110 278 111 275 q 103 278 109 281 q 84 280 85 278 q 80 282 83 282 q 68 282 73 283 q 57 279 62 281 q 40 281 45 283 q 31 277 35 279 q 8 273 18 277 q -3 293 -3 279 q 1 300 0 297 q 5 307 3 302 q 0 315 4 313 q -7 321 -4 317 q -3 338 -1 336 q -5 342 -5 339 q -3 355 -4 349 q -4 368 -1 361 q 1 383 3 382 q -1 387 -1 384 q 16 400 12 396 q 26 401 19 404 q 39 391 34 387 q 50 393 43 396 q 58 398 54 396 q 69 399 62 400 q 90 397 83 393 q 103 403 96 400 q 121 393 114 403 q 136 399 127 397 q 152 393 145 400 q 193 401 170 399 q 196 417 197 408 q 197 435 195 426 q 210 463 208 453 q 213 487 213 473 q 216 503 213 500 q 221 511 220 506 q 218 524 222 518 q 214 536 214 529 q 220 543 216 540 q 228 551 225 545 q 233 565 231 562 q 236 575 235 568 q 230 589 227 587 q 236 595 233 591 q 223 597 231 598 q 209 597 216 595 q 201 600 206 597 q 194 602 197 602 q 174 596 180 602 q 157 589 168 590 q 137 598 142 591 q 124 599 130 601 q 111 600 118 597 q 100 596 104 598 q 90 593 96 594 q 73 591 77 587 q 81 606 75 601 q 83 621 87 610 q 87 627 84 625 q 91 635 91 629 q 90 654 88 652 q 92 661 91 656 q 88 667 91 663 q 88 677 85 671 q 79 679 84 678 q 76 686 75 680 q 81 692 77 690 q 85 699 84 693 q 94 713 84 716 q 109 709 103 711 q 126 705 126 715 q 144 709 138 704 q 161 713 151 713 q 170 719 167 715 q 180 720 174 723 q 182 711 183 716 q 184 703 182 705 q 201 705 193 703 q 216 711 209 708 q 234 712 227 708 q 248 720 241 716 q 257 715 255 719 q 267 712 259 711 q 269 731 271 726 q 266 742 266 736 q 275 758 271 750 q 282 776 279 765 q 278 785 283 783 q 273 791 273 787 q 290 817 278 807 q 297 850 301 827 q 296 867 301 865 q 290 878 290 869 q 300 890 294 884 q 311 903 305 895 q 313 913 311 910 q 316 922 315 917 q 311 935 317 933 q 305 948 304 937 q 315 957 309 955 q 328 962 321 959 q 332 968 332 964 q 330 977 332 972 q 328 986 328 982 q 332 993 328 990 q 347 985 338 990 q 363 981 357 981 q 379 979 374 974 q 389 987 384 983 q 403 978 400 989 q 415 981 410 978 q 429 985 420 985 q 446 981 437 978 q 463 983 456 985 q 475 969 472 971 q 479 962 477 967 q 475 956 476 960 q 472 948 473 952 q 469 930 469 940 q 460 917 465 924 q 454 898 456 910 q 454 890 453 892 q 456 883 456 887 q 448 869 453 875 q 439 858 444 864 q 432 844 435 852 q 431 825 429 837 q 435 808 429 810 q 441 796 441 806 q 431 785 437 789 q 420 772 425 780 q 418 762 419 765 q 414 753 416 758 q 414 739 412 742 q 415 727 416 735 q 412 716 412 722 q 404 708 411 711 q 413 710 407 708 q 422 713 419 712 q 437 716 429 716 q 453 719 446 716 q 465 710 465 713 q 464 704 464 707 q 506 712 492 705 q 536 716 519 719 q 551 712 548 709 q 574 715 570 711 q 589 719 579 719 q 609 746 600 727 q 625 784 618 765 q 625 806 628 799 q 624 826 623 814 q 629 841 627 833 q 633 857 631 849 q 644 864 637 861 q 652 873 650 867 q 649 882 651 879 q 647 891 647 886 q 650 899 647 898 q 654 905 652 901 q 657 931 652 928 q 665 943 662 935 q 663 951 667 949 q 661 959 659 952 q 669 983 670 978 q 675 985 669 987 q 689 982 678 982 q 701 979 700 982 q 723 983 711 986 q 732 960 735 979 q 747 959 742 958 q 755 962 751 960 q 764 967 760 964 q 777 970 769 970 q 799 956 789 963 q 803 947 802 951 q 808 941 804 943 q 806 927 811 932 q 803 911 802 922 q 787 901 795 906 q 773 887 779 897 q 781 883 776 884 q 787 878 785 882 q 783 868 784 872 q 780 860 783 864 q 779 825 784 834 q 769 810 774 817 q 767 787 770 799 q 760 764 764 776 q 751 743 755 753 q 749 724 747 732 q 770 722 761 718 q 792 724 779 727 q 806 717 802 715 q 816 721 811 719 q 825 723 821 723 q 833 719 829 723 q 856 726 842 724 q 872 715 869 727 m 576 589 q 570 595 571 593 q 564 600 568 598 q 552 598 557 598 q 543 601 547 598 q 532 597 537 600 q 521 595 528 595 q 511 602 511 600 q 509 606 511 605 q 481 604 494 605 q 457 601 468 604 q 442 617 442 606 q 427 614 433 617 q 415 606 420 610 q 404 600 410 602 q 391 602 399 598 q 381 581 389 589 q 369 563 373 574 q 370 555 369 559 q 373 545 372 552 q 367 530 372 536 q 362 515 362 525 q 357 505 359 511 q 353 495 355 499 q 350 458 351 476 q 345 425 349 439 q 337 414 339 420 q 332 401 335 408 q 340 402 336 401 q 349 403 345 403 l 369 397 q 376 395 373 396 q 385 392 380 393 q 393 393 389 393 q 400 391 396 392 q 446 395 429 391 q 479 403 463 399 q 491 399 490 401 q 495 395 492 396 q 508 393 502 393 q 521 393 514 392 q 526 405 525 397 q 528 419 526 412 q 534 433 530 426 q 541 446 537 441 q 547 458 543 454 q 553 468 551 461 q 553 475 553 471 q 552 483 552 479 q 559 490 555 487 q 566 500 563 494 q 562 518 559 509 q 564 538 564 528 q 569 545 566 543 q 572 553 572 547 q 571 573 568 570 q 576 583 574 576 l 576 589 z "},"$":{"ha":506,"x_min":-7,"x_max":506,"o":"m 505 387 q 506 365 506 369 q 502 347 506 351 q 485 321 494 332 q 484 300 476 311 q 483 290 483 296 q 481 281 483 285 q 468 271 472 273 q 461 266 464 269 q 451 249 456 251 q 444 241 446 247 q 439 219 444 224 q 427 212 434 214 q 422 198 426 202 q 416 187 419 194 q 397 180 400 179 q 392 179 395 180 q 384 164 384 164 q 365 160 369 167 q 354 148 361 153 q 340 145 343 148 q 332 142 338 142 q 323 126 328 134 q 297 125 308 125 q 281 114 283 119 l 283 99 l 270 92 q 264 64 264 71 q 266 46 267 50 l 251 37 q 250 18 255 23 q 248 -3 245 -1 q 251 -11 250 -5 q 248 -22 254 -20 q 236 -23 241 -24 q 236 -32 233 -26 q 237 -42 239 -38 q 232 -70 232 -60 q 225 -84 232 -80 q 224 -96 225 -91 q 225 -107 224 -100 q 218 -124 220 -114 q 214 -141 217 -134 q 212 -152 212 -146 q 210 -159 213 -157 q 205 -150 205 -152 q 205 -142 206 -148 q 208 -123 209 -136 q 208 -98 208 -110 q 204 -72 203 -79 q 205 -58 205 -65 q 197 -34 201 -37 q 191 -24 194 -31 q 194 -5 193 -8 q 197 1 195 -1 q 195 16 194 8 q 197 30 197 23 q 191 41 193 37 q 190 49 190 46 q 189 58 190 56 q 189 64 189 61 q 180 92 180 75 l 180 107 q 175 113 179 111 q 170 118 171 114 q 180 140 174 132 q 167 157 168 151 q 163 165 165 163 q 135 167 138 160 q 127 179 132 174 q 100 189 109 189 q 83 193 92 190 q 64 212 68 206 q 56 224 60 217 q 43 237 42 232 q 46 250 45 243 q 37 254 41 251 q 30 262 34 258 q 18 283 22 279 q 15 294 15 288 q 1 309 9 298 q -2 320 0 311 q -7 331 -4 330 q -1 340 -4 336 q 4 347 1 343 q 26 359 22 355 q 38 363 30 362 l 53 378 q 69 392 58 391 q 80 400 75 396 q 94 407 85 404 q 103 423 96 420 q 114 438 106 434 q 116 452 115 445 q 123 463 117 460 q 128 456 129 461 q 130 446 127 450 l 130 431 q 134 415 136 416 q 132 411 133 414 q 134 402 132 406 q 136 395 136 399 q 143 369 138 374 q 151 357 148 363 q 150 332 153 336 q 144 321 146 328 q 151 315 144 316 q 160 311 159 313 q 165 296 161 298 q 170 290 168 294 q 186 273 180 279 q 199 259 193 266 q 210 259 206 262 q 216 254 213 256 q 224 256 221 254 q 235 258 228 258 q 255 243 250 250 q 276 250 271 248 q 288 251 281 251 q 299 260 296 254 q 305 274 302 266 q 312 278 309 275 q 321 282 315 281 q 329 300 330 286 q 332 323 328 313 q 339 346 343 340 q 342 358 342 351 q 339 370 343 365 q 341 389 339 381 q 343 407 343 397 q 336 420 340 415 q 328 433 331 426 q 328 449 330 446 q 324 454 327 452 q 313 460 316 456 q 302 467 309 464 q 283 473 286 469 q 278 480 281 476 q 254 495 258 476 q 231 502 235 495 q 211 505 218 500 q 195 514 203 510 q 183 515 189 513 q 171 518 178 518 q 161 530 164 529 q 156 533 159 532 q 125 541 134 537 q 110 552 117 545 q 91 559 98 559 q 80 564 84 560 q 57 602 58 585 q 42 616 42 606 q 33 628 33 627 q 34 632 34 629 q 22 668 22 652 q 22 699 22 684 q 24 711 26 709 q 22 715 23 712 q 21 722 22 718 q 23 730 20 727 q 31 773 20 762 q 43 798 38 791 q 54 811 47 804 q 57 823 54 818 q 60 836 60 829 q 69 848 66 838 q 87 860 80 850 q 104 873 94 869 q 120 874 115 872 q 129 879 125 876 q 141 889 136 883 q 155 899 146 895 q 170 901 164 897 q 182 907 175 905 q 182 920 184 918 q 179 924 179 921 q 186 937 187 936 q 184 940 184 937 q 174 954 172 947 q 178 964 175 960 q 174 976 171 975 q 178 979 176 977 q 165 991 163 990 q 171 996 168 993 q 165 1009 164 998 q 176 1017 165 1020 q 192 1008 184 1006 q 206 1005 199 1009 q 216 1008 212 1006 q 227 1006 220 1009 q 259 1008 248 1002 q 286 1009 270 1015 q 313 1005 298 1008 q 307 983 317 991 q 305 973 307 977 q 305 962 304 970 q 307 939 313 943 q 313 928 312 935 q 313 911 313 921 q 323 897 324 901 q 326 891 323 894 q 337 891 331 890 q 346 886 343 892 q 367 871 357 872 q 385 867 377 871 q 393 862 388 864 q 400 857 397 860 q 419 841 414 849 q 424 824 420 829 q 433 817 427 819 q 442 803 438 804 q 449 799 446 802 q 454 789 450 795 q 460 780 458 784 q 449 764 456 770 q 427 751 431 755 q 415 747 423 747 q 401 734 410 739 q 384 719 396 720 q 363 705 377 712 q 350 688 354 688 q 345 667 350 682 q 330 648 339 651 q 327 665 326 650 q 327 684 328 680 q 323 703 326 700 q 321 709 321 705 q 317 728 317 723 q 316 736 316 732 q 308 755 309 750 q 309 768 312 768 q 307 772 307 769 q 290 778 296 779 q 283 783 283 777 q 277 786 281 785 q 270 789 273 787 q 246 791 255 791 q 227 791 237 792 q 201 791 208 796 q 184 783 195 785 q 174 764 175 768 q 168 747 165 749 q 172 742 171 745 q 171 732 174 735 q 171 722 168 728 q 163 699 168 703 q 161 686 159 694 q 174 671 171 673 q 179 667 176 670 q 187 652 182 652 q 197 655 193 652 q 201 640 206 646 q 219 644 209 642 q 232 636 229 647 q 251 620 240 623 q 258 621 254 621 q 267 621 263 621 q 291 613 282 616 q 304 605 300 610 q 315 600 313 601 q 320 595 316 598 q 335 593 332 595 q 340 590 338 591 q 353 589 347 590 q 361 586 358 589 q 375 570 369 575 q 388 560 381 566 q 422 547 411 559 q 431 531 429 537 q 438 518 434 525 q 453 511 448 515 q 468 505 458 507 q 479 491 476 496 q 488 475 481 479 q 494 464 494 472 q 489 450 487 453 q 490 445 491 448 q 497 434 494 439 q 503 425 500 429 q 503 416 505 420 q 502 410 502 412 q 505 387 500 399 z "},"%":{"ha":909,"x_min":-7,"x_max":909,"o":"m 909 229 q 904 216 905 218 q 903 210 903 213 q 906 199 907 202 q 903 193 905 195 q 906 178 909 184 q 898 159 905 165 q 899 144 895 152 q 895 132 902 137 q 892 122 895 125 q 888 117 890 119 q 887 100 894 103 q 882 91 880 98 q 872 83 875 84 q 867 79 869 81 q 863 70 867 72 q 857 64 860 68 q 846 56 849 60 q 842 49 844 53 q 830 43 833 45 q 827 38 827 41 q 807 26 808 31 q 792 24 799 23 q 772 16 774 18 q 761 15 769 14 q 747 9 749 11 q 742 8 745 8 q 722 9 723 11 q 718 5 720 7 q 704 8 705 9 q 700 7 703 7 q 666 6 675 5 q 655 14 656 7 q 631 16 636 16 q 612 22 616 23 q 605 23 609 20 q 592 35 594 33 q 585 39 590 37 q 577 47 579 45 q 572 53 575 50 q 565 57 568 54 q 559 62 562 60 q 550 71 552 71 q 547 72 548 71 q 542 80 545 76 q 541 91 538 84 q 530 104 530 95 q 521 119 522 117 q 515 140 521 136 q 508 157 507 152 q 509 170 509 163 q 509 187 509 183 q 511 194 509 191 q 509 202 510 198 q 510 210 507 206 q 505 227 507 224 q 500 244 505 240 q 500 266 503 263 q 507 277 502 273 q 515 285 511 281 q 519 303 517 301 q 524 308 521 305 q 530 330 533 316 q 545 346 541 340 q 557 359 551 355 q 570 368 563 362 q 587 377 582 373 q 594 387 591 381 q 604 395 601 389 q 614 403 608 400 q 627 404 621 404 q 640 406 633 404 q 657 413 654 411 q 667 415 661 415 q 685 415 682 412 q 694 416 688 418 q 715 415 712 414 q 741 418 735 418 q 762 414 755 414 q 772 411 769 414 q 781 406 776 406 q 791 404 785 406 q 810 390 802 393 q 825 381 818 387 q 842 374 841 374 q 845 372 844 374 q 850 357 846 358 q 856 354 853 357 q 868 341 867 342 q 871 339 869 340 q 873 331 872 335 q 875 321 875 327 q 887 309 887 315 q 897 290 891 296 q 903 277 902 285 q 906 264 906 267 q 909 259 906 262 q 907 245 907 251 q 909 236 906 240 l 909 229 m 793 193 q 788 205 785 199 q 792 216 791 212 q 785 232 787 232 q 784 233 784 232 q 787 244 785 243 q 789 248 789 245 q 781 255 783 255 q 777 258 779 255 q 779 275 776 270 q 770 290 770 289 q 769 307 769 305 q 750 327 747 316 q 737 336 742 335 q 730 339 732 336 q 716 344 720 346 q 708 345 712 342 q 696 348 697 349 q 693 347 694 347 q 680 337 684 340 q 671 331 677 334 q 654 312 659 323 q 637 290 642 293 q 633 279 635 281 q 631 274 632 277 q 624 256 627 259 q 624 247 625 250 q 623 241 623 244 q 628 225 631 229 q 625 205 627 209 q 623 199 623 202 q 628 175 628 183 q 629 159 635 168 q 632 138 636 151 q 642 114 643 121 q 650 98 646 100 q 654 92 654 96 q 672 84 670 85 q 675 80 674 83 q 685 79 682 79 q 690 79 688 80 q 715 76 709 77 q 726 80 722 79 q 736 84 731 81 q 743 90 739 88 q 750 94 747 91 q 762 106 754 104 q 768 115 769 109 q 773 122 770 119 q 777 130 776 125 q 779 148 779 144 q 785 157 785 155 q 787 161 784 159 q 783 169 781 164 q 785 176 784 174 l 793 193 m 99 628 q 86 633 90 631 q 77 637 83 636 q 70 646 72 643 q 65 651 68 648 q 52 662 60 654 q 36 680 39 677 q 35 690 33 684 q 23 703 23 699 q 14 719 16 716 q 8 739 14 735 q 1 757 0 751 q 1 768 1 762 q 1 787 1 783 q 4 793 1 791 q 1 802 3 799 q 3 808 0 806 q 0 823 1 822 q -3 826 -1 823 q -7 844 -3 840 q -4 859 -4 857 q -7 864 -4 861 q 0 875 -4 871 q 8 883 4 879 q 7 898 11 891 l 16 913 q 23 919 22 914 q 23 928 24 924 q 39 945 34 936 q 50 959 43 955 q 62 967 56 963 q 80 977 76 972 q 88 985 84 981 q 98 993 95 987 q 107 1001 100 998 q 120 1003 114 1002 q 133 1004 126 1004 q 151 1012 148 1009 q 160 1015 153 1015 q 178 1014 175 1010 q 187 1016 180 1017 q 203 1013 201 1012 q 209 1015 206 1015 q 227 1017 224 1016 q 235 1017 229 1017 q 256 1013 248 1012 q 266 1009 263 1013 q 285 1004 271 1004 q 302 988 294 991 q 317 979 311 985 q 332 978 331 978 q 334 975 334 978 q 336 960 336 968 q 352 949 350 951 q 357 945 354 948 q 366 929 365 933 q 368 921 368 925 q 374 918 370 918 q 381 914 378 917 q 390 888 385 894 q 397 875 395 883 q 399 863 399 865 q 401 859 400 861 q 399 846 400 850 q 401 836 399 841 q 397 819 400 825 q 399 798 400 802 q 396 792 397 795 q 399 777 401 784 q 391 757 399 765 q 392 743 389 750 q 389 731 395 736 q 386 722 388 726 q 382 715 384 718 q 381 699 389 703 q 374 689 373 696 q 359 678 368 684 q 357 670 361 673 q 351 662 353 667 q 339 654 342 658 q 335 648 336 651 q 325 641 327 643 q 321 636 323 639 q 315 634 316 636 q 307 632 313 632 q 285 624 296 624 q 266 615 269 617 q 254 614 263 613 q 239 608 241 610 q 235 606 237 606 q 216 608 217 610 q 212 604 214 605 q 197 608 198 609 q 193 605 195 606 q 159 606 168 605 q 149 614 151 608 q 134 613 142 613 q 118 619 119 620 q 114 620 117 618 q 100 625 98 624 q 99 628 102 627 m 118 817 q 117 804 119 807 q 115 799 115 802 q 121 773 121 784 q 122 757 127 766 q 125 738 129 750 q 134 720 132 723 q 134 712 136 718 q 143 696 138 699 q 148 690 148 694 q 165 683 163 684 q 168 680 167 682 q 178 679 175 678 q 183 680 180 680 q 209 677 202 677 q 220 680 216 678 q 229 684 224 681 q 236 688 232 686 q 243 693 240 690 q 255 705 247 703 q 262 713 263 707 q 271 730 270 724 q 273 747 273 743 q 276 767 275 762 q 279 774 277 772 q 286 793 285 791 q 281 805 278 800 q 285 814 283 810 q 279 824 278 822 q 281 829 281 826 q 281 843 279 841 q 282 848 282 845 q 273 861 271 860 q 275 864 275 861 q 270 880 271 878 q 269 884 269 882 q 267 897 269 895 q 266 901 266 898 q 252 916 252 911 q 239 930 236 928 q 230 934 235 933 q 222 937 225 935 q 210 942 214 944 q 201 943 206 940 q 186 945 187 947 q 173 937 176 940 q 164 930 170 933 q 148 913 153 921 q 138 903 138 905 q 137 902 138 902 q 130 888 134 891 q 123 872 126 880 q 117 856 118 859 q 119 831 118 834 q 119 820 121 821 q 118 817 118 819 m 503 488 q 488 453 500 465 q 487 439 487 446 q 486 425 487 433 q 478 411 481 418 q 469 399 475 404 q 452 359 468 376 q 441 328 445 342 q 430 313 434 320 q 423 296 426 305 q 406 279 406 290 q 400 262 406 269 q 393 239 396 243 q 387 231 389 235 q 374 210 372 216 q 377 195 377 203 q 358 185 362 187 q 351 180 354 183 q 351 170 351 175 q 350 157 351 164 q 344 146 347 152 q 338 134 340 140 q 316 95 326 103 q 303 75 304 85 q 296 60 302 65 q 281 54 282 54 q 284 43 281 47 q 286 30 288 38 q 283 19 283 24 q 278 11 282 14 q 243 16 255 12 q 217 18 231 19 q 209 12 212 15 q 199 8 206 8 q 160 13 175 11 q 138 23 145 15 q 122 18 130 23 q 109 16 110 19 q 102 11 107 12 q 94 17 96 12 q 90 24 92 22 q 100 42 91 35 q 130 52 125 47 q 142 60 136 56 q 157 73 159 69 q 168 85 164 77 q 180 94 171 92 q 186 101 183 98 q 191 111 190 104 q 192 120 193 115 q 191 129 191 125 q 194 140 193 136 q 197 152 195 145 q 210 169 206 159 q 221 189 214 179 q 237 222 231 209 q 252 245 243 236 q 254 259 255 252 q 254 273 252 266 q 260 284 256 279 q 269 294 264 289 q 280 305 275 298 q 285 324 285 312 q 296 345 292 334 q 309 363 301 355 q 309 378 308 376 q 312 385 311 381 q 328 412 321 406 q 342 422 335 418 q 351 433 347 427 q 359 445 355 439 q 363 470 361 464 q 368 483 365 476 q 382 494 376 487 q 387 513 389 502 q 396 530 391 522 q 403 552 401 538 q 404 564 403 559 q 404 576 404 570 q 418 605 412 583 q 433 618 425 612 q 445 635 441 625 q 454 642 452 637 q 464 650 457 647 q 462 664 467 658 q 457 677 457 670 q 465 686 458 684 q 472 697 471 689 q 488 713 484 709 q 495 724 491 718 q 513 774 502 754 q 515 790 513 788 q 519 796 518 792 q 523 813 517 807 q 536 825 529 819 q 543 844 538 841 q 551 852 548 846 q 549 871 544 869 q 555 876 553 872 q 566 897 559 892 q 574 914 574 902 q 581 922 579 917 q 587 929 583 926 q 587 939 585 935 q 593 945 589 943 q 587 950 590 948 q 582 958 583 952 q 589 970 583 967 q 600 978 595 972 q 605 989 602 985 q 612 998 608 993 q 631 1001 623 996 q 651 1001 640 1006 q 677 1008 666 1006 q 701 1010 696 1005 q 713 1012 707 1015 q 720 1005 719 1009 q 727 998 720 1001 q 753 1004 745 1004 q 769 1006 762 1004 q 779 1005 774 1006 q 789 1006 784 1004 q 808 1003 796 1002 q 822 997 819 1004 q 789 979 800 983 q 766 970 779 974 q 758 958 761 964 q 749 949 754 952 q 738 937 743 940 q 732 920 736 921 q 724 914 727 918 q 718 886 724 892 q 704 873 711 880 q 680 840 693 854 q 655 808 667 825 l 655 785 q 653 754 662 762 q 642 739 644 746 q 640 716 644 720 q 631 709 635 712 q 620 693 627 700 q 609 675 613 686 q 597 665 602 670 q 589 651 591 661 q 578 639 582 648 l 578 624 q 567 598 574 609 q 551 578 560 587 q 547 570 548 572 q 543 564 545 567 q 541 555 543 559 q 540 547 540 552 q 534 534 536 541 q 528 524 532 528 q 519 502 526 509 q 503 488 511 495 z "},"&":{"ha":722,"x_min":20,"x_max":716,"o":"m 705 500 q 714 491 712 495 q 713 484 716 487 q 701 478 701 480 q 699 475 700 476 q 698 454 701 458 q 692 442 694 449 q 696 417 697 430 q 688 397 694 404 q 684 384 688 389 q 684 368 681 378 q 685 355 684 358 q 689 349 686 353 q 686 331 690 338 q 675 317 682 324 q 680 296 675 304 q 673 276 678 283 q 665 256 667 269 q 669 236 669 245 q 668 214 673 224 q 659 194 663 203 q 663 184 661 189 q 667 172 665 179 q 662 145 665 159 q 654 121 659 132 q 655 111 658 113 q 651 106 652 109 q 653 98 652 102 q 654 90 654 95 q 650 75 651 83 q 648 61 650 68 q 647 35 650 46 q 642 14 644 24 q 642 -16 644 -8 q 637 -31 639 -23 q 638 -43 639 -38 q 636 -56 637 -49 q 637 -71 636 -64 q 637 -88 639 -79 q 631 -126 635 -114 q 627 -153 632 -140 q 627 -167 628 -164 q 628 -175 627 -170 q 625 -188 625 -182 q 621 -199 624 -194 q 622 -210 621 -205 q 620 -217 623 -214 q 605 -167 608 -187 q 601 -125 602 -146 q 600 -111 601 -114 q 597 -106 598 -109 q 605 -77 597 -90 q 600 -52 600 -66 q 597 -24 600 -38 q 588 11 589 -4 q 590 38 587 26 q 587 52 586 47 q 586 62 587 57 q 585 74 582 73 q 589 77 587 75 q 587 106 586 92 q 590 132 587 119 q 587 149 586 141 q 574 138 579 148 q 577 127 576 133 q 579 115 578 122 q 574 104 578 109 q 571 92 571 99 q 556 84 560 85 q 547 80 552 83 q 546 71 545 76 q 547 60 547 65 q 525 47 538 52 q 515 36 522 42 q 498 33 507 30 q 490 36 492 34 q 484 39 487 38 q 471 28 473 37 q 463 15 469 20 q 452 17 453 12 q 445 23 450 22 q 437 20 441 23 q 431 12 434 16 q 426 5 429 8 q 418 4 423 3 q 401 7 403 5 q 397 11 400 9 q 385 6 389 9 q 369 5 380 3 q 362 1 365 3 q 354 -1 359 0 q 337 -7 340 -1 q 323 -12 334 -14 q 315 -6 317 -9 q 311 0 313 -3 q 290 -1 301 3 q 275 4 279 -4 q 257 7 266 5 q 237 7 248 9 q 233 15 233 9 q 225 20 232 20 q 215 16 217 19 q 206 14 213 14 q 192 25 195 15 q 182 42 189 35 q 169 45 172 49 q 157 42 165 41 q 147 54 149 45 q 141 71 145 62 q 119 65 122 62 q 102 84 121 84 q 98 94 100 90 q 92 101 95 98 q 89 109 90 104 q 91 118 88 113 q 78 122 84 121 q 69 130 72 123 q 69 144 68 140 q 73 152 71 148 q 46 184 57 172 q 44 202 43 193 q 47 218 45 212 q 39 235 43 228 q 30 252 34 243 q 23 276 23 267 q 20 294 23 285 q 26 304 23 300 q 33 312 28 308 q 28 332 27 328 q 30 339 30 335 q 28 347 30 343 q 24 354 26 350 q 30 369 26 363 q 41 380 34 374 q 35 389 38 385 q 31 401 31 393 q 36 412 33 408 q 43 420 39 416 q 46 446 42 441 q 50 460 50 450 q 63 473 60 469 q 71 481 66 477 q 81 492 80 494 q 85 491 83 490 q 94 509 95 505 q 95 515 94 513 q 110 523 103 518 q 126 530 117 528 q 137 539 133 534 q 148 547 141 544 q 167 545 164 541 q 161 551 165 551 q 157 557 157 552 q 164 560 159 562 q 174 560 170 559 q 189 562 179 562 q 200 564 198 564 q 206 563 202 563 q 189 569 191 571 q 183 564 186 567 q 168 578 171 578 q 161 582 164 579 q 157 593 159 587 q 149 602 155 600 q 134 599 136 597 q 132 601 133 601 q 125 621 130 614 q 115 635 119 627 q 102 650 107 640 q 94 670 98 659 q 84 699 91 688 q 88 718 77 711 q 86 740 84 734 q 91 753 88 746 q 87 772 84 762 q 95 791 90 783 q 94 799 92 795 q 95 808 95 803 q 92 818 95 814 q 90 826 90 822 q 92 834 90 831 q 98 842 95 837 q 104 852 99 853 q 111 853 109 850 q 107 869 110 863 q 104 884 104 875 q 113 901 107 895 q 126 913 119 907 q 134 929 127 924 q 151 939 141 935 q 156 959 152 949 q 170 971 160 968 q 178 969 174 970 q 189 971 183 968 q 197 981 193 975 q 208 991 202 987 q 221 996 214 996 q 235 989 228 997 q 248 1000 241 994 q 269 1009 255 1006 q 290 1008 278 1004 q 309 1019 302 1012 q 315 1015 313 1017 q 321 1009 317 1012 q 339 1019 330 1012 q 359 1019 349 1025 q 380 1013 370 1010 q 399 1009 391 1016 q 419 1001 415 1006 q 423 987 423 996 q 436 995 430 989 q 450 1000 442 1001 q 467 981 461 1000 q 479 977 477 981 q 486 971 481 974 q 497 975 492 972 q 509 979 502 977 q 517 973 515 978 q 521 962 518 968 q 537 941 536 955 q 568 924 562 933 q 578 911 575 911 q 581 910 581 911 q 584 896 585 897 q 582 892 583 895 q 571 875 583 880 q 560 853 568 859 q 555 836 559 844 q 548 821 551 829 q 545 806 543 808 q 547 802 547 804 q 543 790 548 793 q 534 783 538 787 q 534 771 533 777 q 536 761 534 765 q 536 749 534 751 q 537 745 537 747 q 525 725 526 731 q 521 715 524 719 q 511 700 513 705 q 505 696 510 694 q 498 705 498 696 q 500 720 499 715 q 488 747 488 736 q 488 770 487 758 q 473 790 475 784 q 471 803 472 796 q 459 807 460 806 q 457 810 458 808 q 459 818 457 815 q 461 826 461 821 q 451 829 454 826 q 442 833 448 831 q 423 845 433 845 q 410 852 416 849 q 396 857 403 854 q 391 863 393 860 q 385 869 388 867 q 366 879 370 872 q 355 881 361 880 q 345 883 350 882 q 332 872 335 872 q 318 877 326 873 q 305 875 311 880 q 297 859 305 859 q 286 853 289 859 q 271 838 286 838 q 262 822 267 825 q 254 817 258 819 q 236 776 247 787 q 225 773 225 777 q 225 765 225 769 q 231 755 227 758 q 237 746 235 751 q 237 729 237 736 q 237 715 236 722 q 244 699 244 704 q 247 692 244 694 q 252 680 247 681 q 259 677 256 680 q 260 663 262 671 q 264 651 259 655 q 272 652 269 651 q 279 651 275 652 q 294 640 293 642 q 296 637 294 639 q 313 638 307 635 q 328 637 320 642 q 337 625 338 628 q 339 623 336 623 q 347 626 345 624 q 355 629 350 628 q 373 632 366 629 q 387 637 380 635 q 402 638 400 636 q 407 643 404 640 q 431 640 427 648 q 422 621 429 628 q 408 602 415 613 q 406 585 414 589 q 409 568 412 570 q 404 563 406 566 q 403 541 408 545 q 395 529 397 536 q 399 515 400 515 q 400 511 399 514 q 395 490 393 499 q 393 476 396 481 q 381 469 381 468 q 378 469 381 469 q 353 466 368 464 q 328 471 339 468 q 322 463 324 468 q 313 454 320 457 q 307 458 308 454 q 301 464 305 461 q 289 457 293 461 q 278 456 285 453 q 267 445 271 444 q 259 448 263 446 q 244 431 250 446 q 236 428 241 427 q 224 427 231 429 q 191 391 210 395 q 193 380 193 387 q 193 369 194 373 q 190 344 190 353 q 187 330 190 335 q 189 302 193 312 q 180 283 184 293 q 193 275 190 274 q 199 274 197 277 q 199 249 203 256 q 195 233 195 241 q 212 230 209 231 q 221 229 216 229 l 231 212 q 239 206 235 209 q 245 198 243 203 q 267 183 267 194 q 279 171 278 174 q 281 164 281 168 q 292 166 292 168 q 296 163 293 164 q 308 159 305 164 q 316 151 311 153 q 342 159 334 156 q 360 159 358 155 q 366 164 362 164 q 376 160 373 165 q 382 149 378 155 q 394 157 391 152 q 407 165 397 163 q 418 169 415 167 q 425 172 422 171 q 446 184 439 178 q 464 191 452 190 q 471 210 472 198 q 486 213 475 216 q 492 230 490 227 q 495 237 494 233 q 507 262 500 259 q 524 266 514 264 q 526 281 525 273 q 525 298 526 289 q 536 311 532 304 q 540 331 540 319 q 538 344 534 342 q 541 350 541 346 q 532 363 532 359 q 533 372 533 368 q 516 376 524 378 q 506 370 509 373 q 494 370 495 372 q 487 370 492 368 q 477 368 481 369 q 465 368 472 366 q 449 380 449 376 q 458 397 454 393 q 464 404 461 400 q 455 420 452 418 q 461 429 458 423 q 460 452 458 448 q 452 462 453 460 q 449 468 450 464 q 451 479 449 476 q 456 484 453 481 q 463 494 458 499 q 472 487 468 490 q 501 489 494 486 q 519 488 509 492 q 529 488 528 483 q 540 490 530 492 q 559 483 555 481 q 567 481 563 484 q 574 487 570 484 q 586 488 579 490 q 606 484 602 479 q 616 490 610 490 q 623 488 620 490 q 632 483 627 486 q 643 488 639 484 q 652 495 647 491 q 669 496 662 494 q 684 495 675 498 q 705 500 697 498 z "},"'":{"ha":264,"x_min":56,"x_max":203,"o":"m 189 749 q 174 749 176 745 q 165 757 172 754 q 146 762 152 754 q 130 760 137 755 q 119 772 123 765 q 110 765 114 769 q 99 765 106 761 q 83 753 88 761 q 68 742 79 745 q 66 766 58 760 q 71 784 73 773 q 77 792 73 788 q 83 802 80 796 q 75 814 77 812 q 72 821 72 817 q 76 857 75 846 q 76 880 77 868 q 71 898 72 894 q 71 907 71 902 q 71 924 75 922 q 62 928 66 925 q 60 949 57 945 q 65 956 62 952 q 64 977 61 974 q 69 983 66 979 q 61 990 66 989 q 57 1000 56 991 q 62 1008 60 1005 q 65 1019 65 1010 q 75 1023 71 1021 q 90 1024 80 1025 q 102 1029 96 1027 q 114 1034 107 1031 q 130 1029 125 1029 q 149 1025 138 1025 q 172 1019 165 1019 q 184 1023 179 1020 q 197 1024 189 1027 q 201 1013 203 1019 q 193 1004 198 1006 q 189 989 193 996 q 183 977 186 983 q 186 965 184 971 q 184 954 187 959 q 188 925 194 932 q 178 910 182 918 q 184 900 180 905 q 189 887 189 895 q 186 878 189 882 q 183 868 184 873 q 183 848 187 852 q 184 829 183 837 q 186 812 184 822 q 189 785 191 803 q 185 768 183 770 q 187 764 187 766 q 187 757 186 760 q 189 749 189 754 z "},"(":{"ha":404,"x_min":20,"x_max":407,"o":"m 392 -126 q 397 -152 407 -142 q 373 -157 388 -161 q 362 -148 366 -146 q 354 -151 358 -149 q 334 -146 340 -153 q 324 -133 328 -140 q 304 -123 313 -127 q 286 -113 296 -118 q 262 -106 269 -110 q 251 -98 256 -103 q 224 -88 229 -100 q 209 -80 209 -81 q 208 -77 209 -79 q 190 -66 193 -69 q 189 -60 187 -64 q 172 -43 174 -52 q 167 -31 171 -35 q 159 -29 163 -30 q 153 -24 156 -28 q 144 -7 149 -9 q 138 3 140 -4 q 124 8 129 4 q 115 19 119 12 l 119 35 q 108 41 115 39 q 98 47 100 42 q 105 60 100 56 q 113 72 110 65 q 104 73 110 73 q 96 75 99 72 q 95 88 96 83 q 96 98 94 94 q 90 113 91 110 q 90 119 88 115 q 79 128 84 125 q 69 138 73 132 q 67 151 69 146 q 62 160 65 155 q 64 180 62 171 q 68 199 66 189 q 61 238 61 216 q 54 277 61 260 q 58 306 64 290 q 47 332 53 321 q 50 347 50 339 q 46 359 50 354 q 31 366 39 363 q 20 374 23 368 q 26 388 22 382 q 36 399 31 393 q 44 413 41 406 q 46 431 47 420 l 52 450 q 43 458 49 456 q 35 467 38 460 q 42 498 35 486 q 56 521 49 510 q 58 551 57 537 q 57 578 60 566 l 50 601 q 56 617 53 609 q 61 633 58 625 q 61 642 61 637 q 64 650 61 647 q 56 654 61 654 q 50 659 50 655 q 83 700 75 681 q 98 742 91 719 q 103 771 98 761 q 115 792 109 781 q 119 803 117 799 q 123 811 121 807 q 125 820 125 815 q 126 827 125 825 q 140 848 141 836 q 154 871 148 859 q 167 894 160 883 q 175 902 171 898 q 182 911 179 906 q 194 919 189 914 q 206 928 199 924 q 229 949 217 941 q 241 962 236 956 q 254 971 245 968 q 281 985 274 975 q 301 997 289 994 q 320 1000 308 1000 q 343 1000 332 1001 q 353 1002 350 1000 q 362 1006 355 1005 q 371 1006 365 1008 q 380 1005 377 1004 q 386 1000 387 1005 q 388 991 385 996 q 387 976 384 978 q 391 968 391 974 q 388 957 391 962 q 384 945 385 952 q 385 935 382 939 q 389 926 387 932 q 384 918 387 921 q 380 911 381 916 q 389 901 389 903 q 388 895 388 898 q 389 879 391 880 q 384 879 388 878 q 372 873 378 876 q 355 869 366 869 q 349 863 351 867 q 345 857 347 860 q 323 833 332 844 q 304 811 315 822 q 293 799 298 804 q 286 785 290 792 q 278 770 281 777 q 262 739 271 747 q 245 719 252 731 q 246 709 244 712 q 247 699 248 705 q 240 682 244 690 q 232 665 236 674 q 228 644 232 654 q 219 629 221 629 q 216 627 217 629 q 210 602 212 610 q 205 586 208 594 q 210 577 208 579 q 213 570 213 575 q 208 550 214 560 q 198 529 202 540 q 201 505 199 511 q 201 491 203 499 q 196 479 199 484 q 193 468 193 475 q 197 449 195 458 q 199 426 199 439 q 199 401 205 408 q 202 383 199 391 q 208 366 205 376 q 206 338 206 351 q 209 309 206 324 q 214 272 209 286 q 220 243 218 258 q 221 208 220 224 q 227 180 222 193 q 232 184 229 182 q 240 187 235 187 q 247 176 247 184 q 248 160 247 167 q 247 152 247 156 q 245 141 247 148 q 254 130 250 134 q 262 117 259 126 q 260 100 262 109 q 259 81 258 92 q 275 64 275 75 q 279 49 274 54 q 304 31 300 49 q 320 27 315 34 q 319 15 320 20 q 320 4 317 9 q 338 -1 334 4 q 355 -11 353 -5 q 363 -9 358 -8 q 372 -12 369 -9 q 379 -10 374 -11 q 387 -11 384 -9 q 387 -33 389 -22 q 381 -53 384 -43 q 384 -64 382 -58 q 388 -73 385 -69 q 384 -101 382 -84 q 392 -126 385 -118 z "},")":{"ha":404,"x_min":-3,"x_max":384,"o":"m 12 -126 q 20 -101 19 -118 q 16 -73 22 -84 q 20 -64 19 -69 q 23 -53 22 -58 q 18 -33 20 -43 q 18 -11 15 -22 q 25 -10 20 -9 q 33 -12 30 -11 q 49 -11 39 -5 l 66 -1 q 84 4 71 4 q 85 15 87 9 q 84 27 84 20 q 100 31 90 34 q 125 49 104 49 q 130 64 130 54 q 133 80 129 75 q 144 100 146 92 q 142 117 142 109 q 149 130 144 126 q 159 141 155 134 q 157 152 157 148 q 156 160 157 156 q 157 176 157 167 q 164 187 157 184 q 172 184 170 187 q 178 180 175 182 q 183 208 182 193 q 189 235 184 224 q 191 272 186 258 q 190 300 195 286 q 198 338 198 324 q 197 366 198 351 q 202 383 199 376 q 205 401 205 391 q 199 419 199 408 q 207 449 205 439 q 212 468 209 458 q 208 479 212 475 q 203 491 205 484 q 203 505 201 499 q 208 518 205 511 q 196 550 202 540 q 191 570 190 560 q 194 577 191 575 q 199 586 197 579 q 195 602 197 594 q 186 616 193 610 q 185 629 187 629 q 182 631 183 629 q 172 665 172 654 q 164 682 168 674 q 157 699 160 690 q 158 709 156 705 q 159 719 160 712 q 142 739 152 731 q 126 757 133 747 q 119 785 123 777 q 111 799 114 792 q 100 811 103 808 q 81 833 90 822 q 57 849 72 844 q 55 863 57 860 q 49 869 53 867 q 32 873 38 869 q 20 879 26 876 q 13 892 9 891 q 16 895 16 892 q 21 909 18 909 q 24 911 24 909 q 20 918 23 916 q 15 926 18 921 q 20 935 18 932 q 20 945 22 939 q 16 957 19 952 q 14 968 14 962 q 17 976 14 974 q 22 982 20 978 q 18 1000 19 996 q 24 1005 18 1005 q 33 1006 27 1004 q 42 1006 39 1008 q 52 1002 49 1005 q 61 1000 54 1000 q 84 1000 72 1001 q 103 997 96 1000 q 123 985 115 994 q 142 971 130 975 q 163 962 159 968 q 175 949 168 956 q 198 928 187 941 q 210 919 205 924 q 222 911 216 914 q 229 902 225 906 q 237 894 233 898 q 250 871 244 883 q 264 848 256 859 q 270 829 263 836 q 279 820 279 825 q 281 811 279 815 q 286 803 283 807 q 289 792 288 799 q 301 771 296 781 q 311 749 307 761 q 322 700 313 719 q 345 669 331 681 q 349 654 354 655 q 340 650 343 654 q 343 642 343 647 q 343 633 343 637 q 349 617 346 625 q 354 601 351 609 q 350 583 353 585 q 347 578 347 582 q 346 551 345 566 q 351 528 347 537 q 362 498 355 510 q 369 467 369 486 q 361 458 366 460 q 353 450 355 456 q 355 437 354 438 q 358 431 357 435 q 360 413 357 420 q 368 399 363 406 q 377 388 373 393 q 384 374 381 382 q 373 366 381 368 q 358 359 365 363 q 354 347 354 354 q 357 332 354 339 q 346 306 351 321 q 350 277 340 290 q 343 238 343 260 q 336 199 343 216 q 340 180 338 189 q 342 160 342 171 q 337 151 339 155 q 335 138 335 146 q 326 128 331 132 q 315 119 320 125 q 315 113 316 115 q 313 104 313 110 q 309 88 311 94 q 311 79 308 83 q 300 73 305 72 q 292 72 294 73 q 299 60 294 65 q 307 47 304 56 q 296 41 304 42 q 285 35 289 39 l 289 19 q 280 8 285 12 q 266 3 275 4 q 260 -7 264 -4 q 248 -11 255 -9 q 245 -29 248 -28 q 237 -31 241 -30 q 232 -43 233 -35 q 225 -56 231 -52 q 214 -66 217 -64 q 210 -72 212 -69 q 195 -80 195 -79 q 193 -83 195 -81 q 153 -98 175 -100 q 142 -106 148 -103 q 129 -113 136 -110 q 100 -123 109 -118 q 80 -133 91 -127 q 70 -146 76 -140 q 50 -151 64 -153 q 42 -148 46 -149 q 33 -149 38 -146 q 7 -152 16 -161 q 0 -127 -3 -142 l 12 -126 z "},"*":{"ha":397,"x_min":34,"x_max":362,"o":"m 361 920 q 346 921 346 921 q 336 920 340 921 q 328 916 332 920 q 319 915 324 916 q 312 911 315 914 q 300 913 305 913 q 289 913 294 914 q 280 911 285 911 q 271 909 275 911 q 278 895 278 897 q 281 885 278 888 q 289 878 285 882 q 304 861 300 867 q 313 849 308 854 q 331 833 323 837 q 321 823 320 825 q 320 822 321 822 q 309 817 315 817 q 300 808 302 817 q 288 798 286 802 q 290 789 290 793 q 283 784 288 784 q 274 783 279 784 q 256 776 267 776 l 252 791 q 248 799 250 795 q 241 806 247 803 q 232 818 239 814 q 230 830 231 825 q 225 841 229 836 q 220 851 224 846 q 213 860 217 856 q 203 871 205 867 q 198 879 201 875 q 191 861 191 864 q 190 856 190 859 q 177 844 179 845 q 174 844 175 844 q 166 817 168 823 q 159 804 164 810 q 151 797 151 800 q 151 791 152 793 q 142 777 144 777 q 137 776 140 776 q 117 787 119 779 q 107 800 111 798 q 84 814 91 810 q 75 830 77 818 q 83 849 80 845 q 94 850 87 853 q 103 866 103 863 q 104 872 103 869 q 109 879 107 875 q 114 887 111 883 q 117 901 115 903 q 119 902 118 899 q 106 918 111 914 q 98 924 100 921 q 72 925 77 926 q 56 935 60 933 q 49 937 53 936 q 35 948 37 947 q 38 954 34 949 q 41 964 42 962 q 38 970 39 966 q 41 985 42 983 q 38 990 39 987 q 54 1004 53 1000 q 58 1010 56 1008 q 61 1025 60 1024 q 81 1020 75 1013 q 94 1008 92 1008 q 98 1008 95 1009 q 102 1000 100 1005 q 110 996 104 996 q 128 992 125 994 q 136 993 132 990 q 148 987 144 990 q 160 983 152 983 q 160 998 160 994 q 161 1004 160 1001 q 160 1031 155 1021 q 168 1046 171 1040 q 167 1055 164 1051 q 167 1076 165 1073 q 171 1081 168 1078 q 186 1090 183 1089 q 193 1092 190 1092 q 198 1086 197 1092 q 205 1080 199 1081 q 218 1088 210 1088 q 232 1099 235 1088 q 241 1113 240 1108 q 247 1120 243 1118 q 266 1124 252 1122 q 272 1132 270 1127 q 279 1138 274 1137 q 278 1104 277 1116 q 274 1091 273 1093 q 275 1086 275 1089 q 269 1082 273 1084 q 262 1077 264 1080 q 261 1063 263 1067 q 256 1055 259 1059 q 256 1046 255 1051 q 251 1038 256 1042 q 240 1015 248 1020 q 245 1000 243 1004 q 237 981 243 986 q 252 979 251 978 q 254 979 252 979 q 265 979 260 977 q 275 983 270 981 q 311 998 296 990 q 331 1008 324 1001 q 336 995 335 994 q 338 994 338 996 q 340 983 342 989 q 345 971 338 977 q 351 958 346 958 q 359 956 355 958 q 361 947 362 951 q 361 939 361 943 q 361 929 361 933 q 361 920 362 925 z "},"+":{"ha":570,"x_min":-16,"x_max":551,"o":"m 537 509 q 543 503 540 506 q 548 496 547 499 q 546 486 551 491 q 536 477 541 480 q 531 464 530 471 q 528 450 532 457 q 533 431 537 438 q 514 433 517 433 q 496 425 500 435 q 486 427 490 422 q 476 438 481 433 q 452 445 457 438 q 439 449 446 452 q 425 442 429 441 q 418 445 422 444 q 406 444 411 444 q 395 442 400 445 q 368 445 381 442 q 342 444 355 448 q 339 420 339 425 q 339 411 339 415 q 350 372 351 387 q 334 338 336 351 q 347 323 340 331 q 351 308 353 315 q 358 301 354 304 q 361 293 362 298 q 353 279 355 283 q 349 270 351 275 q 347 255 351 255 q 338 255 342 255 q 329 250 334 252 q 320 247 324 248 q 309 254 312 245 q 298 263 305 263 q 279 247 292 247 q 264 248 269 248 q 263 227 254 241 q 254 214 260 217 q 251 200 251 208 q 245 187 251 193 q 232 182 239 184 q 220 176 225 179 q 212 165 213 172 q 203 155 210 157 q 194 161 193 159 q 193 168 195 164 q 197 184 195 176 q 195 205 198 193 q 197 225 201 222 q 193 233 194 228 q 203 241 197 237 q 213 250 209 244 q 209 270 208 263 q 213 283 210 277 q 211 298 212 290 q 217 312 210 305 l 217 349 q 221 373 212 361 q 217 385 218 380 q 209 395 216 389 q 211 416 212 411 q 213 426 210 420 q 206 428 210 429 q 198 431 202 427 q 201 441 197 438 q 208 446 205 444 q 195 449 201 449 q 183 448 189 449 q 171 450 176 449 q 159 453 165 452 q 133 456 141 457 q 117 452 125 454 q 110 448 114 449 q 103 445 106 448 q 52 442 77 450 q 43 443 47 444 q 35 444 39 442 q 15 431 23 439 q 9 435 12 429 q 7 448 5 442 q 11 478 5 469 q 7 498 16 487 q 12 518 5 509 q 1 526 8 525 q -11 530 -5 526 q -13 545 -16 537 q -7 559 -9 552 q -6 574 -8 567 q -1 590 -4 582 q 20 591 16 593 q 54 583 41 578 q 68 582 61 582 q 81 586 75 582 q 102 577 92 582 q 121 575 111 572 q 159 576 141 571 q 169 586 165 589 q 175 583 172 583 q 197 581 193 582 q 208 583 201 581 q 210 602 212 595 q 212 614 208 608 q 208 623 209 618 q 203 629 206 627 l 208 654 q 210 684 203 671 q 204 707 208 696 q 203 732 201 719 q 209 751 212 746 q 205 760 206 755 q 203 776 206 774 q 201 780 201 777 q 203 799 208 795 q 201 806 198 803 q 210 806 206 808 q 218 803 214 804 q 248 796 236 803 q 263 787 258 789 q 274 784 269 784 q 288 785 288 785 q 292 788 289 785 q 319 784 305 785 q 346 768 332 783 q 347 751 347 751 q 346 747 346 750 q 351 734 353 741 q 340 724 349 727 q 342 711 340 718 q 336 703 343 705 q 338 692 336 697 q 342 682 340 688 q 341 667 342 675 q 340 651 340 658 q 350 631 353 636 q 356 625 353 628 q 361 618 359 621 q 357 602 358 609 q 354 587 357 594 q 362 589 358 586 q 369 590 366 591 q 372 581 376 586 q 368 572 368 576 q 376 572 370 570 q 384 576 381 574 q 408 575 403 576 q 420 572 414 574 q 441 572 429 571 q 451 576 446 575 q 461 582 456 578 q 480 572 471 581 q 492 574 486 575 q 505 575 498 574 q 515 584 513 583 q 521 587 518 585 q 528 581 525 586 q 528 574 530 575 q 533 564 530 567 q 533 555 536 562 q 532 536 528 538 q 540 529 536 533 q 539 522 541 525 q 540 514 537 518 l 537 509 z "},",":{"ha":248,"x_min":18,"x_max":228,"o":"m 212 160 q 228 142 227 153 q 214 135 222 137 q 199 127 206 133 q 200 111 206 113 q 189 109 194 110 q 186 89 190 94 q 180 80 183 84 q 180 56 183 73 q 172 50 178 50 q 161 46 165 49 q 169 36 161 39 q 170 22 176 33 q 161 22 167 20 q 152 22 155 23 q 157 6 157 8 q 156 1 157 4 q 146 -14 149 -14 q 144 -16 144 -14 q 137 -34 141 -24 q 138 -49 133 -43 q 130 -64 130 -64 q 129 -68 130 -65 q 122 -78 126 -72 q 114 -84 118 -84 q 97 -76 104 -75 q 88 -71 90 -77 q 76 -71 81 -68 q 65 -66 71 -73 q 56 -63 60 -66 q 46 -60 53 -60 q 37 -60 39 -60 q 27 -58 35 -61 q 20 -43 18 -50 q 30 -24 23 -35 q 31 -2 28 -5 q 37 7 33 1 q 46 12 41 11 q 54 20 52 14 q 47 29 53 27 q 42 38 41 31 q 50 44 43 43 q 58 49 56 45 q 60 66 61 62 q 61 87 53 85 q 72 98 69 88 q 75 108 73 103 q 76 117 76 113 q 76 132 80 130 q 72 138 72 134 q 82 151 72 148 q 92 161 92 153 q 81 162 85 163 q 72 164 77 161 q 75 178 72 175 q 77 184 77 180 q 92 189 87 189 q 102 182 100 184 q 111 179 104 179 q 118 179 115 178 q 126 180 121 180 q 164 175 144 176 q 193 160 184 174 q 203 159 198 160 q 212 160 209 159 z "},"-":{"ha":507,"x_min":7,"x_max":503,"o":"m 498 498 q 498 484 492 490 q 498 471 503 477 q 483 471 484 473 q 477 469 481 469 q 454 473 467 472 q 431 480 442 475 q 425 471 429 476 q 414 471 420 465 q 399 473 399 465 q 392 477 396 476 q 385 480 388 477 q 376 477 381 479 q 363 477 370 475 q 348 472 349 471 q 345 472 347 473 q 329 469 336 471 q 312 469 321 468 q 300 483 302 476 q 275 472 288 479 q 266 473 269 471 q 259 477 263 475 q 241 477 243 479 q 236 473 239 475 q 224 474 225 476 q 221 472 224 472 q 203 467 209 471 q 186 463 197 463 q 161 471 171 463 q 145 473 152 476 q 132 475 138 471 q 125 472 127 473 q 117 471 122 471 q 99 475 102 477 q 92 469 96 472 q 50 481 57 465 q 26 477 39 477 q 9 479 12 473 q 14 513 9 500 q 7 530 8 526 q 8 540 7 534 q 11 553 15 551 q 8 564 7 556 q 13 571 11 568 q 14 579 15 574 q 21 585 16 583 q 30 591 26 587 q 47 594 43 590 q 57 601 50 598 q 81 591 71 587 q 103 597 92 594 q 110 592 109 595 q 114 585 111 589 q 128 589 121 586 q 144 589 136 593 q 163 591 160 593 q 168 587 165 590 q 197 594 187 593 q 216 593 208 595 q 229 587 228 585 q 233 590 231 590 q 245 589 240 590 q 256 586 250 587 q 304 591 278 597 q 321 587 311 587 q 343 586 332 586 q 362 593 353 591 q 370 599 366 595 q 380 600 373 602 q 392 589 387 585 q 404 593 397 593 q 425 587 419 589 q 438 585 431 586 q 457 589 454 590 q 479 586 469 595 q 489 583 487 587 q 494 575 491 579 q 491 547 490 556 q 487 534 492 538 q 492 520 494 522 q 488 515 490 518 q 493 501 490 502 q 498 498 496 500 z "}}}
